M48
; DRILL file {KiCad 9.0.2} date 2025-11-29T09:57:46-0600
; FORMAT={-:-/ absolute / inch / decimal}
; #@! TF.CreationDate,2025-11-29T09:57:46-06:00
; #@! TF.GenerationSoftware,Kicad,Pcbnew,9.0.2
; #@! TF.FileFunction,Plated,1,4,PTH
FMAT,2
INCH
; #@! TA.AperFunction,Plated,PTH,ComponentDrill
T1C0.0118
; #@! TA.AperFunction,Plated,PTH,ViaDrill
T2C0.0157
; #@! TA.AperFunction,Plated,PTH,ComponentDrill
T3C0.0197
; #@! TA.AperFunction,Plated,PTH,ComponentDrill
T4C0.0236
; #@! TA.AperFunction,Plated,PTH,ComponentDrill
T5C0.0295
; #@! TA.AperFunction,Plated,PTH,ComponentDrill
T6C0.0315
; #@! TA.AperFunction,Plated,PTH,ComponentDrill
T7C0.0354
; #@! TA.AperFunction,Plated,PTH,ComponentDrill
T8C0.0354
; #@! TA.AperFunction,Plated,PTH,ComponentDrill
T9C0.0394
; #@! TA.AperFunction,Plated,PTH,ComponentDrill
T10C0.0400
; #@! TA.AperFunction,Plated,PTH,ComponentDrill
T11C0.0433
; #@! TA.AperFunction,Plated,PTH,ComponentDrill
T12C0.0591
; #@! TA.AperFunction,Plated,PTH,ComponentDrill
T13C0.0669
; #@! TA.AperFunction,Plated,PTH,ComponentDrill
T14C0.0905
; #@! TA.AperFunction,Plated,PTH,ComponentDrill
T15C0.1260
%
G90
G05
T1
X10.8964Y-3.15
X10.9436Y-3.15
T2
X2.9836Y-6.6801
X3.0462Y-6.6492
X3.1274Y-9.6097
X3.1353Y-8.2848
X3.1757Y-5.7062
X3.1935Y-5.8537
X3.2056Y-5.4724
X3.2343Y-9.5168
X3.2958Y-5.4971
X3.3015Y-6.0719
X3.3392Y-6.813
X3.3464Y-6.3319
X3.3525Y-6.2871
X3.3689Y-6.7406
X3.3855Y-7.0803
X3.3945Y-9.6792
X3.4459Y-5.2158
X3.5205Y-6.199
X3.6196Y-8.7816
X3.6336Y-5.4724
X3.64Y-8.11
X3.6981Y-9.0748
X3.75Y-6.2402
X3.7598Y-5.4935
X3.8788Y-3.0928
X3.9Y-8.84
X3.909Y-5.1542
X3.9168Y-9.6119
X3.92Y-8.11
X3.9245Y-7.802
X3.9884Y-8.0174
X4.034Y-9.0762
X4.0661Y-5.4735
X4.1605Y-6.3251
X4.3508Y-9.5614
X4.3709Y-3.1938
X4.4689Y-6.3366
X4.4738Y-9.4934
X4.4837Y-9.722
X4.5191Y-8.7416
X4.5885Y-6.3896
X4.6053Y-5.5153
X4.607Y-5.2457
X4.6634Y-9.9063
X4.8131Y-8.4994
X4.8177Y-5.3562
X4.8261Y-5.4713
X4.8392Y-7.6999
X4.8509Y-8.0415
X4.8907Y-7.8188
X4.896Y-7.7001
X5.03Y-8.9462
X5.0658Y-8.83
X5.0946Y-8.7851
X5.1055Y-5.3315
X5.1468Y-8.2168
X5.16Y-5.1715
X5.3281Y-3.1467
X5.3362Y-6.3168
X5.3377Y-8.1719
X5.3435Y-6.3642
X5.3597Y-8.0499
X5.4169Y-3.5421
X5.4329Y-9.5793
X5.4678Y-3.153
X5.4924Y-8.1732
X5.513Y-8.9489
X5.5381Y-9.2066
X5.5746Y-5.5147
X5.5875Y-8.6677
X5.6225Y-5.3582
X5.6289Y-9.0635
X5.6308Y-7.0055
X5.6336Y-7.659
X5.6496Y-8.4963
X5.6539Y-8.864
X5.6641Y-6.7194
X5.6675Y-6.2075
X5.6827Y-8.7823
X5.6866Y-9.0673
X5.6922Y-8.4079
X5.7194Y-6.3983
X5.7279Y-9.8402
X5.7682Y-9.0131
X5.799Y-9.0839
X5.8058Y-10.8366
X5.8501Y-8.19
X5.8639Y-9.305
X5.8645Y-6.8053
X5.879Y-9.6078
X5.8799Y-8.1393
X5.9063Y-8.11
X5.9122Y-9.7565
X5.9204Y-8.9019
X5.9243Y-6.0051
X5.93Y-6.22
X5.9336Y-9.55
X5.9603Y-6.805
X5.9863Y-8.4224
X5.9877Y-8.8619
X6.0187Y-8.7369
X6.0237Y-9.7635
X6.0265Y-9.6647
X6.0409Y-9.0671
X6.0713Y-9.542
X6.0813Y-9.39
X6.1478Y-8.7251
X6.15Y-6.37
X6.2171Y-3.5424
X6.2214Y-7.7665
X6.2557Y-9.7324
X6.3063Y-9.2955
X6.307Y-8.4454
X6.336Y-8.6408
X6.3517Y-11.7576
X6.3615Y-9.8728
X6.3706Y-8.3004
X6.3725Y-5.5962
X6.3798Y-9.158
X6.381Y-5.7669
X6.41Y-6.37
X6.4158Y-9.4663
X6.4426Y-8.0568
X6.4639Y-9.3051
X6.4768Y-7.0361
X6.4854Y-6.7142
X6.5209Y-6.4488
X6.5583Y-9.6206
X6.5679Y-8.5193
X6.578Y-6.8631
X6.5983Y-8.1354
X6.6124Y-7.8956
X6.6288Y-7.0637
X6.634Y-9.4377
X6.634Y-9.7604
X6.6857Y-8.9111
X6.694Y-9.0519
X6.6968Y-7.8079
X6.7037Y-8.3518
X6.7264Y-8.0364
X6.743Y-9.8768
X6.8862Y-8.8276
X6.9004Y-8.339
X6.9174Y-9.3119
X6.928Y-3.1388
X6.9292Y-8.1131
X6.9304Y-8.7709
X6.9345Y-9.7989
X6.937Y-8.9567
X6.9487Y-9.8766
X6.9521Y-8.2574
X6.9626Y-6.3308
X6.9663Y-9.9483
X6.9734Y-8.5068
X7.0118Y-10.1894
X7.0194Y-9.0731
X7.0212Y-8.1819
X7.0404Y-10.2796
X7.0414Y-8.9704
X7.0663Y-8.6457
X7.0915Y-9.1248
X7.0958Y-6.1652
X7.1151Y-9.0249
X7.1332Y-4.4134
X7.1582Y-8.1814
X7.1909Y-6.6995
X7.201Y-4.289
X7.2254Y-7.7931
X7.2478Y-8.55
X7.2511Y-8.8255
X7.2621Y-10.3308
X7.3472Y-7.9232
X7.3661Y-8.6092
X7.3964Y-10.9945
X7.4183Y-8.0703
X7.4221Y-9.802
X7.4454Y-10.6212
X7.4722Y-9.8327
X7.4886Y-9.1517
X7.4938Y-9.9966
X7.4939Y-9.0973
X7.5737Y-5.3551
X7.5801Y-8.2219
X7.5804Y-9.0863
X7.6124Y-9.5984
X7.6872Y-8.9474
X7.6962Y-8.816
X7.7261Y-9.6924
X7.7682Y-10.3308
X7.784Y-8.3488
X7.797Y-5.3454
X7.8048Y-9.7662
X7.8493Y-9.1623
X7.9328Y-8.1963
X8.0381Y-9.5377
X8.0444Y-8.0989
X8.1076Y-8.8512
X8.1092Y-9.968
X8.1872Y-9.5844
X8.1931Y-8.3307
X8.2208Y-9.9704
X8.2345Y-9.7277
X8.2379Y-8.3135
X8.2709Y-10.312
X8.2738Y-9.5278
X8.3048Y-7.4953
X8.3053Y-8.4056
X8.3192Y-8.3014
X8.3199Y-8.0647
X8.3207Y-5.1408
X8.3251Y-9.4794
X8.3338Y-8.1907
X8.4011Y-8.4238
X8.4079Y-7.9802
X8.4601Y-6.622
X8.4724Y-9.3703
X8.4797Y-6.2307
X8.4838Y-9.0292
X8.4993Y-9.4971
X8.5019Y-9.3126
X8.5501Y-6.5868
X8.561Y-7.7349
X8.5778Y-9.4902
X8.6146Y-9.0627
X8.6386Y-7.92
X8.6555Y-3.8856
X8.7042Y-10.0455
X8.7197Y-9.7938
X8.7263Y-4.5843
X8.7295Y-3.5649
X8.738Y-8.3299
X8.7542Y-8.8273
X8.7676Y-9.1089
X8.779Y-8.3148
X8.7868Y-8.8024
X8.797Y-9.5134
X8.8101Y-6.9547
X8.862Y-7.4013
X8.927Y-8.5843
X8.9408Y-6.1574
X8.9604Y-8.9426
X8.9604Y-9.0628
X8.972Y-8.4596
X8.9844Y-9.5965
X8.9848Y-4.3149
X9.0021Y-9.7241
X9.0235Y-8.2082
X9.0244Y-8.8675
X9.0379Y-6.9833
X9.0973Y-4.7624
X9.1034Y-10.9057
X9.1077Y-4.551
X9.1234Y-9.4521
X9.1257Y-6.9547
X9.1276Y-10.8202
X9.1908Y-7.723
X9.1928Y-6.3473
X9.1984Y-6.4491
X9.214Y-9.2489
X9.2141Y-9.3434
X9.2181Y-8.7304
X9.2183Y-8.6786
X9.2186Y-8.4884
X9.2481Y-8.6163
X9.2495Y-5.0759
X9.2569Y-8.895
X9.2744Y-9.32
X9.294Y-5.01
X9.3045Y-5.4045
X9.3079Y-8.2219
X9.3231Y-9.6931
X9.3243Y-7.8644
X9.3285Y-8.5938
X9.3423Y-10.7799
X9.3514Y-7.9674
X9.3518Y-8.1778
X9.3607Y-9.3751
X9.3661Y-9.452
X9.3687Y-5.9314
X9.4646Y-7.9361
X9.5024Y-8.9245
X9.5062Y-7.9484
X9.5111Y-8.1269
X9.5287Y-5.9486
X9.5545Y-5.9881
X9.5655Y-10.2312
X9.6396Y-5.2138
X9.6451Y-9.1402
X9.6564Y-10.028
X9.6744Y-10.8007
X9.6824Y-5.3144
X9.7265Y-10.8224
X9.7336Y-8.2829
X9.7591Y-6.7915
X9.7703Y-6.3673
X9.7703Y-4.9621
X9.775Y-6.7093
X9.7902Y-10.9077
X9.8121Y-10.1959
X9.8187Y-8.3044
X9.8332Y-5.1147
X9.8492Y-7.8549
X9.8836Y-10.3045
X9.8839Y-10.0164
X9.8864Y-5.3837
X10.0206Y-9.0106
X10.0332Y-10.782
X10.0683Y-8.7787
X10.0816Y-9.8268
X10.1201Y-9.3443
X10.1223Y-8.899
X10.1292Y-4.7956
X10.1351Y-11.0122
X10.156Y-10.9774
X10.2084Y-4.8731
X10.2581Y-10.967
X10.288Y-8.7168
X10.3561Y-8.3651
X10.3692Y-6.3369
X10.4039Y-11.0024
X10.4658Y-5.6691
X10.4957Y-10.2826
X10.4964Y-10.5426
X10.5179Y-8.3994
X10.5188Y-9.8991
X10.5317Y-10.8349
X10.5366Y-7.8516
X10.5516Y-11.0212
X10.5859Y-10.8454
X10.6557Y-7.3
X10.6917Y-8.033
X10.7487Y-10.0993
X10.7986Y-6.9195
X10.8232Y-9.2084
X10.8387Y-11.0124
X10.8407Y-7.7914
X10.8635Y-6.9827
X10.995Y-7.3742
X10.9964Y-10.8303
X11.0639Y-10.0219
X11.1827Y-3.2191
X11.2786Y-8.5181
X11.3474Y-6.9638
X11.4255Y-9.4363
X11.5634Y-8.2942
X11.5709Y-8.236
X11.6064Y-8.3835
X11.81Y-9.4749
T3
X10.8036Y-4.8647
X10.8036Y-4.9238
T5
X3.5Y-11.02
X3.55Y-10.97
X3.6Y-11.02
T6
X2.8998Y-6.6666
X2.8998Y-6.7666
X2.8998Y-6.8666
X2.8998Y-6.9666
X2.8998Y-7.0666
X2.8998Y-7.1666
X2.8998Y-7.2666
X2.94Y-7.73
X2.94Y-7.83
X2.94Y-7.93
X2.94Y-8.03
X2.94Y-8.13
X2.94Y-8.23
X2.94Y-8.33
X2.9757Y-11.4129
X2.9757Y-11.7129
X3.1998Y-6.6666
X3.1998Y-6.7666
X3.1998Y-6.8666
X3.1998Y-6.9666
X3.1998Y-7.0666
X3.1998Y-7.1666
X3.1998Y-7.2666
X3.24Y-7.73
X3.24Y-7.83
X3.24Y-7.93
X3.24Y-8.03
X3.24Y-8.13
X3.24Y-8.23
X3.24Y-8.33
X3.2625Y-6.4012
X3.2883Y-4.6562
X3.3331Y-6.66
X3.3431Y-7.55
X3.3867Y-4.6562
X3.4109Y-3.2287
X3.4109Y-3.5287
X3.44Y-5.025
X3.44Y-5.325
X3.4594Y-6.4012
X3.5Y-7.86
X3.5Y-7.96
X3.5Y-8.06
X3.5Y-8.16
X3.5Y-8.26
X3.5Y-8.36
X3.5Y-8.46
X3.5Y-8.56
X3.5Y-8.66
X3.5Y-8.76
X3.53Y-6.66
X3.53Y-9.33
X3.53Y-9.43
X3.53Y-9.53
X3.53Y-9.63
X3.53Y-9.73
X3.53Y-9.83
X3.53Y-9.93
X3.53Y-10.03
X3.53Y-10.13
X3.53Y-10.23
X3.54Y-7.55
X3.5531Y-9.04
X3.5618Y-10.5109
X3.73Y-6.66
X3.73Y-6.76
X3.73Y-6.86
X3.73Y-6.96
X3.73Y-7.06
X3.73Y-7.16
X3.73Y-7.26
X3.73Y-7.36
X3.73Y-7.46
X3.73Y-7.56
X3.75Y-9.04
X3.7587Y-10.5109
X3.8Y-7.86
X3.8Y-7.96
X3.8Y-8.06
X3.8Y-8.16
X3.8Y-8.26
X3.8Y-8.36
X3.8Y-8.46
X3.8Y-8.56
X3.8Y-8.66
X3.8Y-8.76
X3.83Y-9.33
X3.83Y-9.43
X3.83Y-9.53
X3.83Y-9.63
X3.83Y-9.73
X3.83Y-9.83
X3.83Y-9.93
X3.83Y-10.03
X3.83Y-10.13
X3.83Y-10.23
X3.889Y-10.815
X3.889Y-11.115
X3.9818Y-7.8609
X4.03Y-6.66
X4.03Y-6.76
X4.03Y-6.86
X4.03Y-6.96
X4.03Y-7.06
X4.03Y-7.16
X4.03Y-7.26
X4.03Y-7.36
X4.03Y-7.46
X4.03Y-7.56
X4.0525Y-6.3792
X4.1075Y-4.6562
X4.1787Y-7.8609
X4.19Y-4.03
X4.19Y-4.33
X4.19Y-9.29
X4.199Y-10.803
X4.199Y-11.103
X4.2059Y-4.6562
X4.2494Y-6.3792
X4.29Y-9.29
X4.2916Y-11.316
X4.36Y-7.86
X4.36Y-7.96
X4.36Y-8.06
X4.36Y-8.16
X4.36Y-8.26
X4.36Y-8.36
X4.36Y-8.46
X4.36Y-8.56
X4.36Y-8.66
X4.36Y-8.76
X4.39Y-9.29
X4.39Y-11.316
X4.41Y-6.65
X4.41Y-6.75
X4.41Y-6.85
X4.41Y-6.95
X4.41Y-7.05
X4.41Y-7.15
X4.41Y-7.25
X4.41Y-7.35
X4.41Y-7.45
X4.41Y-7.55
X4.4416Y-10.96
X4.49Y-9.29
X4.54Y-10.96
X4.59Y-9.29
X4.64Y-10.38
X4.6437Y-11.3352
X4.6437Y-11.6352
X4.66Y-7.86
X4.66Y-7.96
X4.66Y-8.06
X4.66Y-8.16
X4.66Y-8.26
X4.66Y-8.36
X4.66Y-8.46
X4.66Y-8.56
X4.66Y-8.66
X4.66Y-8.76
X4.69Y-9.29
X4.71Y-6.65
X4.71Y-6.75
X4.71Y-6.85
X4.71Y-6.95
X4.71Y-7.05
X4.71Y-7.15
X4.71Y-7.25
X4.71Y-7.35
X4.71Y-7.45
X4.71Y-7.55
X4.7437Y-11.3352
X4.7437Y-11.6352
X4.76Y-10.78
X4.76Y-11.08
X4.79Y-9.29
X4.8437Y-11.3352
X4.8437Y-11.6352
X4.8527Y-6.3382
X4.86Y-10.78
X4.86Y-11.08
X4.89Y-9.29
X4.8934Y-7.76
X4.9335Y-4.6562
X4.94Y-8.03
X4.94Y-8.13
X4.94Y-8.23
X4.94Y-8.33
X4.94Y-8.43
X4.94Y-8.53
X4.94Y-8.63
X4.94Y-8.73
X4.94Y-8.83
X4.94Y-8.93
X4.94Y-10.38
X4.9437Y-11.3352
X4.9437Y-11.6352
X4.96Y-10.78
X4.96Y-11.08
X4.99Y-9.29
X5.0009Y-4.0287
X5.0009Y-4.3287
X5.0319Y-4.6562
X5.0437Y-11.3352
X5.0437Y-11.6352
X5.0496Y-6.3382
X5.06Y-10.78
X5.06Y-11.08
X5.0902Y-7.76
X5.13Y-9.69
X5.1437Y-11.3352
X5.1437Y-11.6352
X5.16Y-10.78
X5.16Y-11.08
X5.24Y-8.03
X5.24Y-8.13
X5.24Y-8.23
X5.24Y-8.33
X5.24Y-8.43
X5.24Y-8.53
X5.24Y-8.63
X5.24Y-8.73
X5.24Y-8.83
X5.24Y-8.93
X5.2437Y-11.3352
X5.2437Y-11.6352
X5.26Y-10.78
X5.26Y-11.08
X5.3191Y-7.5718
X5.3191Y-7.7687
X5.36Y-10.78
X5.36Y-11.08
X5.43Y-9.69
X5.47Y-6.85
X5.47Y-6.95
X5.47Y-7.05
X5.47Y-7.15
X5.47Y-7.25
X5.47Y-7.35
X5.47Y-7.45
X5.47Y-7.55
X5.47Y-7.65
X5.47Y-7.75
X5.54Y-10.34
X5.54Y-10.5369
X5.56Y-6.59
X5.5925Y-6.3432
X5.64Y-8.04
X5.64Y-8.34
X5.66Y-6.59
X5.7Y-9.92
X5.7Y-10.02
X5.7Y-10.12
X5.7Y-10.22
X5.7Y-10.32
X5.7Y-10.42
X5.7Y-10.52
X5.7127Y-4.6562
X5.76Y-6.59
X5.77Y-6.85
X5.77Y-6.95
X5.77Y-7.05
X5.77Y-7.15
X5.77Y-7.25
X5.77Y-7.35
X5.77Y-7.45
X5.77Y-7.55
X5.77Y-7.65
X5.77Y-7.75
X5.7894Y-6.3432
X5.8006Y-8.04
X5.8006Y-8.34
X5.8112Y-4.6562
X5.86Y-6.59
X5.9191Y-7.5718
X5.9191Y-7.7687
X5.96Y-6.59
X5.96Y-8.04
X5.96Y-8.34
X6.0Y-9.92
X6.0Y-10.02
X6.0Y-10.12
X6.0Y-10.22
X6.0Y-10.32
X6.0Y-10.42
X6.0Y-10.52
X6.06Y-6.59
X6.06Y-6.85
X6.06Y-6.95
X6.06Y-7.05
X6.06Y-7.15
X6.06Y-7.25
X6.06Y-7.35
X6.06Y-7.45
X6.06Y-7.55
X6.06Y-7.65
X6.06Y-7.75
X6.16Y-6.59
X6.16Y-9.75
X6.1713Y-10.9509
X6.21Y-7.99
X6.21Y-8.09
X6.21Y-8.19
X6.21Y-8.29
X6.21Y-8.39
X6.21Y-8.49
X6.21Y-8.59
X6.21Y-8.69
X6.21Y-8.79
X6.21Y-8.89
X6.21Y-8.99
X6.21Y-9.09
X6.21Y-9.19
X6.21Y-9.29
X6.21Y-9.39
X6.21Y-9.49
X6.26Y-6.59
X6.26Y-10.09
X6.26Y-10.19
X6.26Y-10.29
X6.26Y-10.39
X6.26Y-10.49
X6.26Y-10.59
X6.36Y-6.59
X6.36Y-6.85
X6.36Y-6.95
X6.36Y-7.05
X6.36Y-7.15
X6.36Y-7.25
X6.36Y-7.35
X6.36Y-7.45
X6.36Y-7.55
X6.36Y-7.65
X6.36Y-7.75
X6.36Y-9.99
X6.36Y-10.09
X6.36Y-10.19
X6.36Y-10.29
X6.36Y-10.39
X6.36Y-10.49
X6.36Y-10.59
X6.36Y-10.69
X6.46Y-6.59
X6.46Y-9.75
X6.46Y-9.99
X6.46Y-10.09
X6.46Y-10.59
X6.46Y-10.69
X6.4713Y-10.9509
X6.5046Y-4.667
X6.5285Y-6.3752
X6.56Y-9.99
X6.56Y-10.09
X6.56Y-10.59
X6.56Y-10.69
X6.603Y-4.667
X6.63Y-6.59
X6.66Y-9.99
X6.66Y-10.09
X6.66Y-10.59
X6.66Y-10.69
X6.7254Y-6.3752
X6.73Y-6.59
X6.76Y-9.99
X6.76Y-10.09
X6.76Y-10.59
X6.76Y-10.69
X6.81Y-7.04
X6.81Y-7.14
X6.81Y-7.24
X6.81Y-7.34
X6.81Y-7.44
X6.81Y-7.54
X6.81Y-7.64
X6.81Y-7.74
X6.81Y-7.99
X6.81Y-8.09
X6.81Y-8.19
X6.81Y-8.29
X6.81Y-8.39
X6.81Y-8.49
X6.81Y-8.59
X6.81Y-8.69
X6.81Y-8.79
X6.81Y-8.89
X6.81Y-8.99
X6.81Y-9.09
X6.81Y-9.19
X6.81Y-9.29
X6.81Y-9.39
X6.81Y-9.49
X6.83Y-6.59
X6.8531Y-9.78
X6.86Y-9.99
X6.86Y-10.09
X6.86Y-10.19
X6.86Y-10.29
X6.86Y-10.39
X6.86Y-10.49
X6.86Y-10.59
X6.86Y-10.69
X6.93Y-6.59
X6.96Y-10.09
X6.96Y-10.19
X6.96Y-10.29
X6.96Y-10.39
X6.96Y-10.49
X6.96Y-10.59
X6.9631Y-7.99
X7.03Y-6.59
X7.05Y-9.78
X7.11Y-7.04
X7.11Y-7.14
X7.11Y-7.24
X7.11Y-7.34
X7.11Y-7.44
X7.11Y-7.54
X7.11Y-7.64
X7.11Y-7.74
X7.13Y-6.59
X7.16Y-7.99
X7.1718Y-6.8609
X7.23Y-6.59
X7.251Y-6.376
X7.3Y-8.55
X7.3Y-8.65
X7.3Y-8.75
X7.3Y-8.85
X7.3Y-8.95
X7.3Y-9.05
X7.3Y-9.15
X7.3Y-9.25
X7.3Y-9.35
X7.33Y-6.59
X7.3687Y-6.8609
X7.37Y-7.05
X7.37Y-7.15
X7.37Y-7.25
X7.37Y-7.35
X7.37Y-7.45
X7.37Y-7.55
X7.37Y-7.65
X7.4Y-8.45
X7.4Y-8.55
X7.4Y-8.65
X7.4Y-8.75
X7.4Y-8.85
X7.4Y-8.95
X7.4Y-9.05
X7.4Y-9.15
X7.4Y-9.25
X7.4Y-9.35
X7.4Y-9.45
X7.43Y-6.59
X7.4479Y-6.376
X7.5Y-8.45
X7.5Y-8.55
X7.5Y-9.35
X7.5Y-9.45
X7.5031Y-5.18
X7.53Y-6.59
X7.5318Y-7.9909
X7.6Y-8.45
X7.6Y-8.55
X7.6Y-9.35
X7.6Y-9.45
X7.66Y-9.82
X7.66Y-10.12
X7.67Y-7.05
X7.67Y-7.15
X7.67Y-7.25
X7.67Y-7.35
X7.67Y-7.45
X7.67Y-7.55
X7.67Y-7.65
X7.68Y-5.31
X7.68Y-5.41
X7.68Y-5.51
X7.68Y-5.61
X7.68Y-5.71
X7.68Y-5.81
X7.68Y-5.91
X7.68Y-6.01
X7.6963Y-6.86
X7.7Y-5.18
X7.7Y-6.29
X7.7Y-6.59
X7.7Y-8.45
X7.7Y-8.55
X7.7Y-9.35
X7.7Y-9.45
X7.7287Y-7.9909
X7.76Y-9.82
X7.76Y-10.12
X7.8Y-6.29
X7.8Y-6.59
X7.8Y-8.45
X7.8Y-8.55
X7.8Y-9.35
X7.8Y-9.45
X7.86Y-9.82
X7.86Y-10.12
X7.8931Y-6.86
X7.9Y-6.29
X7.9Y-6.59
X7.9Y-8.45
X7.9Y-8.55
X7.9Y-9.35
X7.9Y-9.45
X7.9016Y-4.1
X7.9016Y-4.2
X7.9016Y-4.3
X7.91Y-3.53
X7.91Y-3.63
X7.91Y-3.73
X7.936Y-7.05
X7.936Y-7.15
X7.936Y-7.25
X7.936Y-7.35
X7.936Y-7.45
X7.936Y-7.55
X7.936Y-7.65
X7.96Y-9.82
X7.96Y-10.12
X7.98Y-5.31
X7.98Y-5.41
X7.98Y-5.51
X7.98Y-5.61
X7.98Y-5.71
X7.98Y-5.81
X7.98Y-5.91
X7.98Y-6.01
X8.0Y-6.29
X8.0Y-6.59
X8.0Y-8.45
X8.0Y-8.55
X8.0Y-9.35
X8.0Y-9.45
X8.06Y-9.82
X8.06Y-10.12
X8.1Y-6.29
X8.1Y-6.59
X8.1Y-8.45
X8.1Y-8.55
X8.1Y-9.35
X8.1Y-9.45
X8.1031Y-6.07
X8.16Y-9.82
X8.16Y-10.12
X8.1616Y-5.01
X8.1616Y-5.37
X8.1616Y-5.73
X8.1716Y-4.65
X8.2Y-6.29
X8.2Y-6.59
X8.2Y-8.45
X8.2Y-8.55
X8.2Y-8.65
X8.2Y-8.75
X8.2Y-8.85
X8.2Y-8.95
X8.2Y-9.05
X8.2Y-9.15
X8.2Y-9.25
X8.2Y-9.35
X8.2Y-9.45
X8.236Y-7.05
X8.236Y-7.15
X8.236Y-7.25
X8.236Y-7.35
X8.236Y-7.45
X8.236Y-7.55
X8.236Y-7.65
X8.26Y-5.01
X8.26Y-5.37
X8.26Y-5.73
X8.26Y-9.82
X8.26Y-10.12
X8.2616Y-3.36
X8.2616Y-3.75
X8.27Y-4.65
X8.2716Y-4.11
X8.2918Y-6.8609
X8.3Y-6.07
X8.3Y-6.29
X8.3Y-6.59
X8.3Y-8.55
X8.3Y-8.65
X8.3Y-8.75
X8.3Y-8.85
X8.3Y-8.95
X8.3Y-9.05
X8.3Y-9.15
X8.3Y-9.25
X8.3Y-9.35
X8.36Y-3.36
X8.36Y-3.75
X8.37Y-4.11
X8.39Y-8.17
X8.4Y-5.56
X8.4Y-5.73
X8.4Y-5.9
X8.4Y-6.08
X8.4Y-6.29
X8.4Y-6.59
X8.4Y-7.92
X8.41Y-5.01
X8.41Y-5.2
X8.41Y-5.38
X8.4887Y-6.8609
X8.502Y-7.05
X8.502Y-7.15
X8.502Y-7.25
X8.502Y-7.35
X8.502Y-7.45
X8.502Y-7.55
X8.502Y-7.65
X8.5231Y-9.85
X8.57Y-3.66
X8.57Y-3.76
X8.57Y-3.86
X8.57Y-3.96
X8.57Y-4.06
X8.57Y-4.16
X8.57Y-4.26
X8.57Y-4.36
X8.5716Y-3.35
X8.6409Y-9.2187
X8.6409Y-9.5187
X8.67Y-3.35
X8.69Y-8.17
X8.7Y-5.56
X8.7Y-5.73
X8.7Y-5.9
X8.7Y-6.08
X8.7Y-7.92
X8.71Y-5.01
X8.71Y-5.2
X8.71Y-5.38
X8.72Y-9.85
X8.802Y-7.05
X8.802Y-7.15
X8.802Y-7.25
X8.802Y-7.35
X8.802Y-7.45
X8.802Y-7.55
X8.802Y-7.65
X8.8119Y-10.395
X8.8316Y-3.34
X8.85Y-8.07
X8.85Y-8.17
X8.85Y-8.27
X8.85Y-8.37
X8.85Y-8.47
X8.85Y-8.57
X8.85Y-8.67
X8.85Y-8.77
X8.85Y-8.87
X8.85Y-8.97
X8.85Y-9.07
X8.85Y-9.17
X8.85Y-9.27
X8.85Y-9.37
X8.85Y-9.47
X8.85Y-9.57
X8.851Y-6.86
X8.8531Y-6.38
X8.87Y-3.66
X8.87Y-3.76
X8.87Y-3.86
X8.87Y-3.96
X8.87Y-4.06
X8.87Y-4.16
X8.87Y-4.26
X8.87Y-4.36
X8.87Y-4.66
X8.87Y-4.76
X8.87Y-4.86
X8.87Y-4.96
X8.87Y-5.06
X8.87Y-5.16
X8.87Y-5.26
X8.88Y-5.51
X8.88Y-5.61
X8.88Y-5.71
X8.88Y-5.81
X8.88Y-5.91
X8.88Y-6.01
X8.88Y-6.11
X8.9009Y-9.8013
X8.9009Y-10.1013
X8.9119Y-10.395
X8.93Y-3.34
X9.0009Y-9.8013
X9.0009Y-10.1013
X9.0119Y-10.395
X9.0479Y-6.86
X9.05Y-6.38
X9.068Y-7.05
X9.068Y-7.15
X9.068Y-7.25
X9.068Y-7.35
X9.068Y-7.45
X9.068Y-7.55
X9.068Y-7.65
X9.1009Y-9.8013
X9.1009Y-10.1013
X9.1067Y-4.0897
X9.1116Y-3.34
X9.1116Y-3.73
X9.1119Y-10.395
X9.17Y-4.66
X9.17Y-4.76
X9.17Y-4.86
X9.17Y-4.96
X9.17Y-5.06
X9.17Y-5.16
X9.17Y-5.26
X9.1731Y-4.53
X9.18Y-5.51
X9.18Y-5.61
X9.18Y-5.71
X9.18Y-5.81
X9.18Y-5.91
X9.18Y-6.01
X9.18Y-6.11
X9.2009Y-9.8013
X9.2009Y-10.1013
X9.2052Y-4.0897
X9.21Y-3.34
X9.21Y-3.73
X9.2113Y-10.8809
X9.2119Y-10.395
X9.3009Y-9.8013
X9.3009Y-10.1013
X9.3119Y-10.395
X9.368Y-7.05
X9.368Y-7.15
X9.368Y-7.25
X9.368Y-7.35
X9.368Y-7.45
X9.368Y-7.55
X9.368Y-7.65
X9.37Y-4.53
X9.4009Y-9.8013
X9.4009Y-10.1013
X9.4116Y-3.34
X9.4119Y-10.395
X9.42Y-3.66
X9.42Y-3.76
X9.42Y-3.86
X9.42Y-3.96
X9.42Y-4.06
X9.42Y-4.16
X9.42Y-4.26
X9.42Y-4.36
X9.4284Y-6.86
X9.44Y-4.66
X9.44Y-4.76
X9.44Y-4.86
X9.44Y-4.96
X9.44Y-5.06
X9.44Y-5.16
X9.44Y-5.26
X9.44Y-5.36
X9.44Y-5.46
X9.44Y-5.56
X9.44Y-5.66
X9.44Y-5.76
X9.44Y-5.86
X9.44Y-5.96
X9.44Y-6.06
X9.44Y-6.16
X9.44Y-6.26
X9.44Y-6.36
X9.44Y-6.46
X9.44Y-6.56
X9.45Y-8.07
X9.45Y-8.17
X9.45Y-8.27
X9.45Y-8.37
X9.45Y-8.47
X9.45Y-8.57
X9.45Y-8.67
X9.45Y-8.77
X9.45Y-8.87
X9.45Y-8.97
X9.45Y-9.07
X9.45Y-9.17
X9.45Y-9.27
X9.45Y-9.37
X9.45Y-9.47
X9.45Y-9.57
X9.5009Y-9.8013
X9.5009Y-10.1013
X9.51Y-3.34
X9.5113Y-10.8809
X9.5119Y-10.395
X9.6009Y-9.8013
X9.6009Y-10.1013
X9.6018Y-7.9709
X9.6119Y-10.395
X9.6253Y-6.86
X9.634Y-7.05
X9.634Y-7.15
X9.634Y-7.25
X9.634Y-7.35
X9.634Y-7.45
X9.634Y-7.55
X9.634Y-7.65
X9.7067Y-3.3397
X9.72Y-3.66
X9.72Y-3.76
X9.72Y-3.86
X9.72Y-3.96
X9.72Y-4.06
X9.72Y-4.16
X9.72Y-4.26
X9.72Y-4.36
X9.74Y-9.4
X9.74Y-9.5969
X9.75Y-9.9131
X9.75Y-10.11
X9.7987Y-7.9709
X9.8052Y-3.3397
X9.8631Y-4.53
X9.93Y-7.98
X9.93Y-8.08
X9.93Y-8.18
X9.93Y-8.28
X9.93Y-8.38
X9.93Y-8.48
X9.93Y-8.58
X9.93Y-8.68
X9.93Y-8.78
X9.93Y-8.88
X9.93Y-9.2
X9.93Y-9.3
X9.93Y-9.4
X9.93Y-9.5
X9.93Y-9.6
X9.93Y-9.7
X9.93Y-9.8
X9.93Y-9.9
X9.934Y-7.05
X9.934Y-7.15
X9.934Y-7.25
X9.934Y-7.35
X9.934Y-7.45
X9.934Y-7.55
X9.934Y-7.65
X9.98Y-2.97
X9.9931Y-3.43
X10.0058Y-6.86
X10.01Y-3.65
X10.01Y-3.75
X10.01Y-3.85
X10.01Y-3.95
X10.01Y-4.05
X10.01Y-4.15
X10.01Y-4.25
X10.04Y-4.66
X10.04Y-4.76
X10.04Y-4.86
X10.04Y-4.96
X10.04Y-5.06
X10.04Y-5.16
X10.04Y-5.26
X10.04Y-5.36
X10.04Y-5.46
X10.04Y-5.56
X10.04Y-5.66
X10.04Y-5.76
X10.04Y-5.86
X10.04Y-5.96
X10.04Y-6.06
X10.04Y-6.16
X10.04Y-6.26
X10.04Y-6.36
X10.04Y-6.46
X10.04Y-6.56
X10.06Y-4.53
X10.19Y-3.43
X10.2Y-7.05
X10.2Y-7.15
X10.2Y-7.25
X10.2Y-7.35
X10.2Y-7.45
X10.2Y-7.55
X10.2Y-7.65
X10.2026Y-6.86
X10.23Y-7.98
X10.23Y-8.08
X10.23Y-8.18
X10.23Y-8.28
X10.23Y-8.38
X10.23Y-8.48
X10.23Y-8.58
X10.23Y-8.68
X10.23Y-8.78
X10.23Y-8.88
X10.23Y-9.2
X10.23Y-9.3
X10.23Y-9.4
X10.23Y-9.5
X10.23Y-9.6
X10.23Y-9.7
X10.23Y-9.8
X10.23Y-9.9
X10.28Y-2.97
X10.31Y-3.65
X10.31Y-3.75
X10.31Y-3.85
X10.31Y-3.95
X10.31Y-4.05
X10.31Y-4.15
X10.31Y-4.25
X10.3376Y-4.7288
X10.3376Y-4.8288
X10.3376Y-4.9288
X10.3376Y-5.0288
X10.3376Y-5.1288
X10.3376Y-5.2288
X10.3376Y-5.3288
X10.3376Y-5.4288
X10.3376Y-5.5288
X10.4291Y-7.9618
X10.4291Y-8.1587
X10.47Y-5.93
X10.47Y-6.03
X10.47Y-6.13
X10.47Y-6.23
X10.47Y-6.33
X10.47Y-6.43
X10.47Y-6.53
X10.5Y-7.05
X10.5Y-7.15
X10.5Y-7.25
X10.5Y-7.35
X10.5Y-7.45
X10.5Y-7.55
X10.5Y-7.65
X10.51Y-3.64
X10.51Y-3.74
X10.51Y-3.84
X10.51Y-3.94
X10.51Y-4.04
X10.51Y-4.14
X10.51Y-4.24
X10.5618Y-4.5309
X10.5831Y-6.86
X10.59Y-5.8
X10.6098Y-9.1966
X10.6098Y-9.2966
X10.6098Y-9.3966
X10.6098Y-9.4966
X10.6098Y-9.5966
X10.6098Y-9.6966
X10.6098Y-9.7966
X10.61Y-7.98
X10.61Y-8.08
X10.61Y-8.18
X10.61Y-8.28
X10.61Y-8.38
X10.61Y-8.48
X10.61Y-8.58
X10.61Y-8.68
X10.61Y-10.09
X10.61Y-10.19
X10.61Y-10.29
X10.61Y-10.39
X10.61Y-10.49
X10.61Y-10.59
X10.61Y-10.69
X10.6313Y-3.4291
X10.6376Y-4.7288
X10.6376Y-4.8288
X10.6376Y-4.9288
X10.6376Y-5.0288
X10.6376Y-5.1288
X10.6376Y-5.2288
X10.6376Y-5.3288
X10.6376Y-5.4288
X10.6376Y-5.5288
X10.74Y-8.94
X10.7587Y-4.5309
X10.77Y-5.93
X10.77Y-6.03
X10.77Y-6.13
X10.77Y-6.23
X10.77Y-6.33
X10.77Y-6.43
X10.77Y-6.53
X10.78Y-6.86
X10.7869Y-5.8
X10.79Y-7.05
X10.79Y-7.15
X10.79Y-7.25
X10.79Y-7.35
X10.79Y-7.45
X10.79Y-7.55
X10.79Y-7.65
X10.81Y-3.64
X10.81Y-3.74
X10.81Y-3.84
X10.81Y-3.94
X10.81Y-4.04
X10.81Y-4.14
X10.81Y-4.24
X10.8137Y-5.2248
X10.8199Y-5.0798
X10.8282Y-3.4291
X10.9098Y-9.1966
X10.9098Y-9.2966
X10.9098Y-9.3966
X10.9098Y-9.4966
X10.9098Y-9.5966
X10.9098Y-9.6966
X10.9098Y-9.7966
X10.91Y-7.98
X10.91Y-8.08
X10.91Y-8.18
X10.91Y-8.28
X10.91Y-8.38
X10.91Y-8.48
X10.91Y-8.58
X10.91Y-8.68
X10.91Y-10.09
X10.91Y-10.19
X10.91Y-10.29
X10.91Y-10.39
X10.91Y-10.49
X10.91Y-10.59
X10.91Y-10.69
X10.9369Y-8.94
X11.0106Y-5.2248
X11.0131Y-6.86
X11.0168Y-5.0798
X11.03Y-2.55
X11.03Y-2.65
X11.03Y-2.75
X11.03Y-2.85
X11.03Y-2.95
X11.03Y-3.05
X11.03Y-3.15
X11.03Y-3.25
X11.03Y-3.35
X11.03Y-3.45
X11.03Y-3.55
X11.03Y-3.65
X11.03Y-3.75
X11.03Y-3.85
X11.03Y-3.95
X11.03Y-4.05
X11.03Y-4.15
X11.03Y-4.25
X11.03Y-4.35
X11.03Y-4.45
X11.09Y-7.05
X11.09Y-7.15
X11.09Y-7.25
X11.09Y-7.35
X11.09Y-7.45
X11.09Y-7.55
X11.09Y-7.65
X11.1191Y-7.9618
X11.1191Y-8.1587
X11.1991Y-10.3418
X11.1991Y-10.5387
X11.2009Y-9.9013
X11.2009Y-10.0982
X11.21Y-6.86
X11.33Y-6.84
X11.33Y-7.0369
X11.5Y-5.78
X11.5Y-5.88
X11.5Y-5.98
X11.5Y-6.08
X11.5Y-6.18
X11.5Y-6.28
X11.5Y-6.38
X11.5Y-6.48
X11.5Y-6.58
X11.5Y-6.68
X11.5Y-6.78
X11.5Y-6.88
X11.5Y-6.98
X11.5Y-7.08
X11.5Y-7.18
X11.5Y-7.28
X11.5Y-7.38
X11.5Y-7.48
X11.5Y-7.58
X11.5Y-7.68
X11.501Y-9.293
X11.501Y-9.393
X11.501Y-9.493
X11.501Y-9.593
X11.501Y-9.693
X11.501Y-9.793
X11.501Y-9.893
X11.501Y-9.993
X11.501Y-10.093
X11.501Y-10.193
X11.501Y-10.293
X11.501Y-10.393
X11.501Y-10.493
X11.501Y-10.593
X11.501Y-10.693
X11.501Y-10.793
X11.501Y-10.893
X11.501Y-10.993
X11.501Y-11.093
X11.501Y-11.193
X11.63Y-2.55
X11.63Y-2.65
X11.63Y-2.75
X11.63Y-2.85
X11.63Y-2.95
X11.63Y-3.05
X11.63Y-3.15
X11.63Y-3.25
X11.63Y-3.35
X11.63Y-3.45
X11.63Y-3.55
X11.63Y-3.65
X11.63Y-3.75
X11.63Y-3.85
X11.63Y-3.95
X11.63Y-4.05
X11.63Y-4.15
X11.63Y-4.25
X11.63Y-4.35
X11.63Y-4.45
X11.8091Y-2.5318
X11.8091Y-2.7287
X12.08Y-2.32
X12.08Y-2.42
X12.08Y-2.52
X12.08Y-2.62
X12.08Y-2.72
X12.08Y-2.82
X12.08Y-2.92
X12.08Y-3.02
X12.08Y-3.12
X12.08Y-3.22
X12.1Y-5.78
X12.1Y-5.88
X12.1Y-5.98
X12.1Y-6.08
X12.1Y-6.18
X12.1Y-6.28
X12.1Y-6.38
X12.1Y-6.48
X12.1Y-6.58
X12.1Y-6.68
X12.1Y-6.78
X12.1Y-6.88
X12.1Y-6.98
X12.1Y-7.08
X12.1Y-7.18
X12.1Y-7.28
X12.1Y-7.38
X12.1Y-7.48
X12.1Y-7.58
X12.1Y-7.68
X12.101Y-9.293
X12.101Y-9.393
X12.101Y-9.493
X12.101Y-9.593
X12.101Y-9.693
X12.101Y-9.793
X12.101Y-9.893
X12.101Y-9.993
X12.101Y-10.093
X12.101Y-10.193
X12.101Y-10.293
X12.101Y-10.393
X12.101Y-10.493
X12.101Y-10.593
X12.101Y-10.693
X12.101Y-10.793
X12.101Y-10.893
X12.101Y-10.993
X12.101Y-11.093
X12.101Y-11.193
T7
X9.7524Y-2.54
X9.7524Y-2.6364
X9.8351Y-2.54
X9.9373Y-2.54
X10.02Y-2.54
X10.02Y-2.6384
X10.4785Y-2.5381
X10.4785Y-2.6345
X10.5612Y-2.5381
X10.6634Y-2.5381
X10.7461Y-2.5381
X10.7461Y-2.6365
T8
X4.17Y-9.65
X4.1713Y-10.08
X4.27Y-9.65
X4.2713Y-10.08
X4.4666Y-10.08
X4.47Y-9.65
X4.5666Y-10.08
X4.57Y-9.65
X4.7619Y-10.08
X4.77Y-9.65
X4.8619Y-10.08
X4.87Y-9.65
X5.22Y-10.08
X5.32Y-10.08
T9
X2.93Y-8.97
X2.93Y-9.07
X2.93Y-9.17
X2.93Y-9.27
X2.93Y-9.37
X2.93Y-9.47
X2.93Y-9.57
X2.93Y-9.67
X2.93Y-9.77
X2.93Y-9.87
X2.93Y-9.97
X2.93Y-10.9228
X2.93Y-11.1
X2.9333Y-10.4033
X2.9333Y-10.5805
X3.03Y-8.97
X3.03Y-9.07
X3.03Y-9.17
X3.03Y-9.27
X3.03Y-9.37
X3.03Y-9.47
X3.03Y-9.57
X3.03Y-9.67
X3.03Y-9.77
X3.03Y-9.87
X3.03Y-9.97
X3.1859Y-10.9228
X3.1859Y-11.1
X3.1892Y-10.4033
X3.1892Y-10.5805
X3.2525Y-5.6052
X3.2525Y-5.7052
X3.2525Y-5.8052
X3.2525Y-5.9052
X3.2525Y-6.0052
X3.2525Y-6.1052
X3.3525Y-5.6052
X3.3525Y-5.7052
X3.3525Y-5.8052
X3.3525Y-5.9052
X3.3525Y-6.0052
X3.3525Y-6.1052
X4.0673Y-5.6052
X4.0673Y-5.7052
X4.0673Y-5.8052
X4.0673Y-5.9052
X4.0673Y-6.0052
X4.0673Y-6.1052
X4.1673Y-5.6052
X4.1673Y-5.7052
X4.1673Y-5.8052
X4.1673Y-5.9052
X4.1673Y-6.0052
X4.1673Y-6.1052
X4.8675Y-5.6002
X4.8675Y-5.7002
X4.8675Y-5.8002
X4.8675Y-5.9002
X4.8675Y-6.0002
X4.8675Y-6.1002
X4.9675Y-5.6002
X4.9675Y-5.7002
X4.9675Y-5.8002
X4.9675Y-5.9002
X4.9675Y-6.0002
X4.9675Y-6.1002
X5.2Y-7.15
X5.2Y-7.25
X5.2Y-7.35
X5.2377Y-9.23
X5.2377Y-9.33
X5.2377Y-9.43
X5.3Y-7.15
X5.3Y-7.25
X5.3Y-7.35
X5.4208Y-9.23
X5.4208Y-9.33
X5.4208Y-9.43
X5.5507Y-11.458
X5.5507Y-11.558
X5.6039Y-9.23
X5.6039Y-9.33
X5.6039Y-9.43
X5.6675Y-5.6052
X5.6675Y-5.7052
X5.6675Y-5.8052
X5.6675Y-5.9052
X5.6675Y-6.0052
X5.6675Y-6.1052
X5.7675Y-5.6052
X5.7675Y-5.7052
X5.7675Y-5.8052
X5.7675Y-5.9052
X5.7675Y-6.0052
X5.7675Y-6.1052
X5.7869Y-9.23
X5.7869Y-9.33
X5.7869Y-9.43
X5.97Y-9.23
X5.97Y-9.33
X5.97Y-9.43
X6.4567Y-5.6042
X6.4567Y-5.7042
X6.4567Y-5.8042
X6.4567Y-5.9042
X6.4567Y-6.0042
X6.4567Y-6.1042
X6.53Y-7.43
X6.53Y-7.53
X6.53Y-7.63
X6.53Y-7.73
X6.5567Y-5.6042
X6.5567Y-5.7042
X6.5567Y-5.8042
X6.5567Y-5.9042
X6.5567Y-6.0042
X6.5567Y-6.1042
X6.63Y-7.43
X6.63Y-7.53
X6.63Y-7.63
X6.63Y-7.73
X7.25Y-10.84
X7.25Y-10.94
X7.27Y-10.4
X7.27Y-10.5
X7.274Y-5.615
X7.274Y-5.715
X7.274Y-5.815
X7.274Y-5.915
X7.274Y-6.015
X7.274Y-6.115
X7.29Y-9.95
X7.29Y-10.05
X7.35Y-10.84
X7.35Y-10.94
X7.37Y-10.4
X7.37Y-10.5
X7.374Y-5.615
X7.374Y-5.715
X7.374Y-5.815
X7.374Y-5.915
X7.374Y-6.015
X7.374Y-6.115
X7.39Y-9.95
X7.39Y-10.05
X7.45Y-3.12
X7.45Y-3.22
X7.45Y-3.32
X7.45Y-3.42
X7.45Y-3.52
X7.45Y-3.86
X7.45Y-3.96
X7.45Y-4.06
X7.45Y-4.16
X7.45Y-4.26
X7.45Y-10.84
X7.45Y-10.94
X7.55Y-3.12
X7.55Y-3.22
X7.55Y-3.32
X7.55Y-3.42
X7.55Y-3.52
X7.55Y-3.86
X7.55Y-3.96
X7.55Y-4.06
X7.55Y-4.16
X7.55Y-4.26
X7.55Y-10.84
X7.55Y-10.94
X7.65Y-10.84
X7.65Y-10.94
X7.66Y-10.39
X7.66Y-10.49
X7.75Y-10.84
X7.75Y-10.94
X7.76Y-10.39
X7.76Y-10.49
X7.85Y-4.63
X7.85Y-4.73
X7.85Y-4.83
X7.85Y-4.93
X7.85Y-5.03
X7.85Y-10.84
X7.85Y-10.94
X7.95Y-4.63
X7.95Y-4.73
X7.95Y-4.83
X7.95Y-4.93
X7.95Y-5.03
X7.95Y-10.84
X7.95Y-10.94
X8.0197Y-7.9891
X8.05Y-10.84
X8.05Y-10.94
X8.1197Y-7.9891
X8.15Y-10.84
X8.15Y-10.94
X8.21Y-2.33
X8.21Y-2.56
X8.2197Y-7.9891
X8.25Y-10.84
X8.25Y-10.94
X8.31Y-2.33
X8.31Y-2.56
X8.35Y-10.84
X8.35Y-10.94
X8.41Y-2.33
X8.41Y-2.56
X8.45Y-10.84
X8.45Y-10.94
X8.51Y-2.33
X8.51Y-2.56
X8.53Y-2.87
X8.53Y-2.97
X8.55Y-10.84
X8.55Y-10.94
X8.58Y-4.66
X8.58Y-4.76
X8.61Y-2.33
X8.61Y-2.56
X8.65Y-10.84
X8.65Y-10.94
X8.68Y-4.66
X8.68Y-4.76
X8.71Y-2.33
X8.71Y-2.56
X8.72Y-2.87
X8.72Y-2.97
X8.75Y-10.84
X8.75Y-10.94
X8.85Y-10.84
X8.85Y-10.94
X8.92Y-2.33
X8.92Y-2.43
X8.92Y-2.53
X8.92Y-2.63
X8.92Y-2.73
X9.02Y-2.33
X9.02Y-2.43
X9.02Y-2.53
X9.02Y-2.63
X9.02Y-2.73
X9.19Y-10.59
X9.19Y-10.69
X9.23Y-11.08
X9.23Y-11.18
X9.28Y-2.33
X9.28Y-2.43
X9.28Y-2.53
X9.28Y-2.63
X9.28Y-2.73
X9.29Y-10.59
X9.29Y-10.69
X9.33Y-11.08
X9.33Y-11.18
X9.38Y-2.33
X9.38Y-2.43
X9.38Y-2.53
X9.38Y-2.63
X9.38Y-2.73
X9.3887Y-2.9709
X9.39Y-10.59
X9.39Y-10.69
X9.43Y-11.08
X9.43Y-11.18
X9.4887Y-2.9709
X9.49Y-10.59
X9.49Y-10.69
X9.53Y-11.08
X9.53Y-11.18
X9.59Y-10.59
X9.59Y-10.69
X9.63Y-11.08
X9.63Y-11.18
X9.69Y-10.59
X9.69Y-10.69
X9.73Y-2.98
X9.73Y-11.08
X9.73Y-11.18
X9.79Y-10.59
X9.79Y-10.69
X9.83Y-2.98
X9.83Y-11.08
X9.83Y-11.18
X9.89Y-10.59
X9.89Y-10.69
X9.93Y-11.08
X9.93Y-11.18
X9.99Y-10.59
X9.99Y-10.69
X10.03Y-11.08
X10.03Y-11.18
X10.09Y-10.59
X10.09Y-10.69
X10.13Y-11.08
X10.13Y-11.18
X10.19Y-10.59
X10.19Y-10.69
X10.2009Y-6.1013
X10.2009Y-6.2013
X10.23Y-11.08
X10.23Y-11.18
X10.29Y-10.59
X10.29Y-10.69
X10.33Y-11.08
X10.33Y-11.18
X10.38Y-10.13
X10.38Y-10.23
X10.38Y-10.33
X10.39Y-10.59
X10.39Y-10.69
X10.43Y-11.08
X10.43Y-11.18
X10.53Y-11.08
X10.53Y-11.18
X10.63Y-11.08
X10.63Y-11.18
X10.73Y-11.08
X10.73Y-11.18
X10.83Y-11.08
X10.83Y-11.18
X10.93Y-11.08
X10.93Y-11.18
X11.03Y-11.08
X11.03Y-11.18
X11.13Y-11.08
X11.13Y-11.18
X11.68Y-8.01
X11.68Y-8.11
X11.68Y-8.21
X11.68Y-8.31
X11.68Y-8.41
X11.68Y-8.51
X11.68Y-8.61
X11.68Y-8.71
X11.68Y-8.81
X11.68Y-8.91
X11.78Y-8.01
X11.78Y-8.11
X11.78Y-8.21
X11.78Y-8.31
X11.78Y-8.41
X11.78Y-8.51
X11.78Y-8.61
X11.78Y-8.71
X11.78Y-8.81
X11.78Y-8.91
T10
X2.8687Y-3.2152
X2.8687Y-3.3152
X2.8687Y-3.4152
X2.8687Y-3.5152
X2.8687Y-3.6152
X2.8687Y-3.7152
X2.8687Y-3.8152
X2.8687Y-3.9152
X2.8687Y-4.0152
X2.8687Y-4.1152
X2.8687Y-4.2152
X2.8687Y-4.3152
X2.8687Y-4.4152
X2.8687Y-4.5152
X2.8687Y-4.6152
X2.8687Y-4.7152
X2.8687Y-4.8152
X2.8687Y-4.9152
X2.8687Y-5.0152
X2.8687Y-5.1152
X2.8687Y-5.2152
X2.8687Y-5.3152
X2.8687Y-5.4152
X2.8687Y-5.5152
X2.8687Y-5.6152
X2.8687Y-5.7152
X2.8687Y-5.8152
X2.8687Y-5.9152
X2.8687Y-6.0152
X2.8687Y-6.1152
X2.8687Y-6.2152
X3.0687Y-3.2152
X3.0687Y-3.3152
X3.0687Y-3.4152
X3.0687Y-3.5152
X3.0687Y-3.6152
X3.0687Y-3.7152
X3.0687Y-3.8152
X3.0687Y-3.9152
X3.0687Y-4.0152
X3.0687Y-4.1152
X3.0687Y-4.2152
X3.0687Y-4.3152
X3.0687Y-4.4152
X3.0687Y-4.5152
X3.0687Y-4.6152
X3.0687Y-4.7152
X3.0687Y-4.8152
X3.0687Y-4.9152
X3.0687Y-5.0152
X3.0687Y-5.1152
X3.0687Y-5.2152
X3.0687Y-5.3152
X3.0687Y-5.4152
X3.0687Y-5.5152
X3.0687Y-5.6152
X3.0687Y-5.7152
X3.0687Y-5.8152
X3.0687Y-5.9152
X3.0687Y-6.0152
X3.0687Y-6.1152
X3.0687Y-6.2152
X3.6687Y-3.2152
X3.6687Y-3.3152
X3.6687Y-3.4152
X3.6687Y-3.5152
X3.6687Y-3.6152
X3.6687Y-3.7152
X3.6687Y-3.8152
X3.6687Y-3.9152
X3.6687Y-4.0152
X3.6687Y-4.1152
X3.6687Y-4.2152
X3.6687Y-4.3152
X3.6687Y-4.4152
X3.6687Y-4.5152
X3.6687Y-4.6152
X3.6687Y-4.7152
X3.6687Y-4.8152
X3.6687Y-4.9152
X3.6687Y-5.0152
X3.6687Y-5.1152
X3.6687Y-5.2152
X3.6687Y-5.3152
X3.6687Y-5.4152
X3.6687Y-5.5152
X3.6687Y-5.6152
X3.6687Y-5.7152
X3.6687Y-5.8152
X3.6687Y-5.9152
X3.6687Y-6.0152
X3.6687Y-6.1152
X3.6687Y-6.2152
X3.8687Y-3.2152
X3.8687Y-3.3152
X3.8687Y-3.4152
X3.8687Y-3.5152
X3.8687Y-3.6152
X3.8687Y-3.7152
X3.8687Y-3.8152
X3.8687Y-3.9152
X3.8687Y-4.0152
X3.8687Y-4.1152
X3.8687Y-4.2152
X3.8687Y-4.3152
X3.8687Y-4.4152
X3.8687Y-4.5152
X3.8687Y-4.6152
X3.8687Y-4.7152
X3.8687Y-4.8152
X3.8687Y-4.9152
X3.8687Y-5.0152
X3.8687Y-5.1152
X3.8687Y-5.2152
X3.8687Y-5.3152
X3.8687Y-5.4152
X3.8687Y-5.5152
X3.8687Y-5.6152
X3.8687Y-5.7152
X3.8687Y-5.8152
X3.8687Y-5.9152
X3.8687Y-6.0152
X3.8687Y-6.1152
X3.8687Y-6.2152
X4.4687Y-3.2152
X4.4687Y-3.3152
X4.4687Y-3.4152
X4.4687Y-3.5152
X4.4687Y-3.6152
X4.4687Y-3.7152
X4.4687Y-3.8152
X4.4687Y-3.9152
X4.4687Y-4.0152
X4.4687Y-4.1152
X4.4687Y-4.2152
X4.4687Y-4.3152
X4.4687Y-4.4152
X4.4687Y-4.5152
X4.4687Y-4.6152
X4.4687Y-4.7152
X4.4687Y-4.8152
X4.4687Y-4.9152
X4.4687Y-5.0152
X4.4687Y-5.1152
X4.4687Y-5.2152
X4.4687Y-5.3152
X4.4687Y-5.4152
X4.4687Y-5.5152
X4.4687Y-5.6152
X4.4687Y-5.7152
X4.4687Y-5.8152
X4.4687Y-5.9152
X4.4687Y-6.0152
X4.4687Y-6.1152
X4.4687Y-6.2152
X4.6687Y-3.2152
X4.6687Y-3.3152
X4.6687Y-3.4152
X4.6687Y-3.5152
X4.6687Y-3.6152
X4.6687Y-3.7152
X4.6687Y-3.8152
X4.6687Y-3.9152
X4.6687Y-4.0152
X4.6687Y-4.1152
X4.6687Y-4.2152
X4.6687Y-4.3152
X4.6687Y-4.4152
X4.6687Y-4.5152
X4.6687Y-4.6152
X4.6687Y-4.7152
X4.6687Y-4.8152
X4.6687Y-4.9152
X4.6687Y-5.0152
X4.6687Y-5.1152
X4.6687Y-5.2152
X4.6687Y-5.3152
X4.6687Y-5.4152
X4.6687Y-5.5152
X4.6687Y-5.6152
X4.6687Y-5.7152
X4.6687Y-5.8152
X4.6687Y-5.9152
X4.6687Y-6.0152
X4.6687Y-6.1152
X4.6687Y-6.2152
X5.2687Y-3.2152
X5.2687Y-3.3152
X5.2687Y-3.4152
X5.2687Y-3.5152
X5.2687Y-3.6152
X5.2687Y-3.7152
X5.2687Y-3.8152
X5.2687Y-3.9152
X5.2687Y-4.0152
X5.2687Y-4.1152
X5.2687Y-4.2152
X5.2687Y-4.3152
X5.2687Y-4.4152
X5.2687Y-4.5152
X5.2687Y-4.6152
X5.2687Y-4.7152
X5.2687Y-4.8152
X5.2687Y-4.9152
X5.2687Y-5.0152
X5.2687Y-5.1152
X5.2687Y-5.2152
X5.2687Y-5.3152
X5.2687Y-5.4152
X5.2687Y-5.5152
X5.2687Y-5.6152
X5.2687Y-5.7152
X5.2687Y-5.8152
X5.2687Y-5.9152
X5.2687Y-6.0152
X5.2687Y-6.1152
X5.2687Y-6.2152
X5.4687Y-3.2152
X5.4687Y-3.3152
X5.4687Y-3.4152
X5.4687Y-3.5152
X5.4687Y-3.6152
X5.4687Y-3.7152
X5.4687Y-3.8152
X5.4687Y-3.9152
X5.4687Y-4.0152
X5.4687Y-4.1152
X5.4687Y-4.2152
X5.4687Y-4.3152
X5.4687Y-4.4152
X5.4687Y-4.5152
X5.4687Y-4.6152
X5.4687Y-4.7152
X5.4687Y-4.8152
X5.4687Y-4.9152
X5.4687Y-5.0152
X5.4687Y-5.1152
X5.4687Y-5.2152
X5.4687Y-5.3152
X5.4687Y-5.4152
X5.4687Y-5.5152
X5.4687Y-5.6152
X5.4687Y-5.7152
X5.4687Y-5.8152
X5.4687Y-5.9152
X5.4687Y-6.0152
X5.4687Y-6.1152
X5.4687Y-6.2152
X6.0687Y-3.2152
X6.0687Y-3.3152
X6.0687Y-3.4152
X6.0687Y-3.5152
X6.0687Y-3.6152
X6.0687Y-3.7152
X6.0687Y-3.8152
X6.0687Y-3.9152
X6.0687Y-4.0152
X6.0687Y-4.1152
X6.0687Y-4.2152
X6.0687Y-4.3152
X6.0687Y-4.4152
X6.0687Y-4.5152
X6.0687Y-4.6152
X6.0687Y-4.7152
X6.0687Y-4.8152
X6.0687Y-4.9152
X6.0687Y-5.0152
X6.0687Y-5.1152
X6.0687Y-5.2152
X6.0687Y-5.3152
X6.0687Y-5.4152
X6.0687Y-5.5152
X6.0687Y-5.6152
X6.0687Y-5.7152
X6.0687Y-5.8152
X6.0687Y-5.9152
X6.0687Y-6.0152
X6.0687Y-6.1152
X6.0687Y-6.2152
X6.2687Y-3.2152
X6.2687Y-3.3152
X6.2687Y-3.4152
X6.2687Y-3.5152
X6.2687Y-3.6152
X6.2687Y-3.7152
X6.2687Y-3.8152
X6.2687Y-3.9152
X6.2687Y-4.0152
X6.2687Y-4.1152
X6.2687Y-4.2152
X6.2687Y-4.3152
X6.2687Y-4.4152
X6.2687Y-4.5152
X6.2687Y-4.6152
X6.2687Y-4.7152
X6.2687Y-4.8152
X6.2687Y-4.9152
X6.2687Y-5.0152
X6.2687Y-5.1152
X6.2687Y-5.2152
X6.2687Y-5.3152
X6.2687Y-5.4152
X6.2687Y-5.5152
X6.2687Y-5.6152
X6.2687Y-5.7152
X6.2687Y-5.8152
X6.2687Y-5.9152
X6.2687Y-6.0152
X6.2687Y-6.1152
X6.2687Y-6.2152
X6.8687Y-3.2152
X6.8687Y-3.3152
X6.8687Y-3.4152
X6.8687Y-3.5152
X6.8687Y-3.6152
X6.8687Y-3.7152
X6.8687Y-3.8152
X6.8687Y-3.9152
X6.8687Y-4.0152
X6.8687Y-4.1152
X6.8687Y-4.2152
X6.8687Y-4.3152
X6.8687Y-4.4152
X6.8687Y-4.5152
X6.8687Y-4.6152
X6.8687Y-4.7152
X6.8687Y-4.8152
X6.8687Y-4.9152
X6.8687Y-5.0152
X6.8687Y-5.1152
X6.8687Y-5.2152
X6.8687Y-5.3152
X6.8687Y-5.4152
X6.8687Y-5.5152
X6.8687Y-5.6152
X6.8687Y-5.7152
X6.8687Y-5.8152
X6.8687Y-5.9152
X6.8687Y-6.0152
X6.8687Y-6.1152
X6.8687Y-6.2152
X7.0687Y-3.2152
X7.0687Y-3.3152
X7.0687Y-3.4152
X7.0687Y-3.5152
X7.0687Y-3.6152
X7.0687Y-3.7152
X7.0687Y-3.8152
X7.0687Y-3.9152
X7.0687Y-4.0152
X7.0687Y-4.1152
X7.0687Y-4.2152
X7.0687Y-4.3152
X7.0687Y-4.4152
X7.0687Y-4.5152
X7.0687Y-4.6152
X7.0687Y-4.7152
X7.0687Y-4.8152
X7.0687Y-4.9152
X7.0687Y-5.0152
X7.0687Y-5.1152
X7.0687Y-5.2152
X7.0687Y-5.3152
X7.0687Y-5.4152
X7.0687Y-5.5152
X7.0687Y-5.6152
X7.0687Y-5.7152
X7.0687Y-5.8152
X7.0687Y-5.9152
X7.0687Y-6.0152
X7.0687Y-6.1152
X7.0687Y-6.2152
T11
X3.5117Y-11.3171
X3.5117Y-11.7171
X3.7557Y-11.3171
X3.7557Y-11.7171
X10.96Y-5.43
X10.96Y-5.83
X11.16Y-5.43
X11.16Y-5.83
X12.093Y-8.0169
X12.093Y-8.4169
T12
X11.32Y-5.03
X12.1389Y-5.03
T13
X6.5126Y-11.4302
X6.5126Y-11.6468
X6.678Y-11.4302
X6.678Y-11.6468
X6.8433Y-11.4302
X6.8433Y-11.6468
X7.0087Y-11.4302
X7.0087Y-11.6468
X7.174Y-11.4302
X7.174Y-11.6468
X7.3394Y-11.4302
X7.3394Y-11.6468
X7.5047Y-11.4302
X7.5047Y-11.6468
X7.6701Y-11.4302
X7.6701Y-11.6468
X7.8354Y-11.4302
X7.8354Y-11.6468
X8.0008Y-11.4302
X8.0008Y-11.6468
T14
X9.6205Y-2.4219
X9.8862Y-2.3905
X10.1539Y-2.4219
X10.3466Y-2.42
X10.6123Y-2.3886
X10.88Y-2.42
T15
X3.2677Y-2.6131
X3.2677Y-8.7131
X3.2677Y-11.5631
X4.0677Y-2.6131
X4.0677Y-8.7131
X4.0677Y-11.5631
X5.8677Y-2.6131
X5.8677Y-8.7131
X5.8677Y-11.5631
X12.0677Y-3.5131
X12.0677Y-8.7131
X12.0677Y-11.5631
T4
G00X7.7274Y-2.4472
M15
G01X7.7274Y-2.4235
M16
G05
G00X7.7668Y-2.7818
M15
G01X7.7668Y-2.7582
M16
G05
G00X7.9439Y-2.4472
M15
G01X7.9439Y-2.4235
M16
G05
G00X7.9439Y-2.5653
M15
G01X7.9439Y-2.5417
M16
G05
G00X7.9439Y-2.7228
M15
G01X7.9439Y-2.6991
M16
G05
M30
