M48
; DRILL file {KiCad 9.0.2} date 2025-11-03T15:21:25-0600
; FORMAT={-:-/ absolute / inch / decimal}
; #@! TF.CreationDate,2025-11-03T15:21:25-06:00
; #@! TF.GenerationSoftware,Kicad,Pcbnew,9.0.2
; #@! TF.FileFunction,Plated,1,2,PTH
FMAT,2
INCH
; #@! TA.AperFunction,Plated,PTH,ComponentDrill
T1C0.0118
; #@! TA.AperFunction,Plated,PTH,ViaDrill
T2C0.0157
; #@! TA.AperFunction,Plated,PTH,ComponentDrill
T3C0.0197
; #@! TA.AperFunction,Plated,PTH,ComponentDrill
T4C0.0236
; #@! TA.AperFunction,Plated,PTH,ComponentDrill
T5C0.0295
; #@! TA.AperFunction,Plated,PTH,ComponentDrill
T6C0.0315
; #@! TA.AperFunction,Plated,PTH,ComponentDrill
T7C0.0354
; #@! TA.AperFunction,Plated,PTH,ComponentDrill
T8C0.0354
; #@! TA.AperFunction,Plated,PTH,ComponentDrill
T9C0.0394
; #@! TA.AperFunction,Plated,PTH,ComponentDrill
T10C0.0400
; #@! TA.AperFunction,Plated,PTH,ComponentDrill
T11C0.0433
; #@! TA.AperFunction,Plated,PTH,ComponentDrill
T12C0.0669
; #@! TA.AperFunction,Plated,PTH,ComponentDrill
T13C0.0905
; #@! TA.AperFunction,Plated,PTH,ComponentDrill
T14C0.1260
%
G90
G05
T1
X10.8964Y-3.15
X10.9436Y-3.15
T2
X3.0144Y-6.0335
X3.1324Y-7.6656
X3.141Y-5.2239
X3.1545Y-4.0665
X3.1987Y-5.3433
X3.2436Y-5.4562
X3.2585Y-3.4152
X3.2977Y-6.5131
X3.356Y-5.53
X3.3766Y-5.3136
X3.3997Y-8.6023
X3.5055Y-5.7085
X3.57Y-7.7507
X3.6103Y-8.5893
X3.6508Y-8.6427
X3.773Y-4.0152
X3.7764Y-5.9432
X3.7775Y-6.4838
X3.8114Y-6.3461
X3.8139Y-6.5131
X3.8269Y-3.5515
X3.8973Y-8.5933
X3.9333Y-9.2577
X3.9351Y-3.2069
X3.9387Y-7.3138
X3.97Y-8.2702
X4.0403Y-10.3604
X4.0666Y-3.117
X4.0699Y-9.1628
X4.0722Y-8.3756
X4.1037Y-7.0876
X4.1115Y-7.8911
X4.1549Y-8.4749
X4.1889Y-4.0158
X4.1995Y-8.1538
X4.2163Y-6.86
X4.2163Y-7.36
X4.2261Y-8.9779
X4.2268Y-8.2702
X4.2389Y-6.1677
X4.2456Y-6.9003
X4.2724Y-9.4063
X4.3064Y-9.5685
X4.3246Y-7.8108
X4.3302Y-9.6917
X4.3355Y-8.9898
X4.3716Y-9.6928
X4.3768Y-9.4625
X4.436Y-3.1046
X4.4443Y-7.68
X4.4847Y-6.8729
X4.4847Y-7.0767
X4.4878Y-9.019
X4.4966Y-8.92
X4.5002Y-7.4057
X4.5149Y-7.7862
X4.5297Y-8.9436
X4.6126Y-3.533
X4.6187Y-7.4576
X4.6209Y-6.9675
X4.6608Y-6.578
X4.6737Y-6.4838
X4.6812Y-8.89
X4.689Y-6.4256
X4.7303Y-9.1595
X4.753Y-11.202
X4.7576Y-3.1359
X4.77Y-6.8057
X4.8227Y-6.5369
X4.8578Y-8.9721
X4.8641Y-8.0548
X4.8828Y-6.4066
X4.8838Y-6.5205
X4.8929Y-8.5171
X4.8995Y-8.1295
X4.9066Y-6.4431
X4.9149Y-8.6858
X4.9172Y-8.1693
X4.9192Y-5.4652
X4.9529Y-8.2232
X4.9615Y-8.0175
X4.9738Y-3.2124
X4.9862Y-10.2398
X4.9885Y-8.1498
X4.9898Y-8.5825
X4.9898Y-7.0511
X5.0698Y-6.7906
X5.1328Y-9.4066
X5.1349Y-8.5337
X5.1673Y-8.6858
X5.1673Y-8.7356
X5.1827Y-9.6171
X5.1889Y-4.7291
X5.1943Y-6.4583
X5.2377Y-8.9905
X5.2516Y-6.8113
X5.2625Y-3.1505
X5.3083Y-9.5961
X5.3123Y-6.95
X5.3179Y-8.7543
X5.3179Y-9.0076
X5.3382Y-9.4412
X5.3785Y-7.4533
X5.4027Y-7.8777
X5.41Y-6.5988
X5.4253Y-3.5483
X5.4469Y-9.0698
X5.4521Y-9.38
X5.5415Y-8.1163
X5.5439Y-9.1139
X5.59Y-3.4152
X5.5956Y-3.1532
X5.5986Y-5.8475
X5.6313Y-8.8064
X5.6348Y-7.8766
X5.64Y-9.6351
X5.7746Y-8.4055
X5.7869Y-9.0607
X5.8348Y-7.6949
X5.8472Y-8.2232
X5.8472Y-8.4241
X5.8693Y-7.739
X5.8872Y-3.2136
X5.9178Y-9.9643
X5.9424Y-8.4784
X5.9815Y-8.1848
X6.001Y-9.0818
X6.0325Y-9.6538
X6.0365Y-9.3771
X6.0394Y-8.1258
X6.0594Y-8.436
X6.0766Y-9.4549
X6.0832Y-9.0594
X6.0883Y-8.9938
X6.1043Y-8.7835
X6.1055Y-9.8025
X6.1268Y-7.8283
X6.1352Y-9.235
X6.1366Y-9.0223
X6.1388Y-9.39
X6.1411Y-6.8696
X6.1411Y-7.1199
X6.1828Y-4.0152
X6.1874Y-7.5076
X6.2446Y-7.7354
X6.2593Y-7.4888
X6.2633Y-7.1046
X6.2884Y-10.9718
X6.2884Y-7.4019
X6.2884Y-7.6032
X6.2895Y-10.8988
X6.2946Y-8.84
X6.2958Y-8.6152
X6.3131Y-3.5652
X6.3217Y-7.9978
X6.3259Y-11.5321
X6.3386Y-6.335
X6.3415Y-9.4671
X6.3529Y-6.0875
X6.3643Y-9.1103
X6.3648Y-7.846
X6.3648Y-8.0602
X6.3666Y-3.169
X6.3674Y-9.208
X6.377Y-9.8755
X6.3793Y-5.7377
X6.3846Y-8.6891
X6.4235Y-9.8686
X6.4317Y-6.4258
X6.4478Y-9.143
X6.4673Y-6.3384
X6.4759Y-9.6927
X6.4938Y-8.1756
X6.4981Y-6.858
X6.5106Y-6.7259
X6.5185Y-8.436
X6.5285Y-9.5776
X6.5465Y-8.4824
X6.55Y-7.3379
X6.56Y-4.0152
X6.5626Y-3.1411
X6.5826Y-6.839
X6.5863Y-8.7191
X6.5925Y-8.077
X6.5986Y-9.8523
X6.6103Y-3.6152
X6.6104Y-9.1724
X6.6263Y-8.5081
X6.6268Y-10.2934
X6.6407Y-8.9178
X6.6596Y-7.1696
X6.6598Y-6.6805
X6.665Y-8.5825
X6.6656Y-11.5722
X6.6671Y-9.5067
X6.671Y-9.0351
X6.6745Y-8.4617
X6.6905Y-8.4127
X6.697Y-8.29
X6.6975Y-6.7911
X6.7013Y-6.681
X6.7034Y-6.9619
X6.7131Y-5.4597
X6.7131Y-5.9042
X6.7358Y-8.119
X6.7473Y-9.8825
X6.7501Y-6.6634
X6.8032Y-10.62
X6.8097Y-5.4311
X6.8106Y-4.9719
X6.8814Y-7.789
X6.8817Y-7.8993
X6.9044Y-6.6762
X6.9166Y-8.838
X6.9342Y-9.2672
X6.9434Y-8.301
X6.9594Y-8.9261
X6.972Y-6.5986
X6.9723Y-9.6777
X6.9851Y-8.6157
X6.9897Y-3.5355
X6.996Y-8.4689
X7.0046Y-9.1057
X7.0052Y-7.3476
X7.0147Y-7.8445
X7.0157Y-8.3857
X7.046Y-8.1842
X7.0501Y-9.5449
X7.0717Y-8.7812
X7.0735Y-9.0925
X7.0886Y-7.9413
X7.1332Y-9.6093
X7.1743Y-9.7741
X7.1951Y-8.8278
X7.2237Y-8.6027
X7.2338Y-8.7838
X7.246Y-8.6794
X7.2573Y-3.9063
X7.2823Y-7.3765
X7.3182Y-8.496
X7.3289Y-9.4379
X7.3454Y-6.4777
X7.4107Y-7.8928
X7.4264Y-7.7931
X7.4355Y-8.2094
X7.4435Y-7.178
X7.4478Y-6.4473
X7.4764Y-7.9154
X7.4875Y-8.3905
X7.5124Y-7.8169
X7.5153Y-5.028
X7.5401Y-9.2471
X7.5419Y-7.4434
X7.5881Y-8.1456
X7.6005Y-10.0243
X7.6196Y-9.2471
X7.6458Y-7.7961
X7.6479Y-8.0905
X7.693Y-7.8869
X7.7256Y-10.6981
X7.741Y-8.1563
X7.7546Y-3.1967
X7.7965Y-6.7474
X7.8166Y-5.7836
X7.817Y-7.405
X7.8214Y-9.6435
X7.8244Y-7.7168
X7.8328Y-8.1061
X7.84Y-10.3536
X7.8412Y-8.025
X7.8461Y-9.8565
X7.8463Y-10.5363
X7.85Y-6.4473
X7.8694Y-8.4938
X7.8844Y-10.3337
X7.8862Y-5.9844
X7.9056Y-8.2094
X7.9084Y-8.0637
X7.9185Y-6.7125
X7.9247Y-9.8349
X7.9274Y-9.4
X7.9337Y-7.8792
X7.9558Y-6.1073
X7.9877Y-9.7091
X8.0034Y-9.5618
X8.0155Y-8.091
X8.0394Y-7.7568
X8.0436Y-9.8704
X8.0514Y-9.8133
X8.0657Y-6.8216
X8.0767Y-9.1316
X8.1104Y-8.1208
X8.1185Y-9.0925
X8.1329Y-6.1276
X8.166Y-9.9704
X8.1875Y-9.6659
X8.1887Y-8.3623
X8.2199Y-9.8497
X8.2208Y-10.1777
X8.2241Y-11.0313
X8.2475Y-6.7906
X8.262Y-10.3052
X8.263Y-9.4831
X8.2714Y-8.366
X8.2793Y-10.0003
X8.285Y-5.9039
X8.2963Y-10.7458
X8.3209Y-9.4369
X8.3243Y-7.5623
X8.3246Y-4.93
X8.3285Y-9.657
X8.3343Y-8.4039
X8.3791Y-10.6904
X8.3836Y-2.8299
X8.3849Y-9.9086
X8.3876Y-8.75
X8.397Y-8.8801
X8.4012Y-8.486
X8.4162Y-8.3548
X8.4304Y-8.5627
X8.4618Y-7.9544
X8.4729Y-8.0124
X8.5021Y-9.2499
X8.5144Y-10.7189
X8.524Y-6.0353
X8.5504Y-9.6849
X8.562Y-7.6933
X8.5632Y-6.7556
X8.5716Y-8.3464
X8.5732Y-7.9912
X8.5754Y-4.8694
X8.5794Y-8.1119
X8.5809Y-6.1248
X8.5962Y-10.0071
X8.6Y-9.7676
X8.6212Y-3.5834
X8.6327Y-9.8084
X8.6674Y-8.9768
X8.6762Y-8.7316
X8.686Y-4.5524
X8.6911Y-3.2947
X8.6949Y-8.6389
X8.7105Y-8.7908
X8.7145Y-8.6998
X8.7439Y-10.6824
X8.7444Y-4.7594
X8.7506Y-9.77
X8.7793Y-7.7711
X8.7845Y-11.0136
X8.8018Y-9.445
X8.8029Y-5.9598
X8.806Y-8.5542
X8.8106Y-8.9466
X8.9258Y-7.3524
X8.9431Y-8.2045
X8.9473Y-6.1538
X8.948Y-8.4461
X8.9752Y-7.8317
X8.9763Y-2.8802
X8.9806Y-10.2479
X8.9872Y-6.0211
X8.9904Y-3.7056
X8.9957Y-9.4694
X9.0011Y-8.0769
X9.0191Y-7.8276
X9.0296Y-10.2778
X9.0375Y-3.86
X9.043Y-5.4265
X9.0459Y-8.0532
X9.0462Y-3.9288
X9.0471Y-8.8967
X9.054Y-8.9743
X9.0618Y-7.7146
X9.0644Y-10.0098
X9.0653Y-9.2919
X9.0655Y-6.146
X9.0865Y-4.2918
X9.0925Y-8.8819
X9.1046Y-8.7489
X9.1066Y-4.4006
X9.1207Y-7.4949
X9.1291Y-8.0056
X9.1404Y-8.9203
X9.1404Y-9.2267
X9.1437Y-7.2043
X9.1437Y-7.715
X9.1614Y-8.029
X9.1791Y-7.9896
X9.1791Y-8.1292
X9.1968Y-8.1686
X9.2036Y-8.7892
X9.2336Y-9.4694
X9.245Y-6.7455
X9.2614Y-9.0139
X9.2886Y-9.6681
X9.2927Y-8.2618
X9.2991Y-9.9077
X9.3071Y-7.4834
X9.3087Y-6.6031
X9.336Y-9.1661
X9.3363Y-8.7147
X9.3574Y-9.4694
X9.3653Y-10.8512
X9.3671Y-8.5824
X9.3727Y-8.6218
X9.3868Y-6.7039
X9.4012Y-11.0129
X9.4046Y-8.1874
X9.4162Y-9.525
X9.4312Y-9.1921
X9.4387Y-7.1229
X9.5Y-6.1137
X9.5231Y-5.535
X9.5281Y-7.9498
X9.5298Y-8.0049
X9.5606Y-5.8086
X9.5627Y-7.7506
X9.6413Y-5.5035
X9.65Y-10.4218
X9.6563Y-8.7978
X9.6729Y-7.9318
X9.6873Y-6.9212
X9.6992Y-9.0111
X9.7353Y-5.5043
X9.7592Y-7.6797
X9.7678Y-7.4088
X9.7846Y-8.2979
X9.7917Y-8.8404
X9.7925Y-8.6595
X9.8055Y-9.6
X9.8147Y-10.7471
X9.8214Y-8.7641
X9.8365Y-7.3057
X9.8659Y-10.4668
X9.8692Y-7.8385
X9.9064Y-7.857
X9.9167Y-5.742
X9.9358Y-8.957
X9.9613Y-10.7424
X9.9711Y-6.0152
X9.9763Y-11.3247
X9.9831Y-8.63
X10.0177Y-10.8992
X10.0433Y-7.7955
X10.057Y-10.2924
X10.0791Y-9.8
X10.0828Y-8.4648
X10.1026Y-5.2169
X10.1106Y-9.25
X10.1173Y-10.4027
X10.1259Y-10.2741
X10.1286Y-8.4237
X10.1361Y-11.0226
X10.148Y-5.8086
X10.1487Y-10.9267
X10.17Y-9.1182
X10.1938Y-10.9961
X10.2492Y-10.1834
X10.2751Y-10.8099
X10.28Y-11.1483
X10.2968Y-9.1092
X10.2984Y-5.6043
X10.3377Y-10.9162
X10.3409Y-10.7221
X10.4166Y-4.1892
X10.419Y-5.0784
X10.4228Y-8.4755
X10.4525Y-5.3796
X10.4609Y-4.9759
X10.4633Y-8.9569
X10.4645Y-7.7931
X10.4834Y-10.9154
X10.4864Y-8.9158
X10.4918Y-9.2873
X10.5014Y-10.9824
X10.5134Y-8.331
X10.5135Y-8.776
X10.5207Y-9.6489
X10.5497Y-9.35
X10.5898Y-5.6396
X10.5943Y-6.9635
X10.6014Y-10.8343
X10.6753Y-10.9923
X10.7035Y-5.9838
X10.7062Y-7.3904
X10.7079Y-7.7822
X10.7088Y-10.6674
X10.718Y-5.4731
X10.7198Y-6.7992
X10.7282Y-7.857
X10.7326Y-8.7827
X10.7367Y-8.668
X10.7534Y-8.08
X10.8064Y-10.8375
X10.8222Y-10.9751
X10.8243Y-6.7502
X10.8539Y-6.7838
X10.8647Y-9.0239
X10.9586Y-9.5514
X10.9647Y-10.8114
X10.9898Y-9.0779
X10.9914Y-10.3118
X11.0395Y-9.6
X11.1101Y-10.3078
X11.118Y-8.6919
X11.1364Y-9.3
X11.1386Y-10.1918
X11.1436Y-4.4618
X11.1989Y-4.404
X11.1997Y-8.5601
X11.2184Y-11.2579
X11.221Y-10.8114
X11.2876Y-8.8131
X11.2913Y-7.861
X11.3018Y-11.3101
X11.3166Y-11.2227
X11.3384Y-3.946
X11.3571Y-5.6279
X11.44Y-5.4094
X11.4663Y-8.1136
X11.4663Y-9.2513
X11.4831Y-11.1695
X11.4998Y-5.6564
X11.513Y-8.3563
X11.57Y-3.7058
X11.5785Y-8.2326
X11.5905Y-8.0194
X11.615Y-9.1092
X11.6976Y-10.1032
X11.7359Y-10.0506
X11.7454Y-10.1103
X11.7962Y-9.5
X11.8032Y-7.5661
X11.8456Y-10.3
X11.9165Y-9.2993
X12.0268Y-10.3402
X12.0318Y-8.4897
X12.0433Y-7.3376
T3
X10.8036Y-4.8647
X10.8036Y-4.9238
T5
X3.5Y-11.02
X3.55Y-10.97
X3.6Y-11.02
T6
X2.8998Y-6.6666
X2.8998Y-6.7666
X2.8998Y-6.8666
X2.8998Y-6.9666
X2.8998Y-7.0666
X2.8998Y-7.1666
X2.8998Y-7.2666
X2.94Y-7.73
X2.94Y-7.83
X2.94Y-7.93
X2.94Y-8.03
X2.94Y-8.13
X2.94Y-8.23
X2.94Y-8.33
X2.9757Y-11.4129
X2.9757Y-11.7129
X3.1998Y-6.6666
X3.1998Y-6.7666
X3.1998Y-6.8666
X3.1998Y-6.9666
X3.1998Y-7.0666
X3.1998Y-7.1666
X3.1998Y-7.2666
X3.24Y-7.73
X3.24Y-7.83
X3.24Y-7.93
X3.24Y-8.03
X3.24Y-8.13
X3.24Y-8.23
X3.24Y-8.33
X3.2625Y-6.4012
X3.2883Y-4.6562
X3.3231Y-9.07
X3.3331Y-6.66
X3.3431Y-7.55
X3.3867Y-4.6562
X3.4109Y-3.2287
X3.4109Y-3.5287
X3.44Y-5.025
X3.44Y-5.325
X3.4594Y-6.4012
X3.4731Y-10.67
X3.51Y-7.9
X3.51Y-8.0
X3.51Y-8.1
X3.51Y-8.2
X3.51Y-8.3
X3.51Y-8.4
X3.51Y-8.5
X3.51Y-8.6
X3.51Y-8.7
X3.51Y-8.8
X3.52Y-9.07
X3.53Y-6.66
X3.53Y-9.33
X3.53Y-9.43
X3.53Y-9.53
X3.53Y-9.63
X3.53Y-9.73
X3.53Y-9.83
X3.53Y-9.93
X3.53Y-10.03
X3.53Y-10.13
X3.53Y-10.23
X3.54Y-7.55
X3.67Y-10.67
X3.7231Y-9.07
X3.73Y-6.66
X3.73Y-6.76
X3.73Y-6.86
X3.73Y-6.96
X3.73Y-7.06
X3.73Y-7.16
X3.73Y-7.26
X3.73Y-7.36
X3.73Y-7.46
X3.73Y-7.56
X3.81Y-7.9
X3.81Y-8.0
X3.81Y-8.1
X3.81Y-8.2
X3.81Y-8.3
X3.81Y-8.4
X3.81Y-8.5
X3.81Y-8.6
X3.81Y-8.7
X3.81Y-8.8
X3.83Y-9.33
X3.83Y-9.43
X3.83Y-9.53
X3.83Y-9.63
X3.83Y-9.73
X3.83Y-9.83
X3.83Y-9.93
X3.83Y-10.03
X3.83Y-10.13
X3.83Y-10.23
X3.889Y-10.815
X3.889Y-11.115
X3.92Y-9.07
X4.03Y-6.66
X4.03Y-6.76
X4.03Y-6.86
X4.03Y-6.96
X4.03Y-7.06
X4.03Y-7.16
X4.03Y-7.26
X4.03Y-7.36
X4.03Y-7.46
X4.03Y-7.56
X4.0525Y-6.3792
X4.1075Y-4.6562
X4.1218Y-9.0709
X4.199Y-10.803
X4.199Y-11.103
X4.2059Y-4.6562
X4.2494Y-6.3792
X4.2916Y-11.316
X4.3187Y-9.0709
X4.39Y-11.316
X4.41Y-6.65
X4.41Y-6.75
X4.41Y-6.85
X4.41Y-6.95
X4.41Y-7.05
X4.41Y-7.15
X4.41Y-7.25
X4.41Y-7.35
X4.41Y-7.45
X4.41Y-7.55
X4.41Y-7.91
X4.41Y-8.01
X4.41Y-8.11
X4.41Y-8.21
X4.41Y-8.31
X4.41Y-8.41
X4.41Y-8.51
X4.41Y-8.61
X4.41Y-8.71
X4.41Y-8.81
X4.4416Y-10.96
X4.54Y-10.96
X4.64Y-10.38
X4.6437Y-11.3352
X4.6437Y-11.6352
X4.71Y-6.65
X4.71Y-6.75
X4.71Y-6.85
X4.71Y-6.95
X4.71Y-7.05
X4.71Y-7.15
X4.71Y-7.25
X4.71Y-7.35
X4.71Y-7.45
X4.71Y-7.55
X4.71Y-7.91
X4.71Y-8.01
X4.71Y-8.11
X4.71Y-8.21
X4.71Y-8.31
X4.71Y-8.41
X4.71Y-8.51
X4.71Y-8.61
X4.71Y-8.71
X4.71Y-8.81
X4.7437Y-11.3352
X4.7437Y-11.6352
X4.76Y-10.78
X4.76Y-11.08
X4.8437Y-11.3352
X4.8437Y-11.6352
X4.8527Y-6.3382
X4.86Y-10.78
X4.86Y-11.08
X4.9335Y-4.6562
X4.94Y-10.38
X4.9437Y-11.3352
X4.9437Y-11.6352
X4.96Y-10.78
X4.96Y-11.08
X5.0319Y-4.6562
X5.0437Y-11.3352
X5.0437Y-11.6352
X5.0496Y-6.3382
X5.06Y-10.78
X5.06Y-11.08
X5.13Y-9.69
X5.1437Y-11.3352
X5.1437Y-11.6352
X5.16Y-10.78
X5.16Y-11.08
X5.2437Y-11.3352
X5.2437Y-11.6352
X5.26Y-10.78
X5.26Y-11.08
X5.3191Y-7.5718
X5.3191Y-7.7687
X5.36Y-10.78
X5.36Y-11.08
X5.43Y-9.69
X5.47Y-6.85
X5.47Y-6.95
X5.47Y-7.05
X5.47Y-7.15
X5.47Y-7.25
X5.47Y-7.35
X5.47Y-7.45
X5.47Y-7.55
X5.47Y-7.65
X5.47Y-7.75
X5.54Y-10.34
X5.54Y-10.5369
X5.5925Y-6.3432
X5.64Y-8.04
X5.64Y-8.34
X5.7Y-9.92
X5.7Y-10.02
X5.7Y-10.12
X5.7Y-10.22
X5.7Y-10.32
X5.7Y-10.42
X5.7Y-10.52
X5.7127Y-4.6562
X5.77Y-6.85
X5.77Y-6.95
X5.77Y-7.05
X5.77Y-7.15
X5.77Y-7.25
X5.77Y-7.35
X5.77Y-7.45
X5.77Y-7.55
X5.77Y-7.65
X5.77Y-7.75
X5.7894Y-6.3432
X5.8006Y-8.04
X5.8006Y-8.34
X5.8112Y-4.6562
X5.9191Y-7.5718
X5.9191Y-7.7687
X5.96Y-8.04
X5.96Y-8.34
X6.0Y-9.92
X6.0Y-10.02
X6.0Y-10.12
X6.0Y-10.22
X6.0Y-10.32
X6.0Y-10.42
X6.0Y-10.52
X6.06Y-6.85
X6.06Y-6.95
X6.06Y-7.05
X6.06Y-7.15
X6.06Y-7.25
X6.06Y-7.35
X6.06Y-7.45
X6.06Y-7.55
X6.06Y-7.65
X6.06Y-7.75
X6.16Y-9.75
X6.1713Y-10.9509
X6.21Y-7.99
X6.21Y-8.09
X6.21Y-8.19
X6.21Y-8.29
X6.21Y-8.39
X6.21Y-8.49
X6.21Y-8.59
X6.21Y-8.69
X6.21Y-8.79
X6.21Y-8.89
X6.21Y-8.99
X6.21Y-9.09
X6.21Y-9.19
X6.21Y-9.29
X6.21Y-9.39
X6.21Y-9.49
X6.26Y-10.09
X6.26Y-10.19
X6.26Y-10.29
X6.26Y-10.39
X6.26Y-10.49
X6.26Y-10.59
X6.36Y-6.85
X6.36Y-6.95
X6.36Y-7.05
X6.36Y-7.15
X6.36Y-7.25
X6.36Y-7.35
X6.36Y-7.45
X6.36Y-7.55
X6.36Y-7.65
X6.36Y-7.75
X6.36Y-9.99
X6.36Y-10.09
X6.36Y-10.19
X6.36Y-10.29
X6.36Y-10.39
X6.36Y-10.49
X6.36Y-10.59
X6.36Y-10.69
X6.46Y-9.75
X6.46Y-9.99
X6.46Y-10.09
X6.46Y-10.59
X6.46Y-10.69
X6.4713Y-10.9509
X6.5046Y-4.667
X6.5285Y-6.3752
X6.56Y-9.99
X6.56Y-10.09
X6.56Y-10.59
X6.56Y-10.69
X6.603Y-4.667
X6.65Y-6.74
X6.66Y-9.99
X6.66Y-10.09
X6.66Y-10.59
X6.66Y-10.69
X6.7254Y-6.3752
X6.75Y-6.74
X6.76Y-9.99
X6.76Y-10.09
X6.76Y-10.59
X6.76Y-10.69
X6.81Y-7.04
X6.81Y-7.14
X6.81Y-7.24
X6.81Y-7.34
X6.81Y-7.44
X6.81Y-7.54
X6.81Y-7.64
X6.81Y-7.74
X6.81Y-7.99
X6.81Y-8.09
X6.81Y-8.19
X6.81Y-8.29
X6.81Y-8.39
X6.81Y-8.49
X6.81Y-8.59
X6.81Y-8.69
X6.81Y-8.79
X6.81Y-8.89
X6.81Y-8.99
X6.81Y-9.09
X6.81Y-9.19
X6.81Y-9.29
X6.81Y-9.39
X6.81Y-9.49
X6.85Y-6.74
X6.8531Y-9.78
X6.86Y-9.99
X6.86Y-10.09
X6.86Y-10.19
X6.86Y-10.29
X6.86Y-10.39
X6.86Y-10.49
X6.86Y-10.59
X6.86Y-10.69
X6.95Y-6.74
X6.96Y-10.09
X6.96Y-10.19
X6.96Y-10.29
X6.96Y-10.39
X6.96Y-10.49
X6.96Y-10.59
X6.9631Y-7.99
X7.05Y-6.59
X7.05Y-6.74
X7.05Y-9.78
X7.11Y-7.04
X7.11Y-7.14
X7.11Y-7.24
X7.11Y-7.34
X7.11Y-7.44
X7.11Y-7.54
X7.11Y-7.64
X7.11Y-7.74
X7.15Y-6.59
X7.15Y-6.74
X7.16Y-7.99
X7.1718Y-6.9009
X7.25Y-6.59
X7.25Y-6.74
X7.251Y-6.376
X7.3Y-8.55
X7.3Y-8.65
X7.3Y-8.75
X7.3Y-8.85
X7.3Y-8.95
X7.3Y-9.05
X7.3Y-9.15
X7.3Y-9.25
X7.3Y-9.35
X7.35Y-6.59
X7.35Y-6.74
X7.3687Y-6.9009
X7.37Y-7.05
X7.37Y-7.15
X7.37Y-7.25
X7.37Y-7.35
X7.37Y-7.45
X7.37Y-7.55
X7.37Y-7.65
X7.4Y-8.45
X7.4Y-8.55
X7.4Y-8.65
X7.4Y-8.75
X7.4Y-8.85
X7.4Y-8.95
X7.4Y-9.05
X7.4Y-9.15
X7.4Y-9.25
X7.4Y-9.35
X7.4Y-9.45
X7.4479Y-6.376
X7.45Y-6.59
X7.45Y-6.74
X7.5Y-8.45
X7.5Y-8.55
X7.5Y-9.35
X7.5Y-9.45
X7.5031Y-5.18
X7.5318Y-7.9909
X7.55Y-6.59
X7.55Y-6.74
X7.6Y-8.45
X7.6Y-8.55
X7.6Y-9.35
X7.6Y-9.45
X7.67Y-7.05
X7.67Y-7.15
X7.67Y-7.25
X7.67Y-7.35
X7.67Y-7.45
X7.67Y-7.55
X7.67Y-7.65
X7.68Y-5.31
X7.68Y-5.41
X7.68Y-5.51
X7.68Y-5.61
X7.68Y-5.71
X7.68Y-5.81
X7.68Y-5.91
X7.68Y-6.01
X7.6963Y-6.86
X7.7Y-5.18
X7.7Y-6.29
X7.7Y-6.59
X7.7Y-8.45
X7.7Y-8.55
X7.7Y-9.35
X7.7Y-9.45
X7.7287Y-7.9909
X7.8Y-6.29
X7.8Y-6.59
X7.8Y-8.45
X7.8Y-8.55
X7.8Y-9.35
X7.8Y-9.45
X7.8931Y-6.86
X7.9Y-6.29
X7.9Y-6.59
X7.9Y-8.45
X7.9Y-8.55
X7.9Y-9.35
X7.9Y-9.45
X7.9016Y-4.1
X7.9016Y-4.2
X7.9016Y-4.3
X7.91Y-3.53
X7.91Y-3.63
X7.91Y-3.73
X7.936Y-7.05
X7.936Y-7.15
X7.936Y-7.25
X7.936Y-7.35
X7.936Y-7.45
X7.936Y-7.55
X7.936Y-7.65
X7.98Y-5.31
X7.98Y-5.41
X7.98Y-5.51
X7.98Y-5.61
X7.98Y-5.71
X7.98Y-5.81
X7.98Y-5.91
X7.98Y-6.01
X8.0Y-6.29
X8.0Y-6.59
X8.0Y-8.45
X8.0Y-8.55
X8.0Y-9.35
X8.0Y-9.45
X8.1Y-6.29
X8.1Y-6.59
X8.1Y-8.45
X8.1Y-8.55
X8.1Y-9.35
X8.1Y-9.45
X8.1031Y-6.07
X8.1616Y-5.01
X8.1616Y-5.37
X8.1616Y-5.73
X8.1716Y-4.65
X8.2Y-6.29
X8.2Y-6.59
X8.2Y-8.45
X8.2Y-8.55
X8.2Y-8.65
X8.2Y-8.75
X8.2Y-8.85
X8.2Y-8.95
X8.2Y-9.05
X8.2Y-9.15
X8.2Y-9.25
X8.2Y-9.35
X8.2Y-9.45
X8.236Y-7.05
X8.236Y-7.15
X8.236Y-7.25
X8.236Y-7.35
X8.236Y-7.45
X8.236Y-7.55
X8.236Y-7.65
X8.26Y-5.01
X8.26Y-5.37
X8.26Y-5.73
X8.2616Y-3.36
X8.2616Y-3.75
X8.27Y-4.65
X8.2716Y-4.11
X8.2918Y-6.8609
X8.3Y-6.07
X8.3Y-6.29
X8.3Y-6.59
X8.3Y-8.55
X8.3Y-8.65
X8.3Y-8.75
X8.3Y-8.85
X8.3Y-8.95
X8.3Y-9.05
X8.3Y-9.15
X8.3Y-9.25
X8.3Y-9.35
X8.36Y-3.36
X8.36Y-3.75
X8.37Y-4.11
X8.4Y-5.56
X8.4Y-5.73
X8.4Y-5.9
X8.4Y-6.08
X8.4Y-6.29
X8.4Y-6.59
X8.4031Y-9.98
X8.4031Y-10.08
X8.4031Y-10.18
X8.4031Y-10.28
X8.4031Y-10.38
X8.4031Y-10.48
X8.4031Y-10.58
X8.41Y-5.01
X8.41Y-5.2
X8.41Y-5.38
X8.4887Y-6.8609
X8.502Y-7.05
X8.502Y-7.15
X8.502Y-7.25
X8.502Y-7.35
X8.502Y-7.45
X8.502Y-7.55
X8.502Y-7.65
X8.5231Y-9.85
X8.57Y-3.66
X8.57Y-3.76
X8.57Y-3.86
X8.57Y-3.96
X8.57Y-4.06
X8.57Y-4.16
X8.57Y-4.26
X8.57Y-4.36
X8.5716Y-3.35
X8.6409Y-9.2187
X8.6409Y-9.5187
X8.67Y-3.35
X8.7Y-5.56
X8.7Y-5.73
X8.7Y-5.9
X8.7Y-6.08
X8.7031Y-9.98
X8.7031Y-10.08
X8.7031Y-10.18
X8.7031Y-10.28
X8.7031Y-10.38
X8.7031Y-10.48
X8.7031Y-10.58
X8.71Y-5.01
X8.71Y-5.2
X8.71Y-5.38
X8.72Y-9.85
X8.802Y-7.05
X8.802Y-7.15
X8.802Y-7.25
X8.802Y-7.35
X8.802Y-7.45
X8.802Y-7.55
X8.802Y-7.65
X8.8316Y-3.34
X8.851Y-6.86
X8.8531Y-6.38
X8.87Y-3.66
X8.87Y-3.76
X8.87Y-3.86
X8.87Y-3.96
X8.87Y-4.06
X8.87Y-4.16
X8.87Y-4.26
X8.87Y-4.36
X8.87Y-4.66
X8.87Y-4.76
X8.87Y-4.86
X8.87Y-4.96
X8.87Y-5.06
X8.87Y-5.16
X8.87Y-5.26
X8.88Y-5.51
X8.88Y-5.61
X8.88Y-5.71
X8.88Y-5.81
X8.88Y-5.91
X8.88Y-6.01
X8.88Y-6.11
X8.88Y-8.05
X8.88Y-8.15
X8.88Y-8.25
X8.88Y-8.35
X8.88Y-8.45
X8.88Y-8.55
X8.88Y-8.65
X8.88Y-8.75
X8.88Y-8.85
X8.88Y-8.95
X8.88Y-9.05
X8.88Y-9.15
X8.88Y-9.25
X8.88Y-9.35
X8.88Y-9.45
X8.88Y-9.55
X8.9009Y-9.8013
X8.9009Y-10.1013
X8.93Y-3.34
X9.0009Y-9.8013
X9.0009Y-10.1013
X9.0479Y-6.86
X9.05Y-6.38
X9.068Y-7.05
X9.068Y-7.15
X9.068Y-7.25
X9.068Y-7.35
X9.068Y-7.45
X9.068Y-7.55
X9.068Y-7.65
X9.1009Y-9.8013
X9.1009Y-10.1013
X9.1067Y-4.0897
X9.1116Y-3.34
X9.1116Y-3.73
X9.17Y-4.66
X9.17Y-4.76
X9.17Y-4.86
X9.17Y-4.96
X9.17Y-5.06
X9.17Y-5.16
X9.17Y-5.26
X9.1731Y-4.53
X9.18Y-5.51
X9.18Y-5.61
X9.18Y-5.71
X9.18Y-5.81
X9.18Y-5.91
X9.18Y-6.01
X9.18Y-6.11
X9.2Y-10.39
X9.2009Y-9.8013
X9.2009Y-10.1013
X9.2052Y-4.0897
X9.21Y-3.34
X9.21Y-3.73
X9.2113Y-10.8809
X9.3Y-10.39
X9.3009Y-9.8013
X9.3009Y-10.1013
X9.368Y-7.05
X9.368Y-7.15
X9.368Y-7.25
X9.368Y-7.35
X9.368Y-7.45
X9.368Y-7.55
X9.368Y-7.65
X9.37Y-4.53
X9.4Y-10.39
X9.4009Y-9.8013
X9.4009Y-10.1013
X9.4116Y-3.34
X9.42Y-3.66
X9.42Y-3.76
X9.42Y-3.86
X9.42Y-3.96
X9.42Y-4.06
X9.42Y-4.16
X9.42Y-4.26
X9.42Y-4.36
X9.4284Y-6.86
X9.44Y-4.66
X9.44Y-4.76
X9.44Y-4.86
X9.44Y-4.96
X9.44Y-5.06
X9.44Y-5.16
X9.44Y-5.26
X9.44Y-5.36
X9.44Y-5.46
X9.44Y-5.56
X9.44Y-5.66
X9.44Y-5.76
X9.44Y-5.86
X9.44Y-5.96
X9.44Y-6.06
X9.44Y-6.16
X9.44Y-6.26
X9.44Y-6.36
X9.44Y-6.46
X9.44Y-6.56
X9.48Y-8.05
X9.48Y-8.15
X9.48Y-8.25
X9.48Y-8.35
X9.48Y-8.45
X9.48Y-8.55
X9.48Y-8.65
X9.48Y-8.75
X9.48Y-8.85
X9.48Y-8.95
X9.48Y-9.05
X9.48Y-9.15
X9.48Y-9.25
X9.48Y-9.35
X9.48Y-9.45
X9.48Y-9.55
X9.5Y-10.39
X9.5009Y-9.8013
X9.5009Y-10.1013
X9.51Y-3.34
X9.5113Y-10.8809
X9.6Y-10.39
X9.6009Y-9.8013
X9.6009Y-10.1013
X9.6018Y-7.9709
X9.6253Y-6.86
X9.634Y-7.05
X9.634Y-7.15
X9.634Y-7.25
X9.634Y-7.35
X9.634Y-7.45
X9.634Y-7.55
X9.634Y-7.65
X9.7Y-10.39
X9.7067Y-3.3397
X9.72Y-3.66
X9.72Y-3.76
X9.72Y-3.86
X9.72Y-3.96
X9.72Y-4.06
X9.72Y-4.16
X9.72Y-4.26
X9.72Y-4.36
X9.74Y-9.4
X9.74Y-9.5969
X9.75Y-9.9131
X9.75Y-10.11
X9.7987Y-7.9709
X9.8Y-10.39
X9.8052Y-3.3397
X9.8631Y-4.53
X9.9Y-10.39
X9.93Y-7.98
X9.93Y-8.08
X9.93Y-8.18
X9.93Y-8.28
X9.93Y-8.38
X9.93Y-8.48
X9.93Y-8.58
X9.93Y-8.68
X9.93Y-8.78
X9.93Y-8.88
X9.93Y-9.2
X9.93Y-9.3
X9.93Y-9.4
X9.93Y-9.5
X9.93Y-9.6
X9.93Y-9.7
X9.93Y-9.8
X9.93Y-9.9
X9.934Y-7.05
X9.934Y-7.15
X9.934Y-7.25
X9.934Y-7.35
X9.934Y-7.45
X9.934Y-7.55
X9.934Y-7.65
X9.98Y-2.97
X9.9931Y-3.43
X10.0Y-10.39
X10.0058Y-6.86
X10.01Y-3.65
X10.01Y-3.75
X10.01Y-3.85
X10.01Y-3.95
X10.01Y-4.05
X10.01Y-4.15
X10.01Y-4.25
X10.04Y-4.66
X10.04Y-4.76
X10.04Y-4.86
X10.04Y-4.96
X10.04Y-5.06
X10.04Y-5.16
X10.04Y-5.26
X10.04Y-5.36
X10.04Y-5.46
X10.04Y-5.56
X10.04Y-5.66
X10.04Y-5.76
X10.04Y-5.86
X10.04Y-5.96
X10.04Y-6.06
X10.04Y-6.16
X10.04Y-6.26
X10.04Y-6.36
X10.04Y-6.46
X10.04Y-6.56
X10.06Y-4.53
X10.19Y-3.43
X10.2Y-7.05
X10.2Y-7.15
X10.2Y-7.25
X10.2Y-7.35
X10.2Y-7.45
X10.2Y-7.55
X10.2Y-7.65
X10.2026Y-6.86
X10.23Y-7.98
X10.23Y-8.08
X10.23Y-8.18
X10.23Y-8.28
X10.23Y-8.38
X10.23Y-8.48
X10.23Y-8.58
X10.23Y-8.68
X10.23Y-8.78
X10.23Y-8.88
X10.23Y-9.2
X10.23Y-9.3
X10.23Y-9.4
X10.23Y-9.5
X10.23Y-9.6
X10.23Y-9.7
X10.23Y-9.8
X10.23Y-9.9
X10.28Y-2.97
X10.31Y-3.65
X10.31Y-3.75
X10.31Y-3.85
X10.31Y-3.95
X10.31Y-4.05
X10.31Y-4.15
X10.31Y-4.25
X10.3376Y-4.7288
X10.3376Y-4.8288
X10.3376Y-4.9288
X10.3376Y-5.0288
X10.3376Y-5.1288
X10.3376Y-5.2288
X10.3376Y-5.3288
X10.3376Y-5.4288
X10.3376Y-5.5288
X10.4291Y-7.9618
X10.4291Y-8.1587
X10.47Y-5.93
X10.47Y-6.03
X10.47Y-6.13
X10.47Y-6.23
X10.47Y-6.33
X10.47Y-6.43
X10.47Y-6.53
X10.5Y-7.05
X10.5Y-7.15
X10.5Y-7.25
X10.5Y-7.35
X10.5Y-7.45
X10.5Y-7.55
X10.5Y-7.65
X10.51Y-3.64
X10.51Y-3.74
X10.51Y-3.84
X10.51Y-3.94
X10.51Y-4.04
X10.51Y-4.14
X10.51Y-4.24
X10.5618Y-4.5309
X10.5831Y-6.86
X10.59Y-5.8
X10.6098Y-9.1966
X10.6098Y-9.2966
X10.6098Y-9.3966
X10.6098Y-9.4966
X10.6098Y-9.5966
X10.6098Y-9.6966
X10.6098Y-9.7966
X10.61Y-7.98
X10.61Y-8.08
X10.61Y-8.18
X10.61Y-8.28
X10.61Y-8.38
X10.61Y-8.48
X10.61Y-8.58
X10.61Y-8.68
X10.61Y-10.09
X10.61Y-10.19
X10.61Y-10.29
X10.61Y-10.39
X10.61Y-10.49
X10.61Y-10.59
X10.61Y-10.69
X10.6313Y-3.4291
X10.6376Y-4.7288
X10.6376Y-4.8288
X10.6376Y-4.9288
X10.6376Y-5.0288
X10.6376Y-5.1288
X10.6376Y-5.2288
X10.6376Y-5.3288
X10.6376Y-5.4288
X10.6376Y-5.5288
X10.74Y-8.94
X10.7587Y-4.5309
X10.77Y-5.93
X10.77Y-6.03
X10.77Y-6.13
X10.77Y-6.23
X10.77Y-6.33
X10.77Y-6.43
X10.77Y-6.53
X10.78Y-6.86
X10.7869Y-5.8
X10.79Y-7.05
X10.79Y-7.15
X10.79Y-7.25
X10.79Y-7.35
X10.79Y-7.45
X10.79Y-7.55
X10.79Y-7.65
X10.81Y-3.64
X10.81Y-3.74
X10.81Y-3.84
X10.81Y-3.94
X10.81Y-4.04
X10.81Y-4.14
X10.81Y-4.24
X10.8137Y-5.2248
X10.8199Y-5.0798
X10.8282Y-3.4291
X10.9098Y-9.1966
X10.9098Y-9.2966
X10.9098Y-9.3966
X10.9098Y-9.4966
X10.9098Y-9.5966
X10.9098Y-9.6966
X10.9098Y-9.7966
X10.91Y-7.98
X10.91Y-8.08
X10.91Y-8.18
X10.91Y-8.28
X10.91Y-8.38
X10.91Y-8.48
X10.91Y-8.58
X10.91Y-8.68
X10.91Y-10.09
X10.91Y-10.19
X10.91Y-10.29
X10.91Y-10.39
X10.91Y-10.49
X10.91Y-10.59
X10.91Y-10.69
X10.9369Y-8.94
X11.0106Y-5.2248
X11.0131Y-6.86
X11.0168Y-5.0798
X11.03Y-2.55
X11.03Y-2.65
X11.03Y-2.75
X11.03Y-2.85
X11.03Y-2.95
X11.03Y-3.05
X11.03Y-3.15
X11.03Y-3.25
X11.03Y-3.35
X11.03Y-3.45
X11.03Y-3.55
X11.03Y-3.65
X11.03Y-3.75
X11.03Y-3.85
X11.03Y-3.95
X11.03Y-4.05
X11.03Y-4.15
X11.03Y-4.25
X11.03Y-4.35
X11.03Y-4.45
X11.09Y-7.05
X11.09Y-7.15
X11.09Y-7.25
X11.09Y-7.35
X11.09Y-7.45
X11.09Y-7.55
X11.09Y-7.65
X11.1191Y-7.9618
X11.1191Y-8.1587
X11.1991Y-10.3418
X11.1991Y-10.5387
X11.2009Y-9.9013
X11.2009Y-10.0982
X11.21Y-6.86
X11.33Y-6.84
X11.33Y-7.0369
X11.38Y-9.3
X11.38Y-9.4
X11.38Y-9.5
X11.38Y-9.6
X11.38Y-9.7
X11.38Y-9.8
X11.38Y-9.9
X11.38Y-10.0
X11.38Y-10.1
X11.38Y-10.2
X11.38Y-10.3
X11.38Y-10.4
X11.38Y-10.5
X11.38Y-10.6
X11.38Y-10.7
X11.38Y-10.8
X11.38Y-10.9
X11.38Y-11.0
X11.38Y-11.1
X11.38Y-11.2
X11.5Y-5.78
X11.5Y-5.88
X11.5Y-5.98
X11.5Y-6.08
X11.5Y-6.18
X11.5Y-6.28
X11.5Y-6.38
X11.5Y-6.48
X11.5Y-6.58
X11.5Y-6.68
X11.5Y-6.78
X11.5Y-6.88
X11.5Y-6.98
X11.5Y-7.08
X11.5Y-7.18
X11.5Y-7.28
X11.5Y-7.38
X11.5Y-7.48
X11.5Y-7.58
X11.5Y-7.68
X11.63Y-2.55
X11.63Y-2.65
X11.63Y-2.75
X11.63Y-2.85
X11.63Y-2.95
X11.63Y-3.05
X11.63Y-3.15
X11.63Y-3.25
X11.63Y-3.35
X11.63Y-3.45
X11.63Y-3.55
X11.63Y-3.65
X11.63Y-3.75
X11.63Y-3.85
X11.63Y-3.95
X11.63Y-4.05
X11.63Y-4.15
X11.63Y-4.25
X11.63Y-4.35
X11.63Y-4.45
X11.8091Y-2.5318
X11.8091Y-2.7287
X11.98Y-9.3
X11.98Y-9.4
X11.98Y-9.5
X11.98Y-9.6
X11.98Y-9.7
X11.98Y-9.8
X11.98Y-9.9
X11.98Y-10.0
X11.98Y-10.1
X11.98Y-10.2
X11.98Y-10.3
X11.98Y-10.4
X11.98Y-10.5
X11.98Y-10.6
X11.98Y-10.7
X11.98Y-10.8
X11.98Y-10.9
X11.98Y-11.0
X11.98Y-11.1
X11.98Y-11.2
X12.1Y-5.78
X12.1Y-5.88
X12.1Y-5.98
X12.1Y-6.08
X12.1Y-6.18
X12.1Y-6.28
X12.1Y-6.38
X12.1Y-6.48
X12.1Y-6.58
X12.1Y-6.68
X12.1Y-6.78
X12.1Y-6.88
X12.1Y-6.98
X12.1Y-7.08
X12.1Y-7.18
X12.1Y-7.28
X12.1Y-7.38
X12.1Y-7.48
X12.1Y-7.58
X12.1Y-7.68
X12.16Y-3.87
X12.16Y-3.97
X12.16Y-4.07
X12.16Y-4.17
X12.16Y-4.27
X12.16Y-4.37
X12.16Y-4.47
X12.16Y-4.57
X12.16Y-4.67
X12.16Y-4.77
T7
X9.7524Y-2.54
X9.7524Y-2.6364
X9.8351Y-2.54
X9.9373Y-2.54
X10.02Y-2.54
X10.02Y-2.6384
X10.4785Y-2.5381
X10.4785Y-2.6345
X10.5612Y-2.5381
X10.6634Y-2.5381
X10.7461Y-2.5381
X10.7461Y-2.6365
T8
X4.17Y-9.65
X4.1713Y-10.08
X4.27Y-9.65
X4.2713Y-10.08
X4.4666Y-10.08
X4.47Y-9.65
X4.5666Y-10.08
X4.57Y-9.65
X4.7619Y-10.08
X4.77Y-9.65
X4.8619Y-10.08
X4.87Y-9.65
X5.22Y-10.08
X5.32Y-10.08
T9
X2.93Y-10.9228
X2.93Y-11.1
X2.9333Y-10.4033
X2.9333Y-10.5805
X3.1859Y-10.9228
X3.1859Y-11.1
X3.1892Y-10.4033
X3.1892Y-10.5805
X3.2525Y-5.6052
X3.2525Y-5.7052
X3.2525Y-5.8052
X3.2525Y-5.9052
X3.2525Y-6.0052
X3.2525Y-6.1052
X3.3525Y-5.6052
X3.3525Y-5.7052
X3.3525Y-5.8052
X3.3525Y-5.9052
X3.3525Y-6.0052
X3.3525Y-6.1052
X4.0673Y-5.6052
X4.0673Y-5.7052
X4.0673Y-5.8052
X4.0673Y-5.9052
X4.0673Y-6.0052
X4.0673Y-6.1052
X4.1673Y-5.6052
X4.1673Y-5.7052
X4.1673Y-5.8052
X4.1673Y-5.9052
X4.1673Y-6.0052
X4.1673Y-6.1052
X4.8675Y-5.6002
X4.8675Y-5.7002
X4.8675Y-5.8002
X4.8675Y-5.9002
X4.8675Y-6.0002
X4.8675Y-6.1002
X4.9675Y-5.6002
X4.9675Y-5.7002
X4.9675Y-5.8002
X4.9675Y-5.9002
X4.9675Y-6.0002
X4.9675Y-6.1002
X5.2Y-7.15
X5.2Y-7.25
X5.2Y-7.35
X5.2377Y-9.23
X5.2377Y-9.33
X5.2377Y-9.43
X5.3Y-7.15
X5.3Y-7.25
X5.3Y-7.35
X5.3Y-8.07
X5.3Y-8.17
X5.3Y-8.27
X5.3Y-8.37
X5.3Y-8.47
X5.3Y-8.57
X5.3Y-8.67
X5.4Y-8.07
X5.4Y-8.17
X5.4Y-8.27
X5.4Y-8.37
X5.4Y-8.47
X5.4Y-8.57
X5.4Y-8.67
X5.4208Y-9.23
X5.4208Y-9.33
X5.4208Y-9.43
X5.5507Y-11.458
X5.5507Y-11.558
X5.6039Y-9.23
X5.6039Y-9.33
X5.6039Y-9.43
X5.6675Y-5.6052
X5.6675Y-5.7052
X5.6675Y-5.8052
X5.6675Y-5.9052
X5.6675Y-6.0052
X5.6675Y-6.1052
X5.7675Y-5.6052
X5.7675Y-5.7052
X5.7675Y-5.8052
X5.7675Y-5.9052
X5.7675Y-6.0052
X5.7675Y-6.1052
X5.7869Y-9.23
X5.7869Y-9.33
X5.7869Y-9.43
X5.97Y-9.23
X5.97Y-9.33
X5.97Y-9.43
X6.4567Y-5.6042
X6.4567Y-5.7042
X6.4567Y-5.8042
X6.4567Y-5.9042
X6.4567Y-6.0042
X6.4567Y-6.1042
X6.53Y-7.43
X6.53Y-7.53
X6.53Y-7.63
X6.53Y-7.73
X6.5567Y-5.6042
X6.5567Y-5.7042
X6.5567Y-5.8042
X6.5567Y-5.9042
X6.5567Y-6.0042
X6.5567Y-6.1042
X6.63Y-7.43
X6.63Y-7.53
X6.63Y-7.63
X6.63Y-7.73
X7.25Y-10.84
X7.25Y-10.94
X7.27Y-10.4
X7.27Y-10.5
X7.274Y-5.615
X7.274Y-5.715
X7.274Y-5.815
X7.274Y-5.915
X7.274Y-6.015
X7.274Y-6.115
X7.29Y-9.95
X7.29Y-10.05
X7.35Y-10.84
X7.35Y-10.94
X7.37Y-10.4
X7.37Y-10.5
X7.374Y-5.615
X7.374Y-5.715
X7.374Y-5.815
X7.374Y-5.915
X7.374Y-6.015
X7.374Y-6.115
X7.39Y-9.95
X7.39Y-10.05
X7.45Y-3.12
X7.45Y-3.22
X7.45Y-3.32
X7.45Y-3.42
X7.45Y-3.52
X7.45Y-3.86
X7.45Y-3.96
X7.45Y-4.06
X7.45Y-4.16
X7.45Y-4.26
X7.45Y-10.84
X7.45Y-10.94
X7.55Y-3.12
X7.55Y-3.22
X7.55Y-3.32
X7.55Y-3.42
X7.55Y-3.52
X7.55Y-3.86
X7.55Y-3.96
X7.55Y-4.06
X7.55Y-4.16
X7.55Y-4.26
X7.55Y-10.84
X7.55Y-10.94
X7.65Y-10.84
X7.65Y-10.94
X7.66Y-10.39
X7.66Y-10.49
X7.75Y-10.84
X7.75Y-10.94
X7.76Y-10.39
X7.76Y-10.49
X7.85Y-4.63
X7.85Y-4.73
X7.85Y-4.83
X7.85Y-4.93
X7.85Y-5.03
X7.85Y-10.84
X7.85Y-10.94
X7.95Y-4.63
X7.95Y-4.73
X7.95Y-4.83
X7.95Y-4.93
X7.95Y-5.03
X7.95Y-10.84
X7.95Y-10.94
X8.0197Y-7.9891
X8.05Y-10.84
X8.05Y-10.94
X8.1197Y-7.9891
X8.15Y-10.84
X8.15Y-10.94
X8.21Y-2.33
X8.21Y-2.56
X8.2197Y-7.9891
X8.25Y-10.84
X8.25Y-10.94
X8.31Y-2.33
X8.31Y-2.56
X8.35Y-10.84
X8.35Y-10.94
X8.41Y-2.33
X8.41Y-2.56
X8.45Y-10.84
X8.45Y-10.94
X8.51Y-2.33
X8.51Y-2.56
X8.53Y-2.87
X8.53Y-2.97
X8.55Y-10.84
X8.55Y-10.94
X8.58Y-4.66
X8.58Y-4.76
X8.61Y-2.33
X8.61Y-2.56
X8.65Y-10.84
X8.65Y-10.94
X8.68Y-4.66
X8.68Y-4.76
X8.71Y-2.33
X8.71Y-2.56
X8.72Y-2.87
X8.72Y-2.97
X8.75Y-10.84
X8.75Y-10.94
X8.85Y-10.84
X8.85Y-10.94
X8.92Y-2.33
X8.92Y-2.43
X8.92Y-2.53
X8.92Y-2.63
X8.92Y-2.73
X9.02Y-2.33
X9.02Y-2.43
X9.02Y-2.53
X9.02Y-2.63
X9.02Y-2.73
X9.19Y-10.59
X9.19Y-10.69
X9.23Y-11.08
X9.23Y-11.18
X9.28Y-2.33
X9.28Y-2.43
X9.28Y-2.53
X9.28Y-2.63
X9.28Y-2.73
X9.29Y-10.59
X9.29Y-10.69
X9.33Y-11.08
X9.33Y-11.18
X9.38Y-2.33
X9.38Y-2.43
X9.38Y-2.53
X9.38Y-2.63
X9.38Y-2.73
X9.3887Y-2.9709
X9.39Y-10.59
X9.39Y-10.69
X9.43Y-11.08
X9.43Y-11.18
X9.4887Y-2.9709
X9.49Y-10.59
X9.49Y-10.69
X9.53Y-11.08
X9.53Y-11.18
X9.59Y-10.59
X9.59Y-10.69
X9.63Y-11.08
X9.63Y-11.18
X9.69Y-10.59
X9.69Y-10.69
X9.73Y-2.98
X9.73Y-11.08
X9.73Y-11.18
X9.79Y-10.59
X9.79Y-10.69
X9.83Y-2.98
X9.83Y-11.08
X9.83Y-11.18
X9.89Y-10.59
X9.89Y-10.69
X9.93Y-11.08
X9.93Y-11.18
X9.99Y-10.59
X9.99Y-10.69
X10.03Y-11.08
X10.03Y-11.18
X10.09Y-10.59
X10.09Y-10.69
X10.13Y-11.08
X10.13Y-11.18
X10.19Y-10.59
X10.19Y-10.69
X10.2009Y-6.1013
X10.2009Y-6.2013
X10.23Y-11.08
X10.23Y-11.18
X10.29Y-10.59
X10.29Y-10.69
X10.33Y-11.08
X10.33Y-11.18
X10.38Y-10.13
X10.38Y-10.23
X10.38Y-10.33
X10.39Y-10.59
X10.39Y-10.69
X10.43Y-11.08
X10.43Y-11.18
X10.53Y-11.08
X10.53Y-11.18
X10.63Y-11.08
X10.63Y-11.18
X10.73Y-11.08
X10.73Y-11.18
X10.83Y-11.08
X10.83Y-11.18
X10.93Y-11.08
X10.93Y-11.18
X11.03Y-11.08
X11.03Y-11.18
X11.13Y-11.08
X11.13Y-11.18
X11.68Y-8.01
X11.68Y-8.11
X11.68Y-8.21
X11.68Y-8.31
X11.68Y-8.41
X11.68Y-8.51
X11.68Y-8.61
X11.68Y-8.71
X11.68Y-8.81
X11.68Y-8.91
X11.78Y-8.01
X11.78Y-8.11
X11.78Y-8.21
X11.78Y-8.31
X11.78Y-8.41
X11.78Y-8.51
X11.78Y-8.61
X11.78Y-8.71
X11.78Y-8.81
X11.78Y-8.91
X12.0306Y-5.0318
X12.0306Y-5.1318
X12.0306Y-5.2318
X12.0306Y-5.3318
T10
X2.8687Y-3.2152
X2.8687Y-3.3152
X2.8687Y-3.4152
X2.8687Y-3.5152
X2.8687Y-3.6152
X2.8687Y-3.7152
X2.8687Y-3.8152
X2.8687Y-3.9152
X2.8687Y-4.0152
X2.8687Y-4.1152
X2.8687Y-4.2152
X2.8687Y-4.3152
X2.8687Y-4.4152
X2.8687Y-4.5152
X2.8687Y-4.6152
X2.8687Y-4.7152
X2.8687Y-4.8152
X2.8687Y-4.9152
X2.8687Y-5.0152
X2.8687Y-5.1152
X2.8687Y-5.2152
X2.8687Y-5.3152
X2.8687Y-5.4152
X2.8687Y-5.5152
X2.8687Y-5.6152
X2.8687Y-5.7152
X2.8687Y-5.8152
X2.8687Y-5.9152
X2.8687Y-6.0152
X2.8687Y-6.1152
X2.8687Y-6.2152
X3.0687Y-3.2152
X3.0687Y-3.3152
X3.0687Y-3.4152
X3.0687Y-3.5152
X3.0687Y-3.6152
X3.0687Y-3.7152
X3.0687Y-3.8152
X3.0687Y-3.9152
X3.0687Y-4.0152
X3.0687Y-4.1152
X3.0687Y-4.2152
X3.0687Y-4.3152
X3.0687Y-4.4152
X3.0687Y-4.5152
X3.0687Y-4.6152
X3.0687Y-4.7152
X3.0687Y-4.8152
X3.0687Y-4.9152
X3.0687Y-5.0152
X3.0687Y-5.1152
X3.0687Y-5.2152
X3.0687Y-5.3152
X3.0687Y-5.4152
X3.0687Y-5.5152
X3.0687Y-5.6152
X3.0687Y-5.7152
X3.0687Y-5.8152
X3.0687Y-5.9152
X3.0687Y-6.0152
X3.0687Y-6.1152
X3.0687Y-6.2152
X3.6687Y-3.2152
X3.6687Y-3.3152
X3.6687Y-3.4152
X3.6687Y-3.5152
X3.6687Y-3.6152
X3.6687Y-3.7152
X3.6687Y-3.8152
X3.6687Y-3.9152
X3.6687Y-4.0152
X3.6687Y-4.1152
X3.6687Y-4.2152
X3.6687Y-4.3152
X3.6687Y-4.4152
X3.6687Y-4.5152
X3.6687Y-4.6152
X3.6687Y-4.7152
X3.6687Y-4.8152
X3.6687Y-4.9152
X3.6687Y-5.0152
X3.6687Y-5.1152
X3.6687Y-5.2152
X3.6687Y-5.3152
X3.6687Y-5.4152
X3.6687Y-5.5152
X3.6687Y-5.6152
X3.6687Y-5.7152
X3.6687Y-5.8152
X3.6687Y-5.9152
X3.6687Y-6.0152
X3.6687Y-6.1152
X3.6687Y-6.2152
X3.8687Y-3.2152
X3.8687Y-3.3152
X3.8687Y-3.4152
X3.8687Y-3.5152
X3.8687Y-3.6152
X3.8687Y-3.7152
X3.8687Y-3.8152
X3.8687Y-3.9152
X3.8687Y-4.0152
X3.8687Y-4.1152
X3.8687Y-4.2152
X3.8687Y-4.3152
X3.8687Y-4.4152
X3.8687Y-4.5152
X3.8687Y-4.6152
X3.8687Y-4.7152
X3.8687Y-4.8152
X3.8687Y-4.9152
X3.8687Y-5.0152
X3.8687Y-5.1152
X3.8687Y-5.2152
X3.8687Y-5.3152
X3.8687Y-5.4152
X3.8687Y-5.5152
X3.8687Y-5.6152
X3.8687Y-5.7152
X3.8687Y-5.8152
X3.8687Y-5.9152
X3.8687Y-6.0152
X3.8687Y-6.1152
X3.8687Y-6.2152
X4.4687Y-3.2152
X4.4687Y-3.3152
X4.4687Y-3.4152
X4.4687Y-3.5152
X4.4687Y-3.6152
X4.4687Y-3.7152
X4.4687Y-3.8152
X4.4687Y-3.9152
X4.4687Y-4.0152
X4.4687Y-4.1152
X4.4687Y-4.2152
X4.4687Y-4.3152
X4.4687Y-4.4152
X4.4687Y-4.5152
X4.4687Y-4.6152
X4.4687Y-4.7152
X4.4687Y-4.8152
X4.4687Y-4.9152
X4.4687Y-5.0152
X4.4687Y-5.1152
X4.4687Y-5.2152
X4.4687Y-5.3152
X4.4687Y-5.4152
X4.4687Y-5.5152
X4.4687Y-5.6152
X4.4687Y-5.7152
X4.4687Y-5.8152
X4.4687Y-5.9152
X4.4687Y-6.0152
X4.4687Y-6.1152
X4.4687Y-6.2152
X4.6687Y-3.2152
X4.6687Y-3.3152
X4.6687Y-3.4152
X4.6687Y-3.5152
X4.6687Y-3.6152
X4.6687Y-3.7152
X4.6687Y-3.8152
X4.6687Y-3.9152
X4.6687Y-4.0152
X4.6687Y-4.1152
X4.6687Y-4.2152
X4.6687Y-4.3152
X4.6687Y-4.4152
X4.6687Y-4.5152
X4.6687Y-4.6152
X4.6687Y-4.7152
X4.6687Y-4.8152
X4.6687Y-4.9152
X4.6687Y-5.0152
X4.6687Y-5.1152
X4.6687Y-5.2152
X4.6687Y-5.3152
X4.6687Y-5.4152
X4.6687Y-5.5152
X4.6687Y-5.6152
X4.6687Y-5.7152
X4.6687Y-5.8152
X4.6687Y-5.9152
X4.6687Y-6.0152
X4.6687Y-6.1152
X4.6687Y-6.2152
X5.2687Y-3.2152
X5.2687Y-3.3152
X5.2687Y-3.4152
X5.2687Y-3.5152
X5.2687Y-3.6152
X5.2687Y-3.7152
X5.2687Y-3.8152
X5.2687Y-3.9152
X5.2687Y-4.0152
X5.2687Y-4.1152
X5.2687Y-4.2152
X5.2687Y-4.3152
X5.2687Y-4.4152
X5.2687Y-4.5152
X5.2687Y-4.6152
X5.2687Y-4.7152
X5.2687Y-4.8152
X5.2687Y-4.9152
X5.2687Y-5.0152
X5.2687Y-5.1152
X5.2687Y-5.2152
X5.2687Y-5.3152
X5.2687Y-5.4152
X5.2687Y-5.5152
X5.2687Y-5.6152
X5.2687Y-5.7152
X5.2687Y-5.8152
X5.2687Y-5.9152
X5.2687Y-6.0152
X5.2687Y-6.1152
X5.2687Y-6.2152
X5.4687Y-3.2152
X5.4687Y-3.3152
X5.4687Y-3.4152
X5.4687Y-3.5152
X5.4687Y-3.6152
X5.4687Y-3.7152
X5.4687Y-3.8152
X5.4687Y-3.9152
X5.4687Y-4.0152
X5.4687Y-4.1152
X5.4687Y-4.2152
X5.4687Y-4.3152
X5.4687Y-4.4152
X5.4687Y-4.5152
X5.4687Y-4.6152
X5.4687Y-4.7152
X5.4687Y-4.8152
X5.4687Y-4.9152
X5.4687Y-5.0152
X5.4687Y-5.1152
X5.4687Y-5.2152
X5.4687Y-5.3152
X5.4687Y-5.4152
X5.4687Y-5.5152
X5.4687Y-5.6152
X5.4687Y-5.7152
X5.4687Y-5.8152
X5.4687Y-5.9152
X5.4687Y-6.0152
X5.4687Y-6.1152
X5.4687Y-6.2152
X6.0687Y-3.2152
X6.0687Y-3.3152
X6.0687Y-3.4152
X6.0687Y-3.5152
X6.0687Y-3.6152
X6.0687Y-3.7152
X6.0687Y-3.8152
X6.0687Y-3.9152
X6.0687Y-4.0152
X6.0687Y-4.1152
X6.0687Y-4.2152
X6.0687Y-4.3152
X6.0687Y-4.4152
X6.0687Y-4.5152
X6.0687Y-4.6152
X6.0687Y-4.7152
X6.0687Y-4.8152
X6.0687Y-4.9152
X6.0687Y-5.0152
X6.0687Y-5.1152
X6.0687Y-5.2152
X6.0687Y-5.3152
X6.0687Y-5.4152
X6.0687Y-5.5152
X6.0687Y-5.6152
X6.0687Y-5.7152
X6.0687Y-5.8152
X6.0687Y-5.9152
X6.0687Y-6.0152
X6.0687Y-6.1152
X6.0687Y-6.2152
X6.2687Y-3.2152
X6.2687Y-3.3152
X6.2687Y-3.4152
X6.2687Y-3.5152
X6.2687Y-3.6152
X6.2687Y-3.7152
X6.2687Y-3.8152
X6.2687Y-3.9152
X6.2687Y-4.0152
X6.2687Y-4.1152
X6.2687Y-4.2152
X6.2687Y-4.3152
X6.2687Y-4.4152
X6.2687Y-4.5152
X6.2687Y-4.6152
X6.2687Y-4.7152
X6.2687Y-4.8152
X6.2687Y-4.9152
X6.2687Y-5.0152
X6.2687Y-5.1152
X6.2687Y-5.2152
X6.2687Y-5.3152
X6.2687Y-5.4152
X6.2687Y-5.5152
X6.2687Y-5.6152
X6.2687Y-5.7152
X6.2687Y-5.8152
X6.2687Y-5.9152
X6.2687Y-6.0152
X6.2687Y-6.1152
X6.2687Y-6.2152
X6.8687Y-3.2152
X6.8687Y-3.3152
X6.8687Y-3.4152
X6.8687Y-3.5152
X6.8687Y-3.6152
X6.8687Y-3.7152
X6.8687Y-3.8152
X6.8687Y-3.9152
X6.8687Y-4.0152
X6.8687Y-4.1152
X6.8687Y-4.2152
X6.8687Y-4.3152
X6.8687Y-4.4152
X6.8687Y-4.5152
X6.8687Y-4.6152
X6.8687Y-4.7152
X6.8687Y-4.8152
X6.8687Y-4.9152
X6.8687Y-5.0152
X6.8687Y-5.1152
X6.8687Y-5.2152
X6.8687Y-5.3152
X6.8687Y-5.4152
X6.8687Y-5.5152
X6.8687Y-5.6152
X6.8687Y-5.7152
X6.8687Y-5.8152
X6.8687Y-5.9152
X6.8687Y-6.0152
X6.8687Y-6.1152
X6.8687Y-6.2152
X7.0687Y-3.2152
X7.0687Y-3.3152
X7.0687Y-3.4152
X7.0687Y-3.5152
X7.0687Y-3.6152
X7.0687Y-3.7152
X7.0687Y-3.8152
X7.0687Y-3.9152
X7.0687Y-4.0152
X7.0687Y-4.1152
X7.0687Y-4.2152
X7.0687Y-4.3152
X7.0687Y-4.4152
X7.0687Y-4.5152
X7.0687Y-4.6152
X7.0687Y-4.7152
X7.0687Y-4.8152
X7.0687Y-4.9152
X7.0687Y-5.0152
X7.0687Y-5.1152
X7.0687Y-5.2152
X7.0687Y-5.3152
X7.0687Y-5.4152
X7.0687Y-5.5152
X7.0687Y-5.6152
X7.0687Y-5.7152
X7.0687Y-5.8152
X7.0687Y-5.9152
X7.0687Y-6.0152
X7.0687Y-6.1152
X7.0687Y-6.2152
T11
X3.5117Y-11.3171
X3.5117Y-11.7171
X3.7557Y-11.3171
X3.7557Y-11.7171
X11.4Y-4.9251
X11.4Y-5.3251
X11.606Y-4.8711
X11.606Y-5.2711
X12.093Y-8.0169
X12.093Y-8.4169
T12
X6.5126Y-11.4302
X6.5126Y-11.6468
X6.678Y-11.4302
X6.678Y-11.6468
X6.8433Y-11.4302
X6.8433Y-11.6468
X7.0087Y-11.4302
X7.0087Y-11.6468
X7.174Y-11.4302
X7.174Y-11.6468
X7.3394Y-11.4302
X7.3394Y-11.6468
X7.5047Y-11.4302
X7.5047Y-11.6468
X7.6701Y-11.4302
X7.6701Y-11.6468
X7.8354Y-11.4302
X7.8354Y-11.6468
X8.0008Y-11.4302
X8.0008Y-11.6468
T13
X9.6205Y-2.4219
X9.8862Y-2.3905
X10.1539Y-2.4219
X10.3466Y-2.42
X10.6123Y-2.3886
X10.88Y-2.42
T14
X3.2677Y-2.6131
X3.2677Y-8.7131
X3.2677Y-11.5631
X4.0677Y-2.6131
X4.0677Y-8.7131
X4.0677Y-11.5631
X5.8677Y-2.6131
X5.8677Y-8.7131
X5.8677Y-11.5631
X12.0677Y-3.5131
X12.0677Y-8.7131
X12.0677Y-11.5631
T4
G00X7.7274Y-2.4472
M15
G01X7.7274Y-2.4235
M16
G05
G00X7.7668Y-2.7818
M15
G01X7.7668Y-2.7582
M16
G05
G00X7.9439Y-2.4472
M15
G01X7.9439Y-2.4235
M16
G05
G00X7.9439Y-2.5653
M15
G01X7.9439Y-2.5417
M16
G05
G00X7.9439Y-2.7228
M15
G01X7.9439Y-2.6991
M16
G05
M30
