M48
; DRILL file {KiCad 9.0.2} date 2025-12-13T22:33:29-0600
; FORMAT={-:-/ absolute / inch / decimal}
; #@! TF.CreationDate,2025-12-13T22:33:29-06:00
; #@! TF.GenerationSoftware,Kicad,Pcbnew,9.0.2
; #@! TF.FileFunction,Plated,1,4,PTH
FMAT,2
INCH
; #@! TA.AperFunction,Plated,PTH,ComponentDrill
T1C0.0118
; #@! TA.AperFunction,Plated,PTH,ViaDrill
T2C0.0157
; #@! TA.AperFunction,Plated,PTH,ComponentDrill
T3C0.0197
; #@! TA.AperFunction,Plated,PTH,ComponentDrill
T4C0.0236
; #@! TA.AperFunction,Plated,PTH,ComponentDrill
T5C0.0295
; #@! TA.AperFunction,Plated,PTH,ComponentDrill
T6C0.0315
; #@! TA.AperFunction,Plated,PTH,ComponentDrill
T7C0.0354
; #@! TA.AperFunction,Plated,PTH,ComponentDrill
T8C0.0354
; #@! TA.AperFunction,Plated,PTH,ComponentDrill
T9C0.0394
; #@! TA.AperFunction,Plated,PTH,ComponentDrill
T10C0.0400
; #@! TA.AperFunction,Plated,PTH,ComponentDrill
T11C0.0433
; #@! TA.AperFunction,Plated,PTH,ComponentDrill
T12C0.0591
; #@! TA.AperFunction,Plated,PTH,ComponentDrill
T13C0.0669
; #@! TA.AperFunction,Plated,PTH,ComponentDrill
T14C0.0905
; #@! TA.AperFunction,Plated,PTH,ComponentDrill
T15C0.1260
%
G90
G05
T1
X10.8964Y-3.15
X10.9436Y-3.15
T2
X2.8475Y-10.8681
X2.8771Y-9.4075
X2.951Y-10.1745
X2.9658Y-5.7251
X3.0Y-6.4464
X3.045Y-6.48
X3.0735Y-7.9336
X3.0873Y-6.2729
X3.0936Y-6.615
X3.1106Y-9.7759
X3.1245Y-9.517
X3.1392Y-8.4183
X3.1399Y-5.6049
X3.1628Y-6.5095
X3.173Y-8.2999
X3.1746Y-9.0163
X3.3525Y-6.334
X3.4136Y-4.2715
X3.44Y-8.9813
X3.44Y-5.5589
X3.5067Y-6.4662
X3.5069Y-4.4716
X3.5565Y-7.699
X3.5863Y-6.7701
X3.6059Y-6.8117
X3.7445Y-5.5326
X3.7508Y-6.2872
X3.8914Y-9.7937
X3.9068Y-10.0485
X3.909Y-5.1542
X3.9256Y-9.123
X3.9294Y-3.8331
X3.9363Y-10.013
X3.9701Y-8.5043
X4.0373Y-9.9405
X4.0413Y-8.4137
X4.064Y-4.0314
X4.0711Y-7.6847
X4.1117Y-8.06
X4.153Y-6.96
X4.2196Y-10.1745
X4.2896Y-8.5361
X4.4433Y-9.1022
X4.4507Y-6.2872
X4.4735Y-8.9059
X4.5541Y-7.8254
X4.5587Y-4.1208
X4.5626Y-6.2728
X4.6Y-8.8774
X4.6093Y-5.6286
X4.7193Y-4.1895
X4.7259Y-7.9261
X4.7611Y-7.7904
X4.7738Y-8.6768
X4.8395Y-5.3524
X4.8544Y-8.0114
X4.8583Y-7.0495
X4.8715Y-6.2043
X4.8901Y-8.2743
X4.9337Y-7.2719
X4.9409Y-7.522
X4.9437Y-6.9057
X4.9443Y-5.442
X4.9675Y-5.2261
X4.9888Y-7.731
X4.9909Y-6.361
X5.0Y-7.4057
X5.0355Y-7.4405
X5.0771Y-4.5293
X5.1259Y-6.3323
X5.1264Y-5.9152
X5.1384Y-4.1346
X5.1459Y-8.7677
X5.1461Y-5.6704
X5.1699Y-8.5705
X5.2176Y-10.1757
X5.3022Y-6.7758
X5.3101Y-9.38
X5.3387Y-9.5632
X5.3455Y-8.4294
X5.3455Y-8.8628
X5.3706Y-9.1373
X5.3878Y-9.5603
X5.4603Y-9.0683
X5.4813Y-9.2033
X5.4861Y-8.3572
X5.5365Y-6.1857
X5.5511Y-4.1203
X5.5553Y-8.1886
X5.567Y-8.3557
X5.567Y-8.9049
X5.581Y-5.585
X5.5952Y-6.1551
X5.6083Y-8.2215
X5.6125Y-8.1565
X5.6225Y-5.3322
X5.6405Y-6.8802
X5.6406Y-6.9206
X5.6905Y-9.67
X5.7176Y-6.9701
X5.7401Y-9.157
X5.778Y-7.7563
X5.8143Y-5.4147
X5.8791Y-5.8085
X5.8986Y-7.3701
X5.9163Y-7.4666
X5.9212Y-9.7717
X5.9329Y-7.1933
X5.9341Y-7.7201
X5.9473Y-5.6301
X5.9492Y-9.6958
X5.9681Y-6.0651
X5.9996Y-7.8758
X6.0054Y-8.8056
X6.0381Y-9.0861
X6.0661Y-9.5412
X6.0863Y-7.6713
X6.0948Y-9.7407
X6.0972Y-5.7661
X6.1129Y-8.9233
X6.1129Y-9.3529
X6.2114Y-6.4879
X6.2233Y-7.7552
X6.26Y-6.7236
X6.2737Y-9.75
X6.2884Y-7.7671
X6.3237Y-7.6393
X6.3278Y-8.27
X6.3331Y-5.4196
X6.3426Y-8.3867
X6.3543Y-8.4261
X6.3557Y-8.64
X6.3663Y-8.8455
X6.37Y-7.7417
X6.377Y-9.1789
X6.3798Y-9.8604
X6.398Y-9.0944
X6.4112Y-9.2891
X6.4193Y-9.2299
X6.4201Y-9.8574
X6.4206Y-6.0505
X6.4395Y-7.5734
X6.4412Y-11.5581
X6.4479Y-7.8287
X6.4646Y-8.7584
X6.4824Y-8.9782
X6.4868Y-7.65
X6.4907Y-7.7116
X6.4959Y-7.4702
X6.4984Y-5.6626
X6.5016Y-8.0825
X6.5043Y-9.8583
X6.5248Y-7.6831
X6.5257Y-7.9458
X6.5297Y-9.1193
X6.5355Y-8.19
X6.5382Y-9.812
X6.5405Y-9.4266
X6.542Y-6.4761
X6.5523Y-9.466
X6.5532Y-8.1199
X6.5589Y-7.7461
X6.5681Y-7.8741
X6.6142Y-9.5465
X6.6192Y-7.8443
X6.6213Y-8.0185
X6.6295Y-8.3701
X6.6295Y-9.04
X6.637Y-7.6307
X6.6575Y-8.0882
X6.6693Y-9.5078
X6.6748Y-8.27
X6.6754Y-7.6124
X6.6808Y-9.0068
X6.7094Y-8.437
X6.7219Y-8.6149
X6.7235Y-8.3347
X6.7293Y-7.9688
X6.7313Y-9.5753
X6.736Y-8.2755
X6.7385Y-9.2299
X6.7487Y-8.8325
X6.7598Y-9.8717
X6.7717Y-10.4202
X6.7819Y-6.9504
X6.7885Y-9.7926
X6.8221Y-6.8335
X6.8405Y-6.7948
X6.8853Y-8.6351
X6.8901Y-6.8259
X6.9236Y-9.4437
X6.9236Y-9.6527
X6.9454Y-8.5911
X6.9481Y-6.4583
X6.9686Y-8.273
X6.9827Y-8.1627
X6.9862Y-7.8747
X6.9953Y-9.7551
X7.02Y-9.9252
X7.0215Y-8.011
X7.0355Y-8.5308
X7.0766Y-8.6672
X7.0876Y-8.1882
X7.0978Y-8.4432
X7.1009Y-10.3285
X7.1294Y-10.2164
X7.1551Y-8.6886
X7.1864Y-8.817
X7.1984Y-8.975
X7.2013Y-8.4908
X7.207Y-8.9217
X7.2094Y-8.0534
X7.221Y-7.7995
X7.2385Y-8.3349
X7.2403Y-6.1756
X7.2478Y-9.364
X7.2535Y-7.2892
X7.2625Y-9.4954
X7.2784Y-7.9722
X7.2797Y-8.1127
X7.2873Y-4.1339
X7.31Y-7.7129
X7.3382Y-4.6822
X7.3846Y-7.9715
X7.3903Y-10.1562
X7.3977Y-8.2096
X7.4132Y-7.886
X7.4421Y-7.6562
X7.4768Y-5.3431
X7.4874Y-8.2024
X7.5007Y-7.8562
X7.5071Y-8.2398
X7.5454Y-8.1188
X7.6004Y-8.6792
X7.6005Y-10.0418
X7.6006Y-8.1813
X7.6033Y-6.9966
X7.6157Y-9.7335
X7.6281Y-8.0258
X7.6507Y-10.6468
X7.7041Y-4.0135
X7.7047Y-9.7221
X7.7226Y-6.1964
X7.7357Y-7.2031
X7.7401Y-7.7414
X7.7416Y-9.972
X7.7667Y-10.2164
X7.7736Y-11.0613
X7.81Y-10.2134
X7.8101Y-9.2623
X7.8119Y-6.4425
X7.824Y-9.7321
X7.8408Y-8.8929
X7.8615Y-8.5886
X7.8645Y-5.91
X7.9Y-8.3801
X7.9Y-9.1925
X7.9287Y-9.587
X7.9582Y-9.1841
X8.0Y-8.1525
X8.0058Y-8.6792
X8.0058Y-9.0962
X8.05Y-6.3548
X8.0522Y-6.4647
X8.0573Y-9.6387
X8.0588Y-9.5076
X8.1004Y-6.4938
X8.1264Y-9.6414
X8.1369Y-9.918
X8.1371Y-8.1358
X8.1371Y-8.1988
X8.1393Y-6.7236
X8.1564Y-9.563
X8.1903Y-6.4652
X8.1938Y-5.2795
X8.2132Y-6.2141
X8.243Y-7.8224
X8.2438Y-9.3197
X8.2831Y-9.4726
X8.2862Y-8.4617
X8.3059Y-8.0956
X8.3153Y-7.1031
X8.3158Y-8.3808
X8.3185Y-7.9908
X8.3196Y-5.0643
X8.3272Y-7.9227
X8.3325Y-7.8402
X8.3462Y-5.2838
X8.3499Y-6.8586
X8.3568Y-8.371
X8.3649Y-5.4416
X8.3746Y-7.7946
X8.3759Y-6.7781
X8.4293Y-8.3812
X8.4293Y-8.47
X8.4727Y-8.9255
X8.4846Y-6.2442
X8.4928Y-7.9063
X8.5037Y-11.1366
X8.5075Y-6.562
X8.5298Y-10.2336
X8.5328Y-7.9175
X8.5471Y-8.0021
X8.5614Y-8.6759
X8.5661Y-6.6683
X8.5682Y-8.2395
X8.5748Y-9.6429
X8.5801Y-8.571
X8.585Y-9.0917
X8.6111Y-9.9941
X8.6138Y-8.75
X8.6352Y-7.856
X8.6432Y-4.9577
X8.6718Y-8.7864
X8.6718Y-9.0723
X8.6893Y-4.1723
X8.6904Y-6.5913
X8.7078Y-8.5893
X8.7133Y-8.3327
X8.7442Y-9.1788
X8.7491Y-8.2163
X8.7527Y-8.3378
X8.7581Y-9.2763
X8.8Y-6.3096
X8.8041Y-4.0134
X8.8076Y-9.9797
X8.8369Y-10.297
X8.8629Y-7.8477
X8.9355Y-6.7924
X8.941Y-8.2523
X8.9622Y-8.9097
X8.974Y-9.1581
X8.9837Y-7.3258
X8.9898Y-8.77
X9.0016Y-8.9034
X9.0084Y-7.4879
X9.0098Y-4.76
X9.0104Y-7.83
X9.0362Y-8.5836
X9.0478Y-8.6238
X9.0507Y-6.1673
X9.06Y-9.3694
X9.0766Y-8.585
X9.0766Y-9.27
X9.0812Y-8.2878
X9.1036Y-6.6741
X9.1054Y-9.6115
X9.1283Y-8.9165
X9.1512Y-10.032
X9.1516Y-6.8857
X9.2366Y-6.8268
X9.241Y-10.5298
X9.2565Y-10.0434
X9.2706Y-9.5643
X9.2718Y-9.1215
X9.2743Y-6.1516
X9.28Y-11.0226
X9.2925Y-7.9001
X9.2964Y-8.5231
X9.2964Y-8.9253
X9.3042Y-7.4078
X9.3149Y-5.6595
X9.32Y-8.8623
X9.3245Y-8.222
X9.3328Y-8.5948
X9.3332Y-8.9441
X9.3489Y-9.349
X9.3509Y-9.9995
X9.3551Y-8.1256
X9.3551Y-8.3617
X9.3561Y-3.3217
X9.3665Y-9.2528
X9.3726Y-8.9453
X9.38Y-5.0096
X9.39Y-8.3233
X9.4334Y-7.8498
X9.4613Y-9.8818
X9.4812Y-7.3904
X9.4812Y-7.9001
X9.5Y-4.81
X9.5098Y-7.6562
X9.5131Y-5.4811
X9.5387Y-7.8546
X9.5567Y-8.9236
X9.5577Y-7.6615
X9.5579Y-10.8489
X9.5638Y-8.9768
X9.5698Y-7.6146
X9.5715Y-9.2954
X9.5741Y-9.5309
X9.6209Y-9.0477
X9.6228Y-8.3268
X9.6244Y-7.8832
X9.6256Y-5.3093
X9.6539Y-7.7938
X9.6549Y-7.9126
X9.6549Y-8.1694
X9.6691Y-9.4782
X9.6779Y-8.8143
X9.6786Y-6.2751
X9.7367Y-9.0277
X9.7426Y-5.71
X9.7455Y-10.3971
X9.7795Y-8.0333
X9.7918Y-5.4653
X9.8094Y-9.673
X9.8101Y-9.8265
X9.8507Y-5.2418
X9.8528Y-5.1209
X9.8596Y-6.7614
X9.8605Y-9.7523
X9.9238Y-5.8175
X9.9294Y-7.7118
X9.9405Y-6.7437
X9.9586Y-5.1203
X10.0038Y-8.38
X10.0069Y-10.205
X10.0202Y-8.7246
X10.0761Y-8.5098
X10.0816Y-10.9111
X10.1101Y-9.0335
X10.1187Y-8.5977
X10.1392Y-8.8852
X10.1409Y-8.2593
X10.1797Y-10.8934
X10.2037Y-10.2336
X10.24Y-10.4256
X10.2709Y-10.0839
X10.2858Y-9.0976
X10.2866Y-11.2263
X10.34Y-8.7246
X10.341Y-10.914
X10.37Y-2.75
X10.3723Y-10.4611
X10.4096Y-8.3054
X10.4254Y-4.5818
X10.4412Y-7.0057
X10.4857Y-10.6344
X10.492Y-9.5966
X10.4965Y-10.778
X10.498Y-9.5324
X10.5039Y-4.5778
X10.5039Y-5.66
X10.55Y-10.8047
X10.5603Y-8.9738
X10.5858Y-7.2057
X10.5949Y-9.0033
X10.6083Y-5.9854
X10.6691Y-10.8658
X10.6737Y-6.9012
X10.6957Y-9.0335
X10.7032Y-10.5978
X10.7173Y-10.6383
X10.7428Y-10.0439
X10.7513Y-9.1472
X10.753Y-9.2966
X10.7611Y-9.7756
X10.7733Y-8.0608
X10.7837Y-11.0216
X10.79Y-6.9461
X10.8267Y-10.4242
X10.8277Y-3.5582
X10.8326Y-9.7407
X10.8796Y-3.6046
X10.9132Y-4.8684
X10.927Y-11.3622
X10.9662Y-9.5576
X11.0009Y-8.8253
X11.0508Y-9.9583
X11.0566Y-10.8383
X11.1046Y-11.0031
X11.1492Y-8.2781
X11.2242Y-8.2567
X11.2579Y-7.4847
X11.2865Y-9.0948
X11.3073Y-7.28
X11.3874Y-9.6466
X11.4142Y-10.6189
X11.44Y-5.3632
X11.4725Y-11.4635
X11.4778Y-4.4441
X11.56Y-5.2819
X11.5718Y-8.8786
X11.5788Y-11.4222
X11.6193Y-8.3842
X11.6238Y-8.5466
X11.6944Y-2.9172
X11.797Y-6.38
X11.9425Y-4.5991
X12.04Y-7.1357
X12.1624Y-9.2209
X12.2485Y-8.9563
T3
X10.8036Y-4.8647
X10.8036Y-4.9238
T5
X3.5Y-11.02
X3.55Y-10.97
X3.6Y-11.02
T6
X2.8998Y-6.6666
X2.8998Y-6.7666
X2.8998Y-6.8666
X2.8998Y-6.9666
X2.8998Y-7.0666
X2.8998Y-7.1666
X2.8998Y-7.2666
X2.94Y-7.73
X2.94Y-7.83
X2.94Y-7.93
X2.94Y-8.03
X2.94Y-8.13
X2.94Y-8.23
X2.94Y-8.33
X2.9757Y-11.4129
X2.9757Y-11.7129
X3.1998Y-6.6666
X3.1998Y-6.7666
X3.1998Y-6.8666
X3.1998Y-6.9666
X3.1998Y-7.0666
X3.1998Y-7.1666
X3.1998Y-7.2666
X3.24Y-7.73
X3.24Y-7.83
X3.24Y-7.93
X3.24Y-8.03
X3.24Y-8.13
X3.24Y-8.23
X3.24Y-8.33
X3.2625Y-6.4012
X3.2883Y-4.6562
X3.3331Y-6.66
X3.3431Y-7.55
X3.3867Y-4.6562
X3.4109Y-3.2287
X3.4109Y-3.5287
X3.44Y-5.025
X3.44Y-5.325
X3.4594Y-6.4012
X3.5Y-7.86
X3.5Y-7.96
X3.5Y-8.06
X3.5Y-8.16
X3.5Y-8.26
X3.5Y-8.36
X3.5Y-8.46
X3.5Y-8.56
X3.5Y-8.66
X3.5Y-8.76
X3.53Y-6.66
X3.53Y-9.33
X3.53Y-9.43
X3.53Y-9.53
X3.53Y-9.63
X3.53Y-9.73
X3.53Y-9.83
X3.53Y-9.93
X3.53Y-10.03
X3.53Y-10.13
X3.53Y-10.23
X3.54Y-7.55
X3.5531Y-9.04
X3.5618Y-10.5109
X3.73Y-6.66
X3.73Y-6.76
X3.73Y-6.86
X3.73Y-6.96
X3.73Y-7.06
X3.73Y-7.16
X3.73Y-7.26
X3.73Y-7.36
X3.73Y-7.46
X3.73Y-7.56
X3.75Y-9.04
X3.7587Y-10.5109
X3.8Y-7.86
X3.8Y-7.96
X3.8Y-8.06
X3.8Y-8.16
X3.8Y-8.26
X3.8Y-8.36
X3.8Y-8.46
X3.8Y-8.56
X3.8Y-8.66
X3.8Y-8.76
X3.83Y-9.33
X3.83Y-9.43
X3.83Y-9.53
X3.83Y-9.63
X3.83Y-9.73
X3.83Y-9.83
X3.83Y-9.93
X3.83Y-10.03
X3.83Y-10.13
X3.83Y-10.23
X3.889Y-10.815
X3.889Y-11.115
X3.9818Y-7.8609
X4.03Y-6.66
X4.03Y-6.76
X4.03Y-6.86
X4.03Y-6.96
X4.03Y-7.06
X4.03Y-7.16
X4.03Y-7.26
X4.03Y-7.36
X4.03Y-7.46
X4.03Y-7.56
X4.0525Y-6.3792
X4.1075Y-4.6562
X4.1787Y-7.8609
X4.19Y-4.03
X4.19Y-4.33
X4.19Y-9.29
X4.199Y-10.803
X4.199Y-11.103
X4.2059Y-4.6562
X4.2494Y-6.3792
X4.29Y-9.29
X4.2916Y-11.316
X4.36Y-7.86
X4.36Y-7.96
X4.36Y-8.06
X4.36Y-8.16
X4.36Y-8.26
X4.36Y-8.36
X4.36Y-8.46
X4.36Y-8.56
X4.36Y-8.66
X4.36Y-8.76
X4.39Y-9.29
X4.39Y-11.316
X4.41Y-6.65
X4.41Y-6.75
X4.41Y-6.85
X4.41Y-6.95
X4.41Y-7.05
X4.41Y-7.15
X4.41Y-7.25
X4.41Y-7.35
X4.41Y-7.45
X4.41Y-7.55
X4.4416Y-10.96
X4.49Y-9.29
X4.54Y-10.96
X4.59Y-9.29
X4.64Y-10.38
X4.6437Y-11.3352
X4.6437Y-11.6352
X4.66Y-7.86
X4.66Y-7.96
X4.66Y-8.06
X4.66Y-8.16
X4.66Y-8.26
X4.66Y-8.36
X4.66Y-8.46
X4.66Y-8.56
X4.66Y-8.66
X4.66Y-8.76
X4.69Y-9.29
X4.71Y-6.65
X4.71Y-6.75
X4.71Y-6.85
X4.71Y-6.95
X4.71Y-7.05
X4.71Y-7.15
X4.71Y-7.25
X4.71Y-7.35
X4.71Y-7.45
X4.71Y-7.55
X4.7437Y-11.3352
X4.7437Y-11.6352
X4.76Y-10.78
X4.76Y-11.08
X4.79Y-9.29
X4.8437Y-11.3352
X4.8437Y-11.6352
X4.8527Y-6.3382
X4.86Y-10.78
X4.86Y-11.08
X4.89Y-9.29
X4.8934Y-7.76
X4.9335Y-4.6562
X4.94Y-8.03
X4.94Y-8.13
X4.94Y-8.23
X4.94Y-8.33
X4.94Y-8.43
X4.94Y-8.53
X4.94Y-8.63
X4.94Y-8.73
X4.94Y-8.83
X4.94Y-8.93
X4.94Y-10.38
X4.9437Y-11.3352
X4.9437Y-11.6352
X4.96Y-10.78
X4.96Y-11.08
X4.99Y-9.29
X5.0009Y-4.0287
X5.0009Y-4.3287
X5.0319Y-4.6562
X5.0437Y-11.3352
X5.0437Y-11.6352
X5.0496Y-6.3382
X5.06Y-10.78
X5.06Y-11.08
X5.0902Y-7.76
X5.13Y-9.69
X5.1437Y-11.3352
X5.1437Y-11.6352
X5.16Y-10.78
X5.16Y-11.08
X5.1823Y-6.5953
X5.2331Y-6.8201
X5.2331Y-6.9201
X5.2331Y-7.0201
X5.2331Y-7.1201
X5.2331Y-7.2201
X5.2331Y-7.3201
X5.2331Y-7.4201
X5.2331Y-7.5201
X5.2331Y-7.6201
X5.2331Y-7.7201
X5.24Y-8.03
X5.24Y-8.13
X5.24Y-8.23
X5.24Y-8.33
X5.24Y-8.43
X5.24Y-8.53
X5.24Y-8.63
X5.24Y-8.73
X5.24Y-8.83
X5.24Y-8.93
X5.2437Y-11.3352
X5.2437Y-11.6352
X5.26Y-10.78
X5.26Y-11.08
X5.36Y-10.78
X5.36Y-11.08
X5.3791Y-6.5953
X5.43Y-9.69
X5.5331Y-6.8201
X5.5331Y-6.9201
X5.5331Y-7.0201
X5.5331Y-7.1201
X5.5331Y-7.2201
X5.5331Y-7.3201
X5.5331Y-7.4201
X5.5331Y-7.5201
X5.5331Y-7.6201
X5.5331Y-7.7201
X5.54Y-10.34
X5.54Y-10.5369
X5.56Y-6.59
X5.5925Y-6.3432
X5.64Y-8.04
X5.64Y-8.34
X5.66Y-6.59
X5.6902Y-7.5512
X5.6902Y-7.748
X5.7Y-9.92
X5.7Y-10.02
X5.7Y-10.12
X5.7Y-10.22
X5.7Y-10.32
X5.7Y-10.42
X5.7Y-10.52
X5.7127Y-4.6562
X5.76Y-6.59
X5.7894Y-6.3432
X5.8006Y-8.04
X5.8006Y-8.34
X5.8112Y-4.6562
X5.8386Y-6.8169
X5.8386Y-6.9169
X5.8386Y-7.0169
X5.8386Y-7.1169
X5.8386Y-7.2169
X5.8386Y-7.3169
X5.8386Y-7.4169
X5.8386Y-7.5169
X5.8386Y-7.6169
X5.8386Y-7.7169
X5.86Y-6.59
X5.96Y-6.59
X5.96Y-8.04
X5.96Y-8.34
X6.0Y-9.92
X6.0Y-10.02
X6.0Y-10.12
X6.0Y-10.22
X6.0Y-10.32
X6.0Y-10.42
X6.0Y-10.52
X6.06Y-6.59
X6.1386Y-6.8169
X6.1386Y-6.9169
X6.1386Y-7.0169
X6.1386Y-7.1169
X6.1386Y-7.2169
X6.1386Y-7.3169
X6.1386Y-7.4169
X6.1386Y-7.5169
X6.1386Y-7.6169
X6.1386Y-7.7169
X6.16Y-6.59
X6.16Y-9.75
X6.1713Y-10.9509
X6.21Y-7.99
X6.21Y-8.09
X6.21Y-8.19
X6.21Y-8.29
X6.21Y-8.39
X6.21Y-8.49
X6.21Y-8.59
X6.21Y-8.69
X6.21Y-8.79
X6.21Y-8.89
X6.21Y-8.99
X6.21Y-9.09
X6.21Y-9.19
X6.21Y-9.29
X6.21Y-9.39
X6.21Y-9.49
X6.26Y-6.59
X6.26Y-10.09
X6.26Y-10.19
X6.26Y-10.29
X6.26Y-10.39
X6.26Y-10.49
X6.26Y-10.59
X6.3307Y-6.8165
X6.3307Y-6.9165
X6.3307Y-7.0165
X6.3307Y-7.1165
X6.3307Y-7.2165
X6.3307Y-7.3165
X6.3307Y-7.4165
X6.3307Y-7.5165
X6.36Y-6.59
X6.36Y-9.99
X6.36Y-10.09
X6.36Y-10.19
X6.36Y-10.29
X6.36Y-10.39
X6.36Y-10.49
X6.36Y-10.59
X6.36Y-10.69
X6.46Y-6.59
X6.46Y-9.75
X6.46Y-9.99
X6.46Y-10.09
X6.46Y-10.59
X6.46Y-10.69
X6.4713Y-10.9509
X6.5046Y-4.667
X6.5285Y-6.3752
X6.56Y-9.99
X6.56Y-10.09
X6.56Y-10.59
X6.56Y-10.69
X6.603Y-4.667
X6.63Y-6.59
X6.6307Y-6.8165
X6.6307Y-6.9165
X6.6307Y-7.0165
X6.6307Y-7.1165
X6.6307Y-7.2165
X6.6307Y-7.3165
X6.6307Y-7.4165
X6.6307Y-7.5165
X6.66Y-9.99
X6.66Y-10.09
X6.66Y-10.59
X6.66Y-10.69
X6.7254Y-6.3752
X6.73Y-6.59
X6.76Y-9.99
X6.76Y-10.09
X6.76Y-10.59
X6.76Y-10.69
X6.81Y-7.04
X6.81Y-7.14
X6.81Y-7.24
X6.81Y-7.34
X6.81Y-7.44
X6.81Y-7.54
X6.81Y-7.64
X6.81Y-7.74
X6.81Y-7.99
X6.81Y-8.09
X6.81Y-8.19
X6.81Y-8.29
X6.81Y-8.39
X6.81Y-8.49
X6.81Y-8.59
X6.81Y-8.69
X6.81Y-8.79
X6.81Y-8.89
X6.81Y-8.99
X6.81Y-9.09
X6.81Y-9.19
X6.81Y-9.29
X6.81Y-9.39
X6.81Y-9.49
X6.83Y-6.59
X6.8531Y-9.78
X6.86Y-9.99
X6.86Y-10.09
X6.86Y-10.19
X6.86Y-10.29
X6.86Y-10.39
X6.86Y-10.49
X6.86Y-10.59
X6.86Y-10.69
X6.93Y-6.59
X6.96Y-10.09
X6.96Y-10.19
X6.96Y-10.29
X6.96Y-10.39
X6.96Y-10.49
X6.96Y-10.59
X6.9631Y-7.99
X7.03Y-6.59
X7.05Y-9.78
X7.11Y-7.04
X7.11Y-7.14
X7.11Y-7.24
X7.11Y-7.34
X7.11Y-7.44
X7.11Y-7.54
X7.11Y-7.64
X7.11Y-7.74
X7.13Y-6.59
X7.16Y-7.99
X7.1718Y-6.8609
X7.23Y-6.59
X7.251Y-6.376
X7.3Y-8.55
X7.3Y-8.65
X7.3Y-8.75
X7.3Y-8.85
X7.3Y-8.95
X7.3Y-9.05
X7.3Y-9.15
X7.3Y-9.25
X7.3Y-9.35
X7.33Y-6.59
X7.3687Y-6.8609
X7.37Y-7.05
X7.37Y-7.15
X7.37Y-7.25
X7.37Y-7.35
X7.37Y-7.45
X7.37Y-7.55
X7.37Y-7.65
X7.4Y-8.45
X7.4Y-8.55
X7.4Y-8.65
X7.4Y-8.75
X7.4Y-8.85
X7.4Y-8.95
X7.4Y-9.05
X7.4Y-9.15
X7.4Y-9.25
X7.4Y-9.35
X7.4Y-9.45
X7.43Y-6.59
X7.4479Y-6.376
X7.5Y-8.45
X7.5Y-8.55
X7.5Y-9.35
X7.5Y-9.45
X7.5031Y-5.18
X7.53Y-6.59
X7.5318Y-7.9909
X7.6Y-8.45
X7.6Y-8.55
X7.6Y-9.35
X7.6Y-9.45
X7.66Y-9.82
X7.66Y-10.12
X7.67Y-7.05
X7.67Y-7.15
X7.67Y-7.25
X7.67Y-7.35
X7.67Y-7.45
X7.67Y-7.55
X7.67Y-7.65
X7.68Y-5.31
X7.68Y-5.41
X7.68Y-5.51
X7.68Y-5.61
X7.68Y-5.71
X7.68Y-5.81
X7.68Y-5.91
X7.68Y-6.01
X7.6963Y-6.86
X7.7Y-5.18
X7.7Y-6.29
X7.7Y-6.59
X7.7Y-8.45
X7.7Y-8.55
X7.7Y-9.35
X7.7Y-9.45
X7.7287Y-7.9909
X7.76Y-9.82
X7.76Y-10.12
X7.8Y-6.29
X7.8Y-6.59
X7.8Y-8.45
X7.8Y-8.55
X7.8Y-9.35
X7.8Y-9.45
X7.86Y-9.82
X7.86Y-10.12
X7.8931Y-6.86
X7.9Y-6.29
X7.9Y-6.59
X7.9Y-8.45
X7.9Y-8.55
X7.9Y-9.35
X7.9Y-9.45
X7.9016Y-4.1
X7.9016Y-4.2
X7.9016Y-4.3
X7.91Y-3.53
X7.91Y-3.63
X7.91Y-3.73
X7.936Y-7.05
X7.936Y-7.15
X7.936Y-7.25
X7.936Y-7.35
X7.936Y-7.45
X7.936Y-7.55
X7.936Y-7.65
X7.96Y-9.82
X7.96Y-10.12
X7.98Y-5.31
X7.98Y-5.41
X7.98Y-5.51
X7.98Y-5.61
X7.98Y-5.71
X7.98Y-5.81
X7.98Y-5.91
X7.98Y-6.01
X8.0Y-6.29
X8.0Y-6.59
X8.0Y-8.45
X8.0Y-8.55
X8.0Y-9.35
X8.0Y-9.45
X8.06Y-9.82
X8.06Y-10.12
X8.1Y-6.29
X8.1Y-6.59
X8.1Y-8.45
X8.1Y-8.55
X8.1Y-9.35
X8.1Y-9.45
X8.1031Y-6.07
X8.16Y-9.82
X8.16Y-10.12
X8.1616Y-5.01
X8.1616Y-5.37
X8.1616Y-5.73
X8.1716Y-4.65
X8.2Y-6.29
X8.2Y-6.59
X8.2Y-8.45
X8.2Y-8.55
X8.2Y-8.65
X8.2Y-8.75
X8.2Y-8.85
X8.2Y-8.95
X8.2Y-9.05
X8.2Y-9.15
X8.2Y-9.25
X8.2Y-9.35
X8.2Y-9.45
X8.236Y-7.05
X8.236Y-7.15
X8.236Y-7.25
X8.236Y-7.35
X8.236Y-7.45
X8.236Y-7.55
X8.236Y-7.65
X8.26Y-5.01
X8.26Y-5.37
X8.26Y-5.73
X8.26Y-9.82
X8.26Y-10.12
X8.2616Y-3.36
X8.2616Y-3.75
X8.27Y-4.65
X8.2716Y-4.11
X8.2918Y-6.8609
X8.3Y-6.07
X8.3Y-6.29
X8.3Y-6.59
X8.3Y-8.55
X8.3Y-8.65
X8.3Y-8.75
X8.3Y-8.85
X8.3Y-8.95
X8.3Y-9.05
X8.3Y-9.15
X8.3Y-9.25
X8.3Y-9.35
X8.36Y-3.36
X8.36Y-3.75
X8.37Y-4.11
X8.39Y-8.17
X8.4Y-5.56
X8.4Y-5.73
X8.4Y-5.9
X8.4Y-6.08
X8.4Y-6.29
X8.4Y-6.59
X8.4Y-7.92
X8.41Y-5.01
X8.41Y-5.2
X8.41Y-5.38
X8.4887Y-6.8609
X8.502Y-7.05
X8.502Y-7.15
X8.502Y-7.25
X8.502Y-7.35
X8.502Y-7.45
X8.502Y-7.55
X8.502Y-7.65
X8.5231Y-9.85
X8.57Y-3.66
X8.57Y-3.76
X8.57Y-3.86
X8.57Y-3.96
X8.57Y-4.06
X8.57Y-4.16
X8.57Y-4.26
X8.57Y-4.36
X8.5716Y-3.35
X8.6409Y-9.2187
X8.6409Y-9.5187
X8.67Y-3.35
X8.69Y-8.17
X8.7Y-5.56
X8.7Y-5.73
X8.7Y-5.9
X8.7Y-6.08
X8.7Y-7.92
X8.71Y-5.01
X8.71Y-5.2
X8.71Y-5.38
X8.72Y-9.85
X8.802Y-7.05
X8.802Y-7.15
X8.802Y-7.25
X8.802Y-7.35
X8.802Y-7.45
X8.802Y-7.55
X8.802Y-7.65
X8.8119Y-10.395
X8.8316Y-3.34
X8.85Y-8.07
X8.85Y-8.17
X8.85Y-8.27
X8.85Y-8.37
X8.85Y-8.47
X8.85Y-8.57
X8.85Y-8.67
X8.85Y-8.77
X8.85Y-8.87
X8.85Y-8.97
X8.85Y-9.07
X8.85Y-9.17
X8.85Y-9.27
X8.85Y-9.37
X8.85Y-9.47
X8.85Y-9.57
X8.851Y-6.86
X8.8531Y-6.38
X8.87Y-3.66
X8.87Y-3.76
X8.87Y-3.86
X8.87Y-3.96
X8.87Y-4.06
X8.87Y-4.16
X8.87Y-4.26
X8.87Y-4.36
X8.87Y-4.66
X8.87Y-4.76
X8.87Y-4.86
X8.87Y-4.96
X8.87Y-5.06
X8.87Y-5.16
X8.87Y-5.26
X8.88Y-5.51
X8.88Y-5.61
X8.88Y-5.71
X8.88Y-5.81
X8.88Y-5.91
X8.88Y-6.01
X8.88Y-6.11
X8.9009Y-9.8013
X8.9009Y-10.1013
X8.9119Y-10.395
X8.93Y-3.34
X9.0009Y-9.8013
X9.0009Y-10.1013
X9.0119Y-10.395
X9.0479Y-6.86
X9.05Y-6.38
X9.068Y-7.05
X9.068Y-7.15
X9.068Y-7.25
X9.068Y-7.35
X9.068Y-7.45
X9.068Y-7.55
X9.068Y-7.65
X9.1009Y-9.8013
X9.1009Y-10.1013
X9.1067Y-4.0897
X9.1116Y-3.34
X9.1116Y-3.73
X9.1119Y-10.395
X9.17Y-4.66
X9.17Y-4.76
X9.17Y-4.86
X9.17Y-4.96
X9.17Y-5.06
X9.17Y-5.16
X9.17Y-5.26
X9.1731Y-4.53
X9.18Y-5.51
X9.18Y-5.61
X9.18Y-5.71
X9.18Y-5.81
X9.18Y-5.91
X9.18Y-6.01
X9.18Y-6.11
X9.2009Y-9.8013
X9.2009Y-10.1013
X9.2052Y-4.0897
X9.21Y-3.34
X9.21Y-3.73
X9.2113Y-10.8809
X9.2119Y-10.395
X9.3009Y-9.8013
X9.3009Y-10.1013
X9.3119Y-10.395
X9.368Y-7.05
X9.368Y-7.15
X9.368Y-7.25
X9.368Y-7.35
X9.368Y-7.45
X9.368Y-7.55
X9.368Y-7.65
X9.37Y-4.53
X9.4009Y-9.8013
X9.4009Y-10.1013
X9.4116Y-3.34
X9.4119Y-10.395
X9.42Y-3.66
X9.42Y-3.76
X9.42Y-3.86
X9.42Y-3.96
X9.42Y-4.06
X9.42Y-4.16
X9.42Y-4.26
X9.42Y-4.36
X9.4284Y-6.86
X9.44Y-4.66
X9.44Y-4.76
X9.44Y-4.86
X9.44Y-4.96
X9.44Y-5.06
X9.44Y-5.16
X9.44Y-5.26
X9.44Y-5.36
X9.44Y-5.46
X9.44Y-5.56
X9.44Y-5.66
X9.44Y-5.76
X9.44Y-5.86
X9.44Y-5.96
X9.44Y-6.06
X9.44Y-6.16
X9.44Y-6.26
X9.44Y-6.36
X9.44Y-6.46
X9.44Y-6.56
X9.45Y-8.07
X9.45Y-8.17
X9.45Y-8.27
X9.45Y-8.37
X9.45Y-8.47
X9.45Y-8.57
X9.45Y-8.67
X9.45Y-8.77
X9.45Y-8.87
X9.45Y-8.97
X9.45Y-9.07
X9.45Y-9.17
X9.45Y-9.27
X9.45Y-9.37
X9.45Y-9.47
X9.45Y-9.57
X9.5009Y-9.8013
X9.5009Y-10.1013
X9.51Y-3.34
X9.5113Y-10.8809
X9.5119Y-10.395
X9.6009Y-9.8013
X9.6009Y-10.1013
X9.6018Y-7.9709
X9.6119Y-10.395
X9.6253Y-6.86
X9.634Y-7.05
X9.634Y-7.15
X9.634Y-7.25
X9.634Y-7.35
X9.634Y-7.45
X9.634Y-7.55
X9.634Y-7.65
X9.7067Y-3.3397
X9.72Y-3.66
X9.72Y-3.76
X9.72Y-3.86
X9.72Y-3.96
X9.72Y-4.06
X9.72Y-4.16
X9.72Y-4.26
X9.72Y-4.36
X9.74Y-9.4
X9.74Y-9.5969
X9.75Y-9.9131
X9.75Y-10.11
X9.7987Y-7.9709
X9.8052Y-3.3397
X9.8631Y-4.53
X9.93Y-7.98
X9.93Y-8.08
X9.93Y-8.18
X9.93Y-8.28
X9.93Y-8.38
X9.93Y-8.48
X9.93Y-8.58
X9.93Y-8.68
X9.93Y-8.78
X9.93Y-8.88
X9.93Y-9.2
X9.93Y-9.3
X9.93Y-9.4
X9.93Y-9.5
X9.93Y-9.6
X9.93Y-9.7
X9.93Y-9.8
X9.93Y-9.9
X9.934Y-7.05
X9.934Y-7.15
X9.934Y-7.25
X9.934Y-7.35
X9.934Y-7.45
X9.934Y-7.55
X9.934Y-7.65
X9.98Y-2.97
X9.9931Y-3.43
X10.0058Y-6.86
X10.01Y-3.65
X10.01Y-3.75
X10.01Y-3.85
X10.01Y-3.95
X10.01Y-4.05
X10.01Y-4.15
X10.01Y-4.25
X10.04Y-4.66
X10.04Y-4.76
X10.04Y-4.86
X10.04Y-4.96
X10.04Y-5.06
X10.04Y-5.16
X10.04Y-5.26
X10.04Y-5.36
X10.04Y-5.46
X10.04Y-5.56
X10.04Y-5.66
X10.04Y-5.76
X10.04Y-5.86
X10.04Y-5.96
X10.04Y-6.06
X10.04Y-6.16
X10.04Y-6.26
X10.04Y-6.36
X10.04Y-6.46
X10.04Y-6.56
X10.06Y-4.53
X10.19Y-3.43
X10.2Y-7.05
X10.2Y-7.15
X10.2Y-7.25
X10.2Y-7.35
X10.2Y-7.45
X10.2Y-7.55
X10.2Y-7.65
X10.2026Y-6.86
X10.23Y-7.98
X10.23Y-8.08
X10.23Y-8.18
X10.23Y-8.28
X10.23Y-8.38
X10.23Y-8.48
X10.23Y-8.58
X10.23Y-8.68
X10.23Y-8.78
X10.23Y-8.88
X10.23Y-9.2
X10.23Y-9.3
X10.23Y-9.4
X10.23Y-9.5
X10.23Y-9.6
X10.23Y-9.7
X10.23Y-9.8
X10.23Y-9.9
X10.28Y-2.97
X10.31Y-3.65
X10.31Y-3.75
X10.31Y-3.85
X10.31Y-3.95
X10.31Y-4.05
X10.31Y-4.15
X10.31Y-4.25
X10.3376Y-4.7288
X10.3376Y-4.8288
X10.3376Y-4.9288
X10.3376Y-5.0288
X10.3376Y-5.1288
X10.3376Y-5.2288
X10.3376Y-5.3288
X10.3376Y-5.4288
X10.3376Y-5.5288
X10.4291Y-7.9618
X10.4291Y-8.1587
X10.47Y-5.93
X10.47Y-6.03
X10.47Y-6.13
X10.47Y-6.23
X10.47Y-6.33
X10.47Y-6.43
X10.47Y-6.53
X10.5Y-7.05
X10.5Y-7.15
X10.5Y-7.25
X10.5Y-7.35
X10.5Y-7.45
X10.5Y-7.55
X10.5Y-7.65
X10.51Y-3.64
X10.51Y-3.74
X10.51Y-3.84
X10.51Y-3.94
X10.51Y-4.04
X10.51Y-4.14
X10.51Y-4.24
X10.5618Y-4.5309
X10.5831Y-6.86
X10.59Y-5.8
X10.6098Y-9.1966
X10.6098Y-9.2966
X10.6098Y-9.3966
X10.6098Y-9.4966
X10.6098Y-9.5966
X10.6098Y-9.6966
X10.6098Y-9.7966
X10.61Y-7.98
X10.61Y-8.08
X10.61Y-8.18
X10.61Y-8.28
X10.61Y-8.38
X10.61Y-8.48
X10.61Y-8.58
X10.61Y-8.68
X10.61Y-10.09
X10.61Y-10.19
X10.61Y-10.29
X10.61Y-10.39
X10.61Y-10.49
X10.61Y-10.59
X10.61Y-10.69
X10.6313Y-3.4291
X10.6376Y-4.7288
X10.6376Y-4.8288
X10.6376Y-4.9288
X10.6376Y-5.0288
X10.6376Y-5.1288
X10.6376Y-5.2288
X10.6376Y-5.3288
X10.6376Y-5.4288
X10.6376Y-5.5288
X10.74Y-8.94
X10.7587Y-4.5309
X10.77Y-5.93
X10.77Y-6.03
X10.77Y-6.13
X10.77Y-6.23
X10.77Y-6.33
X10.77Y-6.43
X10.77Y-6.53
X10.78Y-6.86
X10.7869Y-5.8
X10.79Y-7.05
X10.79Y-7.15
X10.79Y-7.25
X10.79Y-7.35
X10.79Y-7.45
X10.79Y-7.55
X10.79Y-7.65
X10.81Y-3.64
X10.81Y-3.74
X10.81Y-3.84
X10.81Y-3.94
X10.81Y-4.04
X10.81Y-4.14
X10.81Y-4.24
X10.8137Y-5.2248
X10.8199Y-5.0798
X10.8282Y-3.4291
X10.9098Y-9.1966
X10.9098Y-9.2966
X10.9098Y-9.3966
X10.9098Y-9.4966
X10.9098Y-9.5966
X10.9098Y-9.6966
X10.9098Y-9.7966
X10.91Y-7.98
X10.91Y-8.08
X10.91Y-8.18
X10.91Y-8.28
X10.91Y-8.38
X10.91Y-8.48
X10.91Y-8.58
X10.91Y-8.68
X10.91Y-10.09
X10.91Y-10.19
X10.91Y-10.29
X10.91Y-10.39
X10.91Y-10.49
X10.91Y-10.59
X10.91Y-10.69
X10.9369Y-8.94
X11.0106Y-5.2248
X11.0131Y-6.86
X11.0168Y-5.0798
X11.03Y-2.55
X11.03Y-2.65
X11.03Y-2.75
X11.03Y-2.85
X11.03Y-2.95
X11.03Y-3.05
X11.03Y-3.15
X11.03Y-3.25
X11.03Y-3.35
X11.03Y-3.45
X11.03Y-3.55
X11.03Y-3.65
X11.03Y-3.75
X11.03Y-3.85
X11.03Y-3.95
X11.03Y-4.05
X11.03Y-4.15
X11.03Y-4.25
X11.03Y-4.35
X11.03Y-4.45
X11.09Y-7.05
X11.09Y-7.15
X11.09Y-7.25
X11.09Y-7.35
X11.09Y-7.45
X11.09Y-7.55
X11.09Y-7.65
X11.1191Y-7.9618
X11.1191Y-8.1587
X11.1991Y-10.3418
X11.1991Y-10.5387
X11.2009Y-9.9013
X11.2009Y-10.0982
X11.21Y-6.86
X11.33Y-6.84
X11.33Y-7.0369
X11.5Y-5.78
X11.5Y-5.88
X11.5Y-5.98
X11.5Y-6.08
X11.5Y-6.18
X11.5Y-6.28
X11.5Y-6.38
X11.5Y-6.48
X11.5Y-6.58
X11.5Y-6.68
X11.5Y-6.78
X11.5Y-6.88
X11.5Y-6.98
X11.5Y-7.08
X11.5Y-7.18
X11.5Y-7.28
X11.5Y-7.38
X11.5Y-7.48
X11.5Y-7.58
X11.5Y-7.68
X11.501Y-9.293
X11.501Y-9.393
X11.501Y-9.493
X11.501Y-9.593
X11.501Y-9.693
X11.501Y-9.793
X11.501Y-9.893
X11.501Y-9.993
X11.501Y-10.093
X11.501Y-10.193
X11.501Y-10.293
X11.501Y-10.393
X11.501Y-10.493
X11.501Y-10.593
X11.501Y-10.693
X11.501Y-10.793
X11.501Y-10.893
X11.501Y-10.993
X11.501Y-11.093
X11.501Y-11.193
X11.63Y-2.55
X11.63Y-2.65
X11.63Y-2.75
X11.63Y-2.85
X11.63Y-2.95
X11.63Y-3.05
X11.63Y-3.15
X11.63Y-3.25
X11.63Y-3.35
X11.63Y-3.45
X11.63Y-3.55
X11.63Y-3.65
X11.63Y-3.75
X11.63Y-3.85
X11.63Y-3.95
X11.63Y-4.05
X11.63Y-4.15
X11.63Y-4.25
X11.63Y-4.35
X11.63Y-4.45
X11.8091Y-2.5318
X11.8091Y-2.7287
X12.08Y-2.32
X12.08Y-2.42
X12.08Y-2.52
X12.08Y-2.62
X12.08Y-2.72
X12.08Y-2.82
X12.08Y-2.92
X12.08Y-3.02
X12.08Y-3.12
X12.08Y-3.22
X12.1Y-5.78
X12.1Y-5.88
X12.1Y-5.98
X12.1Y-6.08
X12.1Y-6.18
X12.1Y-6.28
X12.1Y-6.38
X12.1Y-6.48
X12.1Y-6.58
X12.1Y-6.68
X12.1Y-6.78
X12.1Y-6.88
X12.1Y-6.98
X12.1Y-7.08
X12.1Y-7.18
X12.1Y-7.28
X12.1Y-7.38
X12.1Y-7.48
X12.1Y-7.58
X12.1Y-7.68
X12.101Y-9.293
X12.101Y-9.393
X12.101Y-9.493
X12.101Y-9.593
X12.101Y-9.693
X12.101Y-9.793
X12.101Y-9.893
X12.101Y-9.993
X12.101Y-10.093
X12.101Y-10.193
X12.101Y-10.293
X12.101Y-10.393
X12.101Y-10.493
X12.101Y-10.593
X12.101Y-10.693
X12.101Y-10.793
X12.101Y-10.893
X12.101Y-10.993
X12.101Y-11.093
X12.101Y-11.193
T7
X9.7524Y-2.54
X9.7524Y-2.6364
X9.8351Y-2.54
X9.9373Y-2.54
X10.02Y-2.54
X10.02Y-2.6384
X10.4785Y-2.5381
X10.4785Y-2.6345
X10.5612Y-2.5381
X10.6634Y-2.5381
X10.7461Y-2.5381
X10.7461Y-2.6365
T8
X4.17Y-9.65
X4.1713Y-10.08
X4.27Y-9.65
X4.2713Y-10.08
X4.4666Y-10.08
X4.47Y-9.65
X4.5666Y-10.08
X4.57Y-9.65
X4.7619Y-10.08
X4.77Y-9.65
X4.8619Y-10.08
X4.87Y-9.65
X5.22Y-10.08
X5.32Y-10.08
T9
X2.93Y-8.97
X2.93Y-9.07
X2.93Y-9.17
X2.93Y-9.27
X2.93Y-9.37
X2.93Y-9.47
X2.93Y-9.57
X2.93Y-9.67
X2.93Y-9.77
X2.93Y-9.87
X2.93Y-9.97
X2.93Y-10.9228
X2.93Y-11.1
X2.9333Y-10.4033
X2.9333Y-10.5805
X3.03Y-8.97
X3.03Y-9.07
X3.03Y-9.17
X3.03Y-9.27
X3.03Y-9.37
X3.03Y-9.47
X3.03Y-9.57
X3.03Y-9.67
X3.03Y-9.77
X3.03Y-9.87
X3.03Y-9.97
X3.1859Y-10.9228
X3.1859Y-11.1
X3.1892Y-10.4033
X3.1892Y-10.5805
X3.2525Y-5.6052
X3.2525Y-5.7052
X3.2525Y-5.8052
X3.2525Y-5.9052
X3.2525Y-6.0052
X3.2525Y-6.1052
X3.3525Y-5.6052
X3.3525Y-5.7052
X3.3525Y-5.8052
X3.3525Y-5.9052
X3.3525Y-6.0052
X3.3525Y-6.1052
X4.0673Y-5.6052
X4.0673Y-5.7052
X4.0673Y-5.8052
X4.0673Y-5.9052
X4.0673Y-6.0052
X4.0673Y-6.1052
X4.1673Y-5.6052
X4.1673Y-5.7052
X4.1673Y-5.8052
X4.1673Y-5.9052
X4.1673Y-6.0052
X4.1673Y-6.1052
X4.8675Y-5.6002
X4.8675Y-5.7002
X4.8675Y-5.8002
X4.8675Y-5.9002
X4.8675Y-6.0002
X4.8675Y-6.1002
X4.8909Y-7.1232
X4.8909Y-7.2232
X4.8909Y-7.3232
X4.8937Y-6.6461
X4.8937Y-6.7461
X4.8937Y-6.8461
X4.9675Y-5.6002
X4.9675Y-5.7002
X4.9675Y-5.8002
X4.9675Y-5.9002
X4.9675Y-6.0002
X4.9675Y-6.1002
X4.9909Y-7.1232
X4.9909Y-7.2232
X4.9909Y-7.3232
X4.9937Y-6.6461
X4.9937Y-6.7461
X4.9937Y-6.8461
X5.2377Y-9.23
X5.2377Y-9.33
X5.2377Y-9.43
X5.4208Y-9.23
X5.4208Y-9.33
X5.4208Y-9.43
X5.5507Y-11.458
X5.5507Y-11.558
X5.6039Y-9.23
X5.6039Y-9.33
X5.6039Y-9.43
X5.6675Y-5.6052
X5.6675Y-5.7052
X5.6675Y-5.8052
X5.6675Y-5.9052
X5.6675Y-6.0052
X5.6675Y-6.1052
X5.7675Y-5.6052
X5.7675Y-5.7052
X5.7675Y-5.8052
X5.7675Y-5.9052
X5.7675Y-6.0052
X5.7675Y-6.1052
X5.7869Y-9.23
X5.7869Y-9.33
X5.7869Y-9.43
X5.97Y-9.23
X5.97Y-9.33
X5.97Y-9.43
X6.4567Y-5.6042
X6.4567Y-5.7042
X6.4567Y-5.8042
X6.4567Y-5.9042
X6.4567Y-6.0042
X6.4567Y-6.1042
X6.5567Y-5.6042
X6.5567Y-5.7042
X6.5567Y-5.8042
X6.5567Y-5.9042
X6.5567Y-6.0042
X6.5567Y-6.1042
X7.25Y-10.84
X7.25Y-10.94
X7.27Y-10.4
X7.27Y-10.5
X7.274Y-5.615
X7.274Y-5.715
X7.274Y-5.815
X7.274Y-5.915
X7.274Y-6.015
X7.274Y-6.115
X7.29Y-9.95
X7.29Y-10.05
X7.35Y-10.84
X7.35Y-10.94
X7.37Y-10.4
X7.37Y-10.5
X7.374Y-5.615
X7.374Y-5.715
X7.374Y-5.815
X7.374Y-5.915
X7.374Y-6.015
X7.374Y-6.115
X7.39Y-9.95
X7.39Y-10.05
X7.45Y-3.12
X7.45Y-3.22
X7.45Y-3.32
X7.45Y-3.42
X7.45Y-3.52
X7.45Y-3.86
X7.45Y-3.96
X7.45Y-4.06
X7.45Y-4.16
X7.45Y-4.26
X7.45Y-10.84
X7.45Y-10.94
X7.55Y-3.12
X7.55Y-3.22
X7.55Y-3.32
X7.55Y-3.42
X7.55Y-3.52
X7.55Y-3.86
X7.55Y-3.96
X7.55Y-4.06
X7.55Y-4.16
X7.55Y-4.26
X7.55Y-10.84
X7.55Y-10.94
X7.65Y-10.84
X7.65Y-10.94
X7.66Y-10.39
X7.66Y-10.49
X7.75Y-10.84
X7.75Y-10.94
X7.76Y-10.39
X7.76Y-10.49
X7.85Y-4.63
X7.85Y-4.73
X7.85Y-4.83
X7.85Y-4.93
X7.85Y-5.03
X7.85Y-10.84
X7.85Y-10.94
X7.95Y-4.63
X7.95Y-4.73
X7.95Y-4.83
X7.95Y-4.93
X7.95Y-5.03
X7.95Y-10.84
X7.95Y-10.94
X8.0197Y-7.9891
X8.05Y-10.84
X8.05Y-10.94
X8.1197Y-7.9891
X8.15Y-10.84
X8.15Y-10.94
X8.21Y-2.33
X8.21Y-2.56
X8.2197Y-7.9891
X8.25Y-10.84
X8.25Y-10.94
X8.31Y-2.33
X8.31Y-2.56
X8.35Y-10.84
X8.35Y-10.94
X8.41Y-2.33
X8.41Y-2.56
X8.45Y-10.84
X8.45Y-10.94
X8.51Y-2.33
X8.51Y-2.56
X8.53Y-2.87
X8.53Y-2.97
X8.55Y-10.84
X8.55Y-10.94
X8.58Y-4.66
X8.58Y-4.76
X8.61Y-2.33
X8.61Y-2.56
X8.65Y-10.84
X8.65Y-10.94
X8.68Y-4.66
X8.68Y-4.76
X8.71Y-2.33
X8.71Y-2.56
X8.72Y-2.87
X8.72Y-2.97
X8.75Y-10.84
X8.75Y-10.94
X8.85Y-10.84
X8.85Y-10.94
X8.92Y-2.33
X8.92Y-2.43
X8.92Y-2.53
X8.92Y-2.63
X8.92Y-2.73
X9.02Y-2.33
X9.02Y-2.43
X9.02Y-2.53
X9.02Y-2.63
X9.02Y-2.73
X9.19Y-10.59
X9.19Y-10.69
X9.23Y-11.08
X9.23Y-11.18
X9.28Y-2.33
X9.28Y-2.43
X9.28Y-2.53
X9.28Y-2.63
X9.28Y-2.73
X9.29Y-10.59
X9.29Y-10.69
X9.33Y-11.08
X9.33Y-11.18
X9.38Y-2.33
X9.38Y-2.43
X9.38Y-2.53
X9.38Y-2.63
X9.38Y-2.73
X9.3887Y-2.9709
X9.39Y-10.59
X9.39Y-10.69
X9.43Y-11.08
X9.43Y-11.18
X9.4887Y-2.9709
X9.49Y-10.59
X9.49Y-10.69
X9.53Y-11.08
X9.53Y-11.18
X9.59Y-10.59
X9.59Y-10.69
X9.63Y-11.08
X9.63Y-11.18
X9.69Y-10.59
X9.69Y-10.69
X9.73Y-2.98
X9.73Y-11.08
X9.73Y-11.18
X9.79Y-10.59
X9.79Y-10.69
X9.83Y-2.98
X9.83Y-11.08
X9.83Y-11.18
X9.89Y-10.59
X9.89Y-10.69
X9.93Y-11.08
X9.93Y-11.18
X9.99Y-10.59
X9.99Y-10.69
X10.03Y-11.08
X10.03Y-11.18
X10.09Y-10.59
X10.09Y-10.69
X10.13Y-11.08
X10.13Y-11.18
X10.19Y-10.59
X10.19Y-10.69
X10.2009Y-6.1013
X10.2009Y-6.2013
X10.23Y-11.08
X10.23Y-11.18
X10.29Y-10.59
X10.29Y-10.69
X10.33Y-11.08
X10.33Y-11.18
X10.38Y-10.13
X10.38Y-10.23
X10.38Y-10.33
X10.39Y-10.59
X10.39Y-10.69
X10.43Y-11.08
X10.43Y-11.18
X10.53Y-11.08
X10.53Y-11.18
X10.63Y-11.08
X10.63Y-11.18
X10.73Y-11.08
X10.73Y-11.18
X10.83Y-11.08
X10.83Y-11.18
X10.93Y-11.08
X10.93Y-11.18
X11.03Y-11.08
X11.03Y-11.18
X11.13Y-11.08
X11.13Y-11.18
X11.68Y-8.01
X11.68Y-8.11
X11.68Y-8.21
X11.68Y-8.31
X11.68Y-8.41
X11.68Y-8.51
X11.68Y-8.61
X11.68Y-8.71
X11.68Y-8.81
X11.68Y-8.91
X11.78Y-8.01
X11.78Y-8.11
X11.78Y-8.21
X11.78Y-8.31
X11.78Y-8.41
X11.78Y-8.51
X11.78Y-8.61
X11.78Y-8.71
X11.78Y-8.81
X11.78Y-8.91
T10
X2.8687Y-3.2152
X2.8687Y-3.3152
X2.8687Y-3.4152
X2.8687Y-3.5152
X2.8687Y-3.6152
X2.8687Y-3.7152
X2.8687Y-3.8152
X2.8687Y-3.9152
X2.8687Y-4.0152
X2.8687Y-4.1152
X2.8687Y-4.2152
X2.8687Y-4.3152
X2.8687Y-4.4152
X2.8687Y-4.5152
X2.8687Y-4.6152
X2.8687Y-4.7152
X2.8687Y-4.8152
X2.8687Y-4.9152
X2.8687Y-5.0152
X2.8687Y-5.1152
X2.8687Y-5.2152
X2.8687Y-5.3152
X2.8687Y-5.4152
X2.8687Y-5.5152
X2.8687Y-5.6152
X2.8687Y-5.7152
X2.8687Y-5.8152
X2.8687Y-5.9152
X2.8687Y-6.0152
X2.8687Y-6.1152
X2.8687Y-6.2152
X3.0687Y-3.2152
X3.0687Y-3.3152
X3.0687Y-3.4152
X3.0687Y-3.5152
X3.0687Y-3.6152
X3.0687Y-3.7152
X3.0687Y-3.8152
X3.0687Y-3.9152
X3.0687Y-4.0152
X3.0687Y-4.1152
X3.0687Y-4.2152
X3.0687Y-4.3152
X3.0687Y-4.4152
X3.0687Y-4.5152
X3.0687Y-4.6152
X3.0687Y-4.7152
X3.0687Y-4.8152
X3.0687Y-4.9152
X3.0687Y-5.0152
X3.0687Y-5.1152
X3.0687Y-5.2152
X3.0687Y-5.3152
X3.0687Y-5.4152
X3.0687Y-5.5152
X3.0687Y-5.6152
X3.0687Y-5.7152
X3.0687Y-5.8152
X3.0687Y-5.9152
X3.0687Y-6.0152
X3.0687Y-6.1152
X3.0687Y-6.2152
X3.6687Y-3.2152
X3.6687Y-3.3152
X3.6687Y-3.4152
X3.6687Y-3.5152
X3.6687Y-3.6152
X3.6687Y-3.7152
X3.6687Y-3.8152
X3.6687Y-3.9152
X3.6687Y-4.0152
X3.6687Y-4.1152
X3.6687Y-4.2152
X3.6687Y-4.3152
X3.6687Y-4.4152
X3.6687Y-4.5152
X3.6687Y-4.6152
X3.6687Y-4.7152
X3.6687Y-4.8152
X3.6687Y-4.9152
X3.6687Y-5.0152
X3.6687Y-5.1152
X3.6687Y-5.2152
X3.6687Y-5.3152
X3.6687Y-5.4152
X3.6687Y-5.5152
X3.6687Y-5.6152
X3.6687Y-5.7152
X3.6687Y-5.8152
X3.6687Y-5.9152
X3.6687Y-6.0152
X3.6687Y-6.1152
X3.6687Y-6.2152
X3.8687Y-3.2152
X3.8687Y-3.3152
X3.8687Y-3.4152
X3.8687Y-3.5152
X3.8687Y-3.6152
X3.8687Y-3.7152
X3.8687Y-3.8152
X3.8687Y-3.9152
X3.8687Y-4.0152
X3.8687Y-4.1152
X3.8687Y-4.2152
X3.8687Y-4.3152
X3.8687Y-4.4152
X3.8687Y-4.5152
X3.8687Y-4.6152
X3.8687Y-4.7152
X3.8687Y-4.8152
X3.8687Y-4.9152
X3.8687Y-5.0152
X3.8687Y-5.1152
X3.8687Y-5.2152
X3.8687Y-5.3152
X3.8687Y-5.4152
X3.8687Y-5.5152
X3.8687Y-5.6152
X3.8687Y-5.7152
X3.8687Y-5.8152
X3.8687Y-5.9152
X3.8687Y-6.0152
X3.8687Y-6.1152
X3.8687Y-6.2152
X4.4687Y-3.2152
X4.4687Y-3.3152
X4.4687Y-3.4152
X4.4687Y-3.5152
X4.4687Y-3.6152
X4.4687Y-3.7152
X4.4687Y-3.8152
X4.4687Y-3.9152
X4.4687Y-4.0152
X4.4687Y-4.1152
X4.4687Y-4.2152
X4.4687Y-4.3152
X4.4687Y-4.4152
X4.4687Y-4.5152
X4.4687Y-4.6152
X4.4687Y-4.7152
X4.4687Y-4.8152
X4.4687Y-4.9152
X4.4687Y-5.0152
X4.4687Y-5.1152
X4.4687Y-5.2152
X4.4687Y-5.3152
X4.4687Y-5.4152
X4.4687Y-5.5152
X4.4687Y-5.6152
X4.4687Y-5.7152
X4.4687Y-5.8152
X4.4687Y-5.9152
X4.4687Y-6.0152
X4.4687Y-6.1152
X4.4687Y-6.2152
X4.6687Y-3.2152
X4.6687Y-3.3152
X4.6687Y-3.4152
X4.6687Y-3.5152
X4.6687Y-3.6152
X4.6687Y-3.7152
X4.6687Y-3.8152
X4.6687Y-3.9152
X4.6687Y-4.0152
X4.6687Y-4.1152
X4.6687Y-4.2152
X4.6687Y-4.3152
X4.6687Y-4.4152
X4.6687Y-4.5152
X4.6687Y-4.6152
X4.6687Y-4.7152
X4.6687Y-4.8152
X4.6687Y-4.9152
X4.6687Y-5.0152
X4.6687Y-5.1152
X4.6687Y-5.2152
X4.6687Y-5.3152
X4.6687Y-5.4152
X4.6687Y-5.5152
X4.6687Y-5.6152
X4.6687Y-5.7152
X4.6687Y-5.8152
X4.6687Y-5.9152
X4.6687Y-6.0152
X4.6687Y-6.1152
X4.6687Y-6.2152
X5.2687Y-3.2152
X5.2687Y-3.3152
X5.2687Y-3.4152
X5.2687Y-3.5152
X5.2687Y-3.6152
X5.2687Y-3.7152
X5.2687Y-3.8152
X5.2687Y-3.9152
X5.2687Y-4.0152
X5.2687Y-4.1152
X5.2687Y-4.2152
X5.2687Y-4.3152
X5.2687Y-4.4152
X5.2687Y-4.5152
X5.2687Y-4.6152
X5.2687Y-4.7152
X5.2687Y-4.8152
X5.2687Y-4.9152
X5.2687Y-5.0152
X5.2687Y-5.1152
X5.2687Y-5.2152
X5.2687Y-5.3152
X5.2687Y-5.4152
X5.2687Y-5.5152
X5.2687Y-5.6152
X5.2687Y-5.7152
X5.2687Y-5.8152
X5.2687Y-5.9152
X5.2687Y-6.0152
X5.2687Y-6.1152
X5.2687Y-6.2152
X5.4687Y-3.2152
X5.4687Y-3.3152
X5.4687Y-3.4152
X5.4687Y-3.5152
X5.4687Y-3.6152
X5.4687Y-3.7152
X5.4687Y-3.8152
X5.4687Y-3.9152
X5.4687Y-4.0152
X5.4687Y-4.1152
X5.4687Y-4.2152
X5.4687Y-4.3152
X5.4687Y-4.4152
X5.4687Y-4.5152
X5.4687Y-4.6152
X5.4687Y-4.7152
X5.4687Y-4.8152
X5.4687Y-4.9152
X5.4687Y-5.0152
X5.4687Y-5.1152
X5.4687Y-5.2152
X5.4687Y-5.3152
X5.4687Y-5.4152
X5.4687Y-5.5152
X5.4687Y-5.6152
X5.4687Y-5.7152
X5.4687Y-5.8152
X5.4687Y-5.9152
X5.4687Y-6.0152
X5.4687Y-6.1152
X5.4687Y-6.2152
X6.0687Y-3.2152
X6.0687Y-3.3152
X6.0687Y-3.4152
X6.0687Y-3.5152
X6.0687Y-3.6152
X6.0687Y-3.7152
X6.0687Y-3.8152
X6.0687Y-3.9152
X6.0687Y-4.0152
X6.0687Y-4.1152
X6.0687Y-4.2152
X6.0687Y-4.3152
X6.0687Y-4.4152
X6.0687Y-4.5152
X6.0687Y-4.6152
X6.0687Y-4.7152
X6.0687Y-4.8152
X6.0687Y-4.9152
X6.0687Y-5.0152
X6.0687Y-5.1152
X6.0687Y-5.2152
X6.0687Y-5.3152
X6.0687Y-5.4152
X6.0687Y-5.5152
X6.0687Y-5.6152
X6.0687Y-5.7152
X6.0687Y-5.8152
X6.0687Y-5.9152
X6.0687Y-6.0152
X6.0687Y-6.1152
X6.0687Y-6.2152
X6.2687Y-3.2152
X6.2687Y-3.3152
X6.2687Y-3.4152
X6.2687Y-3.5152
X6.2687Y-3.6152
X6.2687Y-3.7152
X6.2687Y-3.8152
X6.2687Y-3.9152
X6.2687Y-4.0152
X6.2687Y-4.1152
X6.2687Y-4.2152
X6.2687Y-4.3152
X6.2687Y-4.4152
X6.2687Y-4.5152
X6.2687Y-4.6152
X6.2687Y-4.7152
X6.2687Y-4.8152
X6.2687Y-4.9152
X6.2687Y-5.0152
X6.2687Y-5.1152
X6.2687Y-5.2152
X6.2687Y-5.3152
X6.2687Y-5.4152
X6.2687Y-5.5152
X6.2687Y-5.6152
X6.2687Y-5.7152
X6.2687Y-5.8152
X6.2687Y-5.9152
X6.2687Y-6.0152
X6.2687Y-6.1152
X6.2687Y-6.2152
X6.8687Y-3.2152
X6.8687Y-3.3152
X6.8687Y-3.4152
X6.8687Y-3.5152
X6.8687Y-3.6152
X6.8687Y-3.7152
X6.8687Y-3.8152
X6.8687Y-3.9152
X6.8687Y-4.0152
X6.8687Y-4.1152
X6.8687Y-4.2152
X6.8687Y-4.3152
X6.8687Y-4.4152
X6.8687Y-4.5152
X6.8687Y-4.6152
X6.8687Y-4.7152
X6.8687Y-4.8152
X6.8687Y-4.9152
X6.8687Y-5.0152
X6.8687Y-5.1152
X6.8687Y-5.2152
X6.8687Y-5.3152
X6.8687Y-5.4152
X6.8687Y-5.5152
X6.8687Y-5.6152
X6.8687Y-5.7152
X6.8687Y-5.8152
X6.8687Y-5.9152
X6.8687Y-6.0152
X6.8687Y-6.1152
X6.8687Y-6.2152
X7.0687Y-3.2152
X7.0687Y-3.3152
X7.0687Y-3.4152
X7.0687Y-3.5152
X7.0687Y-3.6152
X7.0687Y-3.7152
X7.0687Y-3.8152
X7.0687Y-3.9152
X7.0687Y-4.0152
X7.0687Y-4.1152
X7.0687Y-4.2152
X7.0687Y-4.3152
X7.0687Y-4.4152
X7.0687Y-4.5152
X7.0687Y-4.6152
X7.0687Y-4.7152
X7.0687Y-4.8152
X7.0687Y-4.9152
X7.0687Y-5.0152
X7.0687Y-5.1152
X7.0687Y-5.2152
X7.0687Y-5.3152
X7.0687Y-5.4152
X7.0687Y-5.5152
X7.0687Y-5.6152
X7.0687Y-5.7152
X7.0687Y-5.8152
X7.0687Y-5.9152
X7.0687Y-6.0152
X7.0687Y-6.1152
X7.0687Y-6.2152
T11
X3.5117Y-11.3171
X3.5117Y-11.7171
X3.7557Y-11.3171
X3.7557Y-11.7171
X10.96Y-5.43
X10.96Y-5.83
X11.16Y-5.43
X11.16Y-5.83
X12.093Y-8.0169
X12.093Y-8.4169
T12
X11.32Y-5.03
X12.1389Y-5.03
T13
X6.5126Y-11.4302
X6.5126Y-11.6468
X6.678Y-11.4302
X6.678Y-11.6468
X6.8433Y-11.4302
X6.8433Y-11.6468
X7.0087Y-11.4302
X7.0087Y-11.6468
X7.174Y-11.4302
X7.174Y-11.6468
X7.3394Y-11.4302
X7.3394Y-11.6468
X7.5047Y-11.4302
X7.5047Y-11.6468
X7.6701Y-11.4302
X7.6701Y-11.6468
X7.8354Y-11.4302
X7.8354Y-11.6468
X8.0008Y-11.4302
X8.0008Y-11.6468
T14
X9.6205Y-2.4219
X9.8862Y-2.3905
X10.1539Y-2.4219
X10.3466Y-2.42
X10.6123Y-2.3886
X10.88Y-2.42
T15
X3.2677Y-2.6131
X3.2677Y-8.7131
X3.2677Y-11.5631
X4.0677Y-2.6131
X4.0677Y-8.7131
X4.0677Y-11.5631
X5.8677Y-2.6131
X5.8677Y-8.7131
X5.8677Y-11.5631
X12.0677Y-3.5131
X12.0677Y-8.7131
X12.0677Y-11.5631
T4
G00X7.7274Y-2.4472
M15
G01X7.7274Y-2.4235
M16
G05
G00X7.7668Y-2.7818
M15
G01X7.7668Y-2.7582
M16
G05
G00X7.9439Y-2.4472
M15
G01X7.9439Y-2.4235
M16
G05
G00X7.9439Y-2.5653
M15
G01X7.9439Y-2.5417
M16
G05
G00X7.9439Y-2.7228
M15
G01X7.9439Y-2.6991
M16
G05
M30
