%TF.GenerationSoftware,KiCad,Pcbnew,9.0.2*%
%TF.CreationDate,2025-11-29T09:57:53-06:00*%
%TF.ProjectId,N8PC,4e385043-2e6b-4696-9361-645f70636258,6/20/2025 004*%
%TF.SameCoordinates,Original*%
%TF.FileFunction,Soldermask,Top*%
%TF.FilePolarity,Negative*%
%FSLAX46Y46*%
G04 Gerber Fmt 4.6, Leading zero omitted, Abs format (unit mm)*
G04 Created by KiCad (PCBNEW 9.0.2) date 2025-11-29 09:57:53*
%MOMM*%
%LPD*%
G01*
G04 APERTURE LIST*
G04 Aperture macros list*
%AMRoundRect*
0 Rectangle with rounded corners*
0 $1 Rounding radius*
0 $2 $3 $4 $5 $6 $7 $8 $9 X,Y pos of 4 corners*
0 Add a 4 corners polygon primitive as box body*
4,1,4,$2,$3,$4,$5,$6,$7,$8,$9,$2,$3,0*
0 Add four circle primitives for the rounded corners*
1,1,$1+$1,$2,$3*
1,1,$1+$1,$4,$5*
1,1,$1+$1,$6,$7*
1,1,$1+$1,$8,$9*
0 Add four rect primitives between the rounded corners*
20,1,$1+$1,$2,$3,$4,$5,0*
20,1,$1+$1,$4,$5,$6,$7,0*
20,1,$1+$1,$6,$7,$8,$9,0*
20,1,$1+$1,$8,$9,$2,$3,0*%
G04 Aperture macros list end*
%ADD10R,1.700000X1.700000*%
%ADD11C,1.700000*%
%ADD12O,1.700000X1.700000*%
%ADD13C,1.600000*%
%ADD14O,1.600000X1.600000*%
%ADD15R,2.400000X1.600000*%
%ADD16O,2.400000X1.600000*%
%ADD17R,1.600000X2.400000*%
%ADD18O,1.600000X2.400000*%
%ADD19R,2.200000X2.200000*%
%ADD20O,2.200000X2.200000*%
%ADD21R,1.600000X1.600000*%
%ADD22C,1.000000*%
%ADD23C,3.600000*%
%ADD24C,6.400000*%
%ADD25R,2.125980X2.125980*%
%ADD26C,1.422400*%
%ADD27C,3.497580*%
%ADD28C,1.524000*%
%ADD29R,1.800000X1.800000*%
%ADD30C,1.800000*%
%ADD31C,1.440000*%
%ADD32R,2.000000X2.000000*%
%ADD33C,2.000000*%
%ADD34O,1.400000X2.000000*%
%ADD35C,1.200000*%
%ADD36R,1.400000X2.000000*%
%ADD37R,1.422400X1.422400*%
%ADD38R,1.100000X1.800000*%
%ADD39RoundRect,0.275000X-0.275000X-0.625000X0.275000X-0.625000X0.275000X0.625000X-0.275000X0.625000X0*%
G04 APERTURE END LIST*
D10*
%TO.C,SW1*%
X74422000Y-277440000D03*
D11*
X80922000Y-277440000D03*
X74422000Y-281940000D03*
X80922000Y-281940000D03*
%TD*%
D10*
%TO.C,SW2*%
X81006000Y-268744000D03*
D11*
X74506000Y-268744000D03*
X81006000Y-264244000D03*
X74506000Y-264244000D03*
%TD*%
D10*
%TO.C,P12*%
X140988600Y-291033600D03*
D12*
X140988600Y-293573600D03*
%TD*%
D10*
%TO.C,JP3*%
X247142000Y-75692000D03*
D12*
X249682000Y-75692000D03*
%TD*%
D13*
%TO.C,R6*%
X86638000Y-89628000D03*
D14*
X86638000Y-82008000D03*
%TD*%
D13*
%TO.C,R7*%
X143256000Y-211836000D03*
D14*
X143256000Y-204216000D03*
%TD*%
D13*
%TO.C,R4*%
X253492000Y-75438000D03*
D14*
X261112000Y-75438000D03*
%TD*%
D13*
%TO.C,R1*%
X106654600Y-274396200D03*
D14*
X106654600Y-282016200D03*
%TD*%
D13*
%TO.C,R3*%
X98780600Y-282321000D03*
D14*
X98780600Y-274701000D03*
%TD*%
D13*
%TO.C,R2*%
X75582200Y-297507000D03*
D14*
X75582200Y-289887000D03*
%TD*%
D10*
%TO.C,P18*%
X235712000Y-59182000D03*
D12*
X238252000Y-59182000D03*
X235712000Y-61722000D03*
X238252000Y-61722000D03*
X235712000Y-64262000D03*
X238252000Y-64262000D03*
X235712000Y-66802000D03*
X238252000Y-66802000D03*
X235712000Y-69342000D03*
X238252000Y-69342000D03*
%TD*%
D10*
%TO.C,P15*%
X199390000Y-117602000D03*
D12*
X201930000Y-117602000D03*
X199390000Y-120142000D03*
X201930000Y-120142000D03*
X199390000Y-122682000D03*
X201930000Y-122682000D03*
X199390000Y-125222000D03*
X201930000Y-125222000D03*
X199390000Y-127762000D03*
X201930000Y-127762000D03*
%TD*%
D10*
%TO.C,P1*%
X132080000Y-181610000D03*
D11*
X134620000Y-181610000D03*
X132080000Y-184150000D03*
X134620000Y-184150000D03*
X132080000Y-186690000D03*
X134620000Y-186690000D03*
%TD*%
D15*
%TO.C,U8*%
X215950800Y-179070000D03*
D16*
X215950800Y-181610000D03*
X215950800Y-184150000D03*
X215950800Y-186690000D03*
X215950800Y-189230000D03*
X215950800Y-191770000D03*
X215950800Y-194310000D03*
X223570800Y-194310000D03*
X223570800Y-191770000D03*
X223570800Y-189230000D03*
X223570800Y-186690000D03*
X223570800Y-184150000D03*
X223570800Y-181610000D03*
X223570800Y-179070000D03*
%TD*%
D15*
%TO.C,U48*%
X239776000Y-118364000D03*
D16*
X239776000Y-120904000D03*
X239776000Y-123444000D03*
X239776000Y-125984000D03*
X239776000Y-128524000D03*
X239776000Y-131064000D03*
X239776000Y-133604000D03*
X239776000Y-136144000D03*
X239776000Y-138684000D03*
X239776000Y-141224000D03*
X239776000Y-143764000D03*
X239776000Y-146304000D03*
X239776000Y-148844000D03*
X239776000Y-151384000D03*
X239776000Y-153924000D03*
X239776000Y-156464000D03*
X239776000Y-159004000D03*
X239776000Y-161544000D03*
X239776000Y-164084000D03*
X239776000Y-166624000D03*
X255016000Y-166624000D03*
X255016000Y-164084000D03*
X255016000Y-161544000D03*
X255016000Y-159004000D03*
X255016000Y-156464000D03*
X255016000Y-153924000D03*
X255016000Y-151384000D03*
X255016000Y-148844000D03*
X255016000Y-146304000D03*
X255016000Y-143764000D03*
X255016000Y-141224000D03*
X255016000Y-138684000D03*
X255016000Y-136144000D03*
X255016000Y-133604000D03*
X255016000Y-131064000D03*
X255016000Y-128524000D03*
X255016000Y-125984000D03*
X255016000Y-123444000D03*
X255016000Y-120904000D03*
X255016000Y-118364000D03*
%TD*%
D15*
%TO.C,U38*%
X292126000Y-236042000D03*
D16*
X292126000Y-238582000D03*
X292126000Y-241122000D03*
X292126000Y-243662000D03*
X292126000Y-246202000D03*
X292126000Y-248742000D03*
X292126000Y-251282000D03*
X292126000Y-253822000D03*
X292126000Y-256362000D03*
X292126000Y-258902000D03*
X292126000Y-261442000D03*
X292126000Y-263982000D03*
X292126000Y-266522000D03*
X292126000Y-269062000D03*
X292126000Y-271602000D03*
X292126000Y-274142000D03*
X292126000Y-276682000D03*
X292126000Y-279222000D03*
X292126000Y-281762000D03*
X292126000Y-284302000D03*
X307366000Y-284302000D03*
X307366000Y-281762000D03*
X307366000Y-279222000D03*
X307366000Y-276682000D03*
X307366000Y-274142000D03*
X307366000Y-271602000D03*
X307366000Y-269062000D03*
X307366000Y-266522000D03*
X307366000Y-263982000D03*
X307366000Y-261442000D03*
X307366000Y-258902000D03*
X307366000Y-256362000D03*
X307366000Y-253822000D03*
X307366000Y-251282000D03*
X307366000Y-248742000D03*
X307366000Y-246202000D03*
X307366000Y-243662000D03*
X307366000Y-241122000D03*
X307366000Y-238582000D03*
X307366000Y-236042000D03*
%TD*%
D15*
%TO.C,U39*%
X269488000Y-233594000D03*
D16*
X269488000Y-236134000D03*
X269488000Y-238674000D03*
X269488000Y-241214000D03*
X269488000Y-243754000D03*
X269488000Y-246294000D03*
X269488000Y-248834000D03*
X277108000Y-248834000D03*
X277108000Y-246294000D03*
X277108000Y-243754000D03*
X277108000Y-241214000D03*
X277108000Y-238674000D03*
X277108000Y-236134000D03*
X277108000Y-233594000D03*
%TD*%
D15*
%TO.C,U34*%
X225298000Y-118364000D03*
D16*
X225298000Y-120904000D03*
X225298000Y-123444000D03*
X225298000Y-125984000D03*
X225298000Y-128524000D03*
X225298000Y-131064000D03*
X225298000Y-133604000D03*
X232918000Y-133604000D03*
X232918000Y-131064000D03*
X232918000Y-128524000D03*
X232918000Y-125984000D03*
X232918000Y-123444000D03*
X232918000Y-120904000D03*
X232918000Y-118364000D03*
%TD*%
D15*
%TO.C,U49*%
X265938000Y-150622000D03*
D16*
X265938000Y-153162000D03*
X265938000Y-155702000D03*
X265938000Y-158242000D03*
X265938000Y-160782000D03*
X265938000Y-163322000D03*
X265938000Y-165862000D03*
X273558000Y-165862000D03*
X273558000Y-163322000D03*
X273558000Y-160782000D03*
X273558000Y-158242000D03*
X273558000Y-155702000D03*
X273558000Y-153162000D03*
X273558000Y-150622000D03*
%TD*%
D10*
%TO.C,P17*%
X165862000Y-188722000D03*
D12*
X168402000Y-188722000D03*
X165862000Y-191262000D03*
X168402000Y-191262000D03*
X165862000Y-193802000D03*
X168402000Y-193802000D03*
X165862000Y-196342000D03*
X168402000Y-196342000D03*
%TD*%
D17*
%TO.C,U19*%
X117950800Y-295534400D03*
D18*
X120490800Y-295534400D03*
X123030800Y-295534400D03*
X125570800Y-295534400D03*
X128110800Y-295534400D03*
X130650800Y-295534400D03*
X133190800Y-295534400D03*
X133190800Y-287914400D03*
X130650800Y-287914400D03*
X128110800Y-287914400D03*
X125570800Y-287914400D03*
X123030800Y-287914400D03*
X120490800Y-287914400D03*
X117950800Y-287914400D03*
%TD*%
D15*
%TO.C,P14*%
X73654000Y-169332000D03*
D16*
X73654000Y-171872000D03*
X73654000Y-174412000D03*
X73654000Y-176952000D03*
X73654000Y-179492000D03*
X73654000Y-182032000D03*
X73654000Y-184572000D03*
X81274000Y-184572000D03*
X81274000Y-182032000D03*
X81274000Y-179492000D03*
X81274000Y-176952000D03*
X81274000Y-174412000D03*
X81274000Y-171872000D03*
X81274000Y-169332000D03*
%TD*%
D15*
%TO.C,U7*%
X230327200Y-179070000D03*
D16*
X230327200Y-181610000D03*
X230327200Y-184150000D03*
X230327200Y-186690000D03*
X230327200Y-189230000D03*
X230327200Y-191770000D03*
X230327200Y-194310000D03*
X237947200Y-194310000D03*
X237947200Y-191770000D03*
X237947200Y-189230000D03*
X237947200Y-186690000D03*
X237947200Y-184150000D03*
X237947200Y-181610000D03*
X237947200Y-179070000D03*
%TD*%
D19*
%TO.C,D2*%
X89197800Y-287453400D03*
D20*
X89197800Y-297613400D03*
%TD*%
D19*
%TO.C,D1*%
X95395400Y-287453400D03*
D20*
X95395400Y-297613400D03*
%TD*%
D13*
%TO.C,C29*%
X123259400Y-160990600D03*
X128259400Y-160990600D03*
%TD*%
%TO.C,C46*%
X102934600Y-162030600D03*
X107934600Y-162030600D03*
%TD*%
%TO.C,C44*%
X239481600Y-174244000D03*
X244481600Y-174244000D03*
%TD*%
%TO.C,C39*%
X224870000Y-162052000D03*
X229870000Y-162052000D03*
%TD*%
%TO.C,C36*%
X124292000Y-197104000D03*
X129292000Y-197104000D03*
%TD*%
%TO.C,C25*%
X216488000Y-250190000D03*
X221488000Y-250190000D03*
%TD*%
%TO.C,C48*%
X82868600Y-162589400D03*
X87868600Y-162589400D03*
%TD*%
%TO.C,C50*%
X254146800Y-174244000D03*
X259146800Y-174244000D03*
%TD*%
%TO.C,C52*%
X150344000Y-192324000D03*
X150344000Y-197324000D03*
%TD*%
%TO.C,C54*%
X275036000Y-87098000D03*
X270036000Y-87098000D03*
%TD*%
D21*
%TO.C,C62*%
X209844000Y-85344000D03*
D13*
X212344000Y-85344000D03*
%TD*%
D21*
%TO.C,C58*%
X224322000Y-84836000D03*
D13*
X226822000Y-84836000D03*
%TD*%
%TO.C,C24*%
X268270000Y-115086000D03*
X273270000Y-115086000D03*
%TD*%
%TO.C,C23*%
X268986000Y-147320000D03*
X273986000Y-147320000D03*
%TD*%
%TO.C,C27*%
X284504000Y-256494000D03*
X284504000Y-251494000D03*
%TD*%
%TO.C,C19*%
X264898000Y-202230000D03*
X264898000Y-207230000D03*
%TD*%
%TO.C,C31*%
X284456000Y-262682000D03*
X284456000Y-267682000D03*
%TD*%
%TO.C,C38*%
X182164000Y-174268000D03*
X187164000Y-174268000D03*
%TD*%
%TO.C,C15*%
X90470000Y-266978000D03*
X95470000Y-266978000D03*
%TD*%
%TO.C,C11*%
X135104000Y-192324000D03*
X135104000Y-197324000D03*
%TD*%
%TO.C,C7*%
X210612000Y-174268000D03*
X215612000Y-174268000D03*
%TD*%
%TO.C,C20*%
X224816400Y-174244000D03*
X229816400Y-174244000D03*
%TD*%
%TO.C,C16*%
X174070000Y-248412000D03*
X179070000Y-248412000D03*
%TD*%
%TO.C,C12*%
X140716000Y-267636000D03*
X140716000Y-262636000D03*
%TD*%
%TO.C,C8*%
X268812000Y-174244000D03*
X273812000Y-174244000D03*
%TD*%
%TO.C,C5*%
X205820000Y-154178000D03*
X210820000Y-154178000D03*
%TD*%
%TO.C,C13*%
X195580000Y-131572000D03*
X190580000Y-131572000D03*
%TD*%
%TO.C,C21*%
X165825000Y-161929000D03*
X170825000Y-161929000D03*
%TD*%
D21*
%TO.C,C61*%
X217718000Y-85090000D03*
D13*
X220218000Y-85090000D03*
%TD*%
D21*
%TO.C,C35*%
X109006000Y-287426400D03*
D13*
X111506000Y-287426400D03*
%TD*%
D21*
%TO.C,C2*%
X83523000Y-118267800D03*
D13*
X86023000Y-118267800D03*
%TD*%
D21*
%TO.C,C3*%
X125310000Y-118267800D03*
D13*
X127810000Y-118267800D03*
%TD*%
D21*
%TO.C,C28*%
X112816000Y-278384000D03*
D13*
X115316000Y-278384000D03*
%TD*%
D21*
%TO.C,C63*%
X209844000Y-95250000D03*
D13*
X212344000Y-95250000D03*
%TD*%
D21*
%TO.C,C4*%
X104329600Y-118267800D03*
D13*
X106829600Y-118267800D03*
%TD*%
D21*
%TO.C,C1*%
X145103400Y-118267800D03*
D13*
X147603400Y-118267800D03*
%TD*%
D21*
%TO.C,C64*%
X210098000Y-104394000D03*
D13*
X212598000Y-104394000D03*
%TD*%
D22*
%TO.C,X1*%
X274411400Y-125063600D03*
X274411400Y-123563600D03*
%TD*%
D23*
%TO.C,P6*%
X149040400Y-66372400D03*
D24*
X149040400Y-66372400D03*
%TD*%
D23*
%TO.C,P5*%
X83000400Y-293702400D03*
D24*
X83000400Y-293702400D03*
%TD*%
D23*
%TO.C,P3*%
X103320400Y-293702400D03*
D24*
X103320400Y-293702400D03*
%TD*%
D23*
%TO.C,P2*%
X103320400Y-66372400D03*
D24*
X103320400Y-66372400D03*
%TD*%
D23*
%TO.C,P7*%
X83000400Y-66372400D03*
D24*
X83000400Y-66372400D03*
%TD*%
D25*
%TO.C,P11*%
X203221100Y-295829020D03*
X203221100Y-290327380D03*
X199019940Y-295829020D03*
X199019940Y-290327380D03*
X194821320Y-295829020D03*
X194821320Y-290327380D03*
X190620160Y-295829020D03*
X190620160Y-290327380D03*
X186421540Y-295829020D03*
X186421540Y-290327380D03*
X182220380Y-295829020D03*
X182220380Y-290327380D03*
X178021760Y-295829020D03*
X178021760Y-290327380D03*
X173820600Y-295829020D03*
X173820600Y-290327380D03*
X169621980Y-295829020D03*
X169621980Y-290327380D03*
X165420820Y-295829020D03*
X165420820Y-290327380D03*
%TD*%
D13*
%TO.C,C37*%
X195486000Y-174244000D03*
X200486000Y-174244000D03*
%TD*%
%TO.C,C6*%
X84916000Y-191770000D03*
X89916000Y-191770000D03*
%TD*%
%TO.C,C10*%
X176864000Y-202946000D03*
X181864000Y-202946000D03*
%TD*%
%TO.C,C18*%
X253826000Y-87122000D03*
X258826000Y-87122000D03*
%TD*%
%TO.C,C22*%
X282424000Y-202230000D03*
X282424000Y-207230000D03*
%TD*%
%TO.C,C26*%
X279734000Y-174244000D03*
X284734000Y-174244000D03*
%TD*%
%TO.C,C30*%
X232998000Y-115062000D03*
X237998000Y-115062000D03*
%TD*%
%TO.C,C33*%
X299950000Y-64308000D03*
X299950000Y-69308000D03*
%TD*%
%TO.C,C40*%
X243886000Y-202462000D03*
X248886000Y-202462000D03*
%TD*%
%TO.C,C43*%
X142050600Y-161116200D03*
X147050600Y-161116200D03*
%TD*%
%TO.C,C45*%
X191308000Y-202970000D03*
X196308000Y-202970000D03*
%TD*%
%TO.C,C47*%
X101138000Y-199668000D03*
X106138000Y-199668000D03*
%TD*%
%TO.C,C49*%
X90250000Y-229616000D03*
X95250000Y-229616000D03*
%TD*%
%TO.C,C51*%
X247396000Y-243760000D03*
X247396000Y-238760000D03*
%TD*%
%TO.C,C53*%
X272796000Y-227076000D03*
X277796000Y-227076000D03*
%TD*%
D15*
%TO.C,U26*%
X266954000Y-92456000D03*
D16*
X266954000Y-94996000D03*
X266954000Y-97536000D03*
X266954000Y-100076000D03*
X266954000Y-102616000D03*
X266954000Y-105156000D03*
X266954000Y-107696000D03*
X274574000Y-107696000D03*
X274574000Y-105156000D03*
X274574000Y-102616000D03*
X274574000Y-100076000D03*
X274574000Y-97536000D03*
X274574000Y-94996000D03*
X274574000Y-92456000D03*
%TD*%
D15*
%TO.C,U2*%
X244703600Y-179070000D03*
D16*
X244703600Y-181610000D03*
X244703600Y-184150000D03*
X244703600Y-186690000D03*
X244703600Y-189230000D03*
X244703600Y-191770000D03*
X244703600Y-194310000D03*
X252323600Y-194310000D03*
X252323600Y-191770000D03*
X252323600Y-189230000D03*
X252323600Y-186690000D03*
X252323600Y-184150000D03*
X252323600Y-181610000D03*
X252323600Y-179070000D03*
%TD*%
D15*
%TO.C,U25*%
X280162000Y-64770000D03*
D16*
X280162000Y-67310000D03*
X280162000Y-69850000D03*
X280162000Y-72390000D03*
X280162000Y-74930000D03*
X280162000Y-77470000D03*
X280162000Y-80010000D03*
X280162000Y-82550000D03*
X280162000Y-85090000D03*
X280162000Y-87630000D03*
X280162000Y-90170000D03*
X280162000Y-92710000D03*
X280162000Y-95250000D03*
X280162000Y-97790000D03*
X280162000Y-100330000D03*
X280162000Y-102870000D03*
X280162000Y-105410000D03*
X280162000Y-107950000D03*
X280162000Y-110490000D03*
X280162000Y-113030000D03*
X295402000Y-113030000D03*
X295402000Y-110490000D03*
X295402000Y-107950000D03*
X295402000Y-105410000D03*
X295402000Y-102870000D03*
X295402000Y-100330000D03*
X295402000Y-97790000D03*
X295402000Y-95250000D03*
X295402000Y-92710000D03*
X295402000Y-90170000D03*
X295402000Y-87630000D03*
X295402000Y-85090000D03*
X295402000Y-82550000D03*
X295402000Y-80010000D03*
X295402000Y-77470000D03*
X295402000Y-74930000D03*
X295402000Y-72390000D03*
X295402000Y-69850000D03*
X295402000Y-67310000D03*
X295402000Y-64770000D03*
%TD*%
D15*
%TO.C,U4*%
X112014000Y-168910000D03*
D16*
X112014000Y-171450000D03*
X112014000Y-173990000D03*
X112014000Y-176530000D03*
X112014000Y-179070000D03*
X112014000Y-181610000D03*
X112014000Y-184150000D03*
X112014000Y-186690000D03*
X112014000Y-189230000D03*
X112014000Y-191770000D03*
X119634000Y-191770000D03*
X119634000Y-189230000D03*
X119634000Y-186690000D03*
X119634000Y-184150000D03*
X119634000Y-181610000D03*
X119634000Y-179070000D03*
X119634000Y-176530000D03*
X119634000Y-173990000D03*
X119634000Y-171450000D03*
X119634000Y-168910000D03*
%TD*%
D15*
%TO.C,U6*%
X74676000Y-196342000D03*
D16*
X74676000Y-198882000D03*
X74676000Y-201422000D03*
X74676000Y-203962000D03*
X74676000Y-206502000D03*
X74676000Y-209042000D03*
X74676000Y-211582000D03*
X82296000Y-211582000D03*
X82296000Y-209042000D03*
X82296000Y-206502000D03*
X82296000Y-203962000D03*
X82296000Y-201422000D03*
X82296000Y-198882000D03*
X82296000Y-196342000D03*
%TD*%
D15*
%TO.C,U5*%
X225552000Y-139954000D03*
D16*
X225552000Y-142494000D03*
X225552000Y-145034000D03*
X225552000Y-147574000D03*
X225552000Y-150114000D03*
X225552000Y-152654000D03*
X225552000Y-155194000D03*
X233172000Y-155194000D03*
X233172000Y-152654000D03*
X233172000Y-150114000D03*
X233172000Y-147574000D03*
X233172000Y-145034000D03*
X233172000Y-142494000D03*
X233172000Y-139954000D03*
%TD*%
D15*
%TO.C,U35*%
X239268000Y-92964000D03*
D16*
X239268000Y-95504000D03*
X239268000Y-98044000D03*
X239268000Y-100584000D03*
X239268000Y-103124000D03*
X239268000Y-105664000D03*
X239268000Y-108204000D03*
X239268000Y-110744000D03*
X246888000Y-110744000D03*
X246888000Y-108204000D03*
X246888000Y-105664000D03*
X246888000Y-103124000D03*
X246888000Y-100584000D03*
X246888000Y-98044000D03*
X246888000Y-95504000D03*
X246888000Y-92964000D03*
%TD*%
D13*
%TO.C,R5*%
X117856000Y-263652000D03*
D14*
X125476000Y-263652000D03*
%TD*%
D13*
%TO.C,C41*%
X247650000Y-251794000D03*
X247650000Y-256794000D03*
%TD*%
D21*
%TO.C,C109*%
X207304000Y-136398000D03*
D13*
X209804000Y-136398000D03*
%TD*%
%TO.C,C32*%
X184175400Y-161950400D03*
X189175400Y-161950400D03*
%TD*%
D21*
%TO.C,C72*%
X246551000Y-84829000D03*
D13*
X249051000Y-84829000D03*
%TD*%
D26*
%TO.C,J16*%
X249811560Y-64515980D03*
X252407440Y-64515980D03*
X247710980Y-64515980D03*
X254508020Y-64515980D03*
X247710980Y-66964540D03*
X254508020Y-67015340D03*
D27*
X257909080Y-61516240D03*
X251109500Y-60718680D03*
X244360720Y-61516240D03*
%TD*%
D23*
%TO.C,P21*%
X306520400Y-89232400D03*
D24*
X306520400Y-89232400D03*
%TD*%
D15*
%TO.C,U68*%
X172974000Y-178816000D03*
D16*
X172974000Y-181356000D03*
X172974000Y-183896000D03*
X172974000Y-186436000D03*
X172974000Y-188976000D03*
X172974000Y-191516000D03*
X172974000Y-194056000D03*
X172974000Y-196596000D03*
X180594000Y-196596000D03*
X180594000Y-194056000D03*
X180594000Y-191516000D03*
X180594000Y-188976000D03*
X180594000Y-186436000D03*
X180594000Y-183896000D03*
X180594000Y-181356000D03*
X180594000Y-178816000D03*
%TD*%
D15*
%TO.C,U47*%
X262575000Y-120110600D03*
D16*
X262575000Y-122650600D03*
X262575000Y-125190600D03*
X262575000Y-127730600D03*
X262575000Y-130270600D03*
X262575000Y-132810600D03*
X262575000Y-135350600D03*
X262575000Y-137890600D03*
X262575000Y-140430600D03*
X270195000Y-140430600D03*
X270195000Y-137890600D03*
X270195000Y-135350600D03*
X270195000Y-132810600D03*
X270195000Y-130270600D03*
X270195000Y-127730600D03*
X270195000Y-125190600D03*
X270195000Y-122650600D03*
X270195000Y-120110600D03*
%TD*%
D15*
%TO.C,U32*%
X252222000Y-233680000D03*
D16*
X252222000Y-236220000D03*
X252222000Y-238760000D03*
X252222000Y-241300000D03*
X252222000Y-243840000D03*
X252222000Y-246380000D03*
X252222000Y-248920000D03*
X252222000Y-251460000D03*
X259842000Y-251460000D03*
X259842000Y-248920000D03*
X259842000Y-246380000D03*
X259842000Y-243840000D03*
X259842000Y-241300000D03*
X259842000Y-238760000D03*
X259842000Y-236220000D03*
X259842000Y-233680000D03*
%TD*%
D10*
%TO.C,J18*%
X216662000Y-72898000D03*
D12*
X216662000Y-75438000D03*
%TD*%
D13*
%TO.C,R8*%
X213360000Y-201168000D03*
D14*
X220980000Y-201168000D03*
%TD*%
D28*
%TO.C,J14*%
X174465800Y-81666400D03*
X174465800Y-84206400D03*
X174465800Y-86746400D03*
X174465800Y-89286400D03*
X174465800Y-91826400D03*
X174465800Y-94366400D03*
X174465800Y-96906400D03*
X174465800Y-99446400D03*
X174465800Y-101986400D03*
X174465800Y-104526400D03*
X174465800Y-107066400D03*
X174465800Y-109606400D03*
X174465800Y-112146400D03*
X174465800Y-114686400D03*
X174465800Y-117226400D03*
X174465800Y-119766400D03*
X174465800Y-122306400D03*
X174465800Y-124846400D03*
X174465800Y-127386400D03*
X174465800Y-129926400D03*
X174465800Y-132466400D03*
X174465800Y-135006400D03*
X174465800Y-137546400D03*
X174465800Y-140086400D03*
X174465800Y-142626400D03*
X174465800Y-145166400D03*
X174465800Y-147706400D03*
X174465800Y-150246400D03*
X174465800Y-152786400D03*
X174465800Y-155326400D03*
X174465800Y-157866400D03*
X179545800Y-81666400D03*
X179545800Y-84206400D03*
X179545800Y-86746400D03*
X179545800Y-89286400D03*
X179545800Y-91826400D03*
X179545800Y-94366400D03*
X179545800Y-96906400D03*
X179545800Y-99446400D03*
X179545800Y-101986400D03*
X179545800Y-104526400D03*
X179545800Y-107066400D03*
X179545800Y-109606400D03*
X179545800Y-112146400D03*
X179545800Y-114686400D03*
X179545800Y-117226400D03*
X179545800Y-119766400D03*
X179545800Y-122306400D03*
X179545800Y-124846400D03*
X179545800Y-127386400D03*
X179545800Y-129926400D03*
X179545800Y-132466400D03*
X179545800Y-135006400D03*
X179545800Y-137546400D03*
X179545800Y-140086400D03*
X179545800Y-142626400D03*
X179545800Y-145166400D03*
X179545800Y-147706400D03*
X179545800Y-150246400D03*
X179545800Y-152786400D03*
X179545800Y-155326400D03*
X179545800Y-157866400D03*
%TD*%
D13*
%TO.C,R36*%
X233968000Y-276376000D03*
D14*
X241588000Y-276376000D03*
%TD*%
D10*
%TO.C,J2*%
X103308800Y-142372400D03*
D12*
X105848800Y-142372400D03*
X103308800Y-144912400D03*
X105848800Y-144912400D03*
X103308800Y-147452400D03*
X105848800Y-147452400D03*
X103308800Y-149992400D03*
X105848800Y-149992400D03*
X103308800Y-152532400D03*
X105848800Y-152532400D03*
X103308800Y-155072400D03*
X105848800Y-155072400D03*
%TD*%
D13*
%TO.C,R13*%
X127024000Y-109948000D03*
D14*
X127024000Y-102328000D03*
%TD*%
D28*
%TO.C,J10*%
X154145800Y-81666400D03*
X154145800Y-84206400D03*
X154145800Y-86746400D03*
X154145800Y-89286400D03*
X154145800Y-91826400D03*
X154145800Y-94366400D03*
X154145800Y-96906400D03*
X154145800Y-99446400D03*
X154145800Y-101986400D03*
X154145800Y-104526400D03*
X154145800Y-107066400D03*
X154145800Y-109606400D03*
X154145800Y-112146400D03*
X154145800Y-114686400D03*
X154145800Y-117226400D03*
X154145800Y-119766400D03*
X154145800Y-122306400D03*
X154145800Y-124846400D03*
X154145800Y-127386400D03*
X154145800Y-129926400D03*
X154145800Y-132466400D03*
X154145800Y-135006400D03*
X154145800Y-137546400D03*
X154145800Y-140086400D03*
X154145800Y-142626400D03*
X154145800Y-145166400D03*
X154145800Y-147706400D03*
X154145800Y-150246400D03*
X154145800Y-152786400D03*
X154145800Y-155326400D03*
X154145800Y-157866400D03*
X159225800Y-81666400D03*
X159225800Y-84206400D03*
X159225800Y-86746400D03*
X159225800Y-89286400D03*
X159225800Y-91826400D03*
X159225800Y-94366400D03*
X159225800Y-96906400D03*
X159225800Y-99446400D03*
X159225800Y-101986400D03*
X159225800Y-104526400D03*
X159225800Y-107066400D03*
X159225800Y-109606400D03*
X159225800Y-112146400D03*
X159225800Y-114686400D03*
X159225800Y-117226400D03*
X159225800Y-119766400D03*
X159225800Y-122306400D03*
X159225800Y-124846400D03*
X159225800Y-127386400D03*
X159225800Y-129926400D03*
X159225800Y-132466400D03*
X159225800Y-135006400D03*
X159225800Y-137546400D03*
X159225800Y-140086400D03*
X159225800Y-142626400D03*
X159225800Y-145166400D03*
X159225800Y-147706400D03*
X159225800Y-150246400D03*
X159225800Y-152786400D03*
X159225800Y-155326400D03*
X159225800Y-157866400D03*
%TD*%
D15*
%TO.C,U3*%
X110744000Y-199644000D03*
D16*
X110744000Y-202184000D03*
X110744000Y-204724000D03*
X110744000Y-207264000D03*
X110744000Y-209804000D03*
X110744000Y-212344000D03*
X110744000Y-214884000D03*
X110744000Y-217424000D03*
X110744000Y-219964000D03*
X110744000Y-222504000D03*
X118364000Y-222504000D03*
X118364000Y-219964000D03*
X118364000Y-217424000D03*
X118364000Y-214884000D03*
X118364000Y-212344000D03*
X118364000Y-209804000D03*
X118364000Y-207264000D03*
X118364000Y-204724000D03*
X118364000Y-202184000D03*
X118364000Y-199644000D03*
%TD*%
D10*
%TO.C,P13*%
X226568000Y-59182000D03*
D12*
X229108000Y-59182000D03*
X226568000Y-61722000D03*
X229108000Y-61722000D03*
X226568000Y-64262000D03*
X229108000Y-64262000D03*
X226568000Y-66802000D03*
X229108000Y-66802000D03*
X226568000Y-69342000D03*
X229108000Y-69342000D03*
%TD*%
D13*
%TO.C,R19*%
X213360000Y-141224000D03*
D14*
X220980000Y-141224000D03*
%TD*%
D15*
%TO.C,U55*%
X252222000Y-202692000D03*
D16*
X252222000Y-205232000D03*
X252222000Y-207772000D03*
X252222000Y-210312000D03*
X252222000Y-212852000D03*
X252222000Y-215392000D03*
X252222000Y-217932000D03*
X252222000Y-220472000D03*
X252222000Y-223012000D03*
X252222000Y-225552000D03*
X259842000Y-225552000D03*
X259842000Y-223012000D03*
X259842000Y-220472000D03*
X259842000Y-217932000D03*
X259842000Y-215392000D03*
X259842000Y-212852000D03*
X259842000Y-210312000D03*
X259842000Y-207772000D03*
X259842000Y-205232000D03*
X259842000Y-202692000D03*
%TD*%
D23*
%TO.C,P23*%
X103320400Y-221312400D03*
D24*
X103320400Y-221312400D03*
%TD*%
D10*
%TO.C,J9*%
X164001000Y-142347000D03*
D12*
X166541000Y-142347000D03*
X164001000Y-144887000D03*
X166541000Y-144887000D03*
X164001000Y-147427000D03*
X166541000Y-147427000D03*
X164001000Y-149967000D03*
X166541000Y-149967000D03*
X164001000Y-152507000D03*
X166541000Y-152507000D03*
X164001000Y-155047000D03*
X166541000Y-155047000D03*
%TD*%
D19*
%TO.C,D3*%
X283464000Y-148082000D03*
D20*
X283464000Y-137922000D03*
%TD*%
D29*
%TO.C,D11*%
X113452000Y-256033000D03*
D30*
X115992000Y-256033000D03*
%TD*%
D10*
%TO.C,K17*%
X208780000Y-202924000D03*
D12*
X206240000Y-202924000D03*
X203700000Y-202924000D03*
%TD*%
D26*
%TO.C,J15*%
X268254460Y-64467780D03*
X270850340Y-64467780D03*
X266153880Y-64467780D03*
X272950920Y-64467780D03*
X266153880Y-66916340D03*
X272950920Y-66967140D03*
D27*
X276351980Y-61468040D03*
X269552400Y-60670480D03*
X262803620Y-61468040D03*
%TD*%
D13*
%TO.C,C60*%
X274669200Y-132709000D03*
X279669200Y-132709000D03*
%TD*%
%TO.C,R42*%
X219480000Y-241774000D03*
D14*
X219480000Y-234154000D03*
%TD*%
D17*
%TO.C,U58*%
X226084000Y-256574000D03*
D18*
X228624000Y-256574000D03*
X231164000Y-256574000D03*
X233704000Y-256574000D03*
X236244000Y-256574000D03*
X238784000Y-256574000D03*
X241324000Y-256574000D03*
X243864000Y-256574000D03*
X243864000Y-248954000D03*
X241324000Y-248954000D03*
X238784000Y-248954000D03*
X236244000Y-248954000D03*
X233704000Y-248954000D03*
X231164000Y-248954000D03*
X228624000Y-248954000D03*
X226084000Y-248954000D03*
%TD*%
D23*
%TO.C,P10*%
X306520400Y-293702400D03*
D24*
X306520400Y-293702400D03*
%TD*%
D17*
%TO.C,U12*%
X120904000Y-281432000D03*
D18*
X123444000Y-281432000D03*
X125984000Y-281432000D03*
X128524000Y-281432000D03*
X131064000Y-281432000D03*
X133604000Y-281432000D03*
X136144000Y-281432000D03*
X136144000Y-273812000D03*
X133604000Y-273812000D03*
X131064000Y-273812000D03*
X128524000Y-273812000D03*
X125984000Y-273812000D03*
X123444000Y-273812000D03*
X120904000Y-273812000D03*
%TD*%
D21*
%TO.C,C17*%
X165216200Y-118541800D03*
D13*
X167716200Y-118541800D03*
%TD*%
%TO.C,R46*%
X156464000Y-247650000D03*
D14*
X164084000Y-247650000D03*
%TD*%
D29*
%TO.C,D6*%
X132588000Y-256032000D03*
D30*
X135128000Y-256032000D03*
%TD*%
D31*
%TO.C,RV1*%
X200914000Y-89662000D03*
X200914000Y-92202000D03*
X200914000Y-94742000D03*
%TD*%
D21*
%TO.C,C55*%
X239054000Y-84836000D03*
D13*
X241554000Y-84836000D03*
%TD*%
D28*
%TO.C,J8*%
X133825800Y-81666400D03*
X133825800Y-84206400D03*
X133825800Y-86746400D03*
X133825800Y-89286400D03*
X133825800Y-91826400D03*
X133825800Y-94366400D03*
X133825800Y-96906400D03*
X133825800Y-99446400D03*
X133825800Y-101986400D03*
X133825800Y-104526400D03*
X133825800Y-107066400D03*
X133825800Y-109606400D03*
X133825800Y-112146400D03*
X133825800Y-114686400D03*
X133825800Y-117226400D03*
X133825800Y-119766400D03*
X133825800Y-122306400D03*
X133825800Y-124846400D03*
X133825800Y-127386400D03*
X133825800Y-129926400D03*
X133825800Y-132466400D03*
X133825800Y-135006400D03*
X133825800Y-137546400D03*
X133825800Y-140086400D03*
X133825800Y-142626400D03*
X133825800Y-145166400D03*
X133825800Y-147706400D03*
X133825800Y-150246400D03*
X133825800Y-152786400D03*
X133825800Y-155326400D03*
X133825800Y-157866400D03*
X138905800Y-81666400D03*
X138905800Y-84206400D03*
X138905800Y-86746400D03*
X138905800Y-89286400D03*
X138905800Y-91826400D03*
X138905800Y-94366400D03*
X138905800Y-96906400D03*
X138905800Y-99446400D03*
X138905800Y-101986400D03*
X138905800Y-104526400D03*
X138905800Y-107066400D03*
X138905800Y-109606400D03*
X138905800Y-112146400D03*
X138905800Y-114686400D03*
X138905800Y-117226400D03*
X138905800Y-119766400D03*
X138905800Y-122306400D03*
X138905800Y-124846400D03*
X138905800Y-127386400D03*
X138905800Y-129926400D03*
X138905800Y-132466400D03*
X138905800Y-135006400D03*
X138905800Y-137546400D03*
X138905800Y-140086400D03*
X138905800Y-142626400D03*
X138905800Y-145166400D03*
X138905800Y-147706400D03*
X138905800Y-150246400D03*
X138905800Y-152786400D03*
X138905800Y-155326400D03*
X138905800Y-157866400D03*
%TD*%
D10*
%TO.C,J21*%
X194564000Y-263906000D03*
D11*
X197104000Y-263906000D03*
X194564000Y-266446000D03*
X197104000Y-266446000D03*
%TD*%
D23*
%TO.C,P9*%
X306520400Y-221312400D03*
D24*
X306520400Y-221312400D03*
%TD*%
D10*
%TO.C,P51*%
X189230000Y-98044000D03*
D12*
X191770000Y-98044000D03*
X189230000Y-100584000D03*
X191770000Y-100584000D03*
X189230000Y-103124000D03*
X191770000Y-103124000D03*
X189230000Y-105664000D03*
X191770000Y-105664000D03*
X189230000Y-108204000D03*
X191770000Y-108204000D03*
%TD*%
D32*
%TO.C,BT1*%
X287528000Y-127762000D03*
D33*
X308328000Y-127762000D03*
%TD*%
D19*
%TO.C,D5*%
X307162000Y-203628000D03*
D20*
X307162000Y-213788000D03*
%TD*%
D10*
%TO.C,K3*%
X133038000Y-234442000D03*
D12*
X133038000Y-236982000D03*
X133038000Y-239522000D03*
%TD*%
D34*
%TO.C,U51*%
X196276000Y-61858000D03*
D35*
X199476000Y-63158000D03*
X199476000Y-70158000D03*
D34*
X201776000Y-64858000D03*
X201776000Y-61858000D03*
X197276000Y-70358000D03*
D36*
X201776000Y-68858000D03*
%TD*%
D23*
%TO.C,P4*%
X149040400Y-293702400D03*
D24*
X149040400Y-293702400D03*
%TD*%
D15*
%TO.C,U10*%
X217678000Y-92964000D03*
D16*
X217678000Y-95504000D03*
X217678000Y-98044000D03*
X217678000Y-100584000D03*
X217678000Y-103124000D03*
X217678000Y-105664000D03*
X217678000Y-108204000D03*
X217678000Y-110744000D03*
X225298000Y-110744000D03*
X225298000Y-108204000D03*
X225298000Y-105664000D03*
X225298000Y-103124000D03*
X225298000Y-100584000D03*
X225298000Y-98044000D03*
X225298000Y-95504000D03*
X225298000Y-92964000D03*
%TD*%
D10*
%TO.C,K16*%
X146988000Y-234442000D03*
D12*
X146988000Y-236982000D03*
X146988000Y-239522000D03*
%TD*%
D15*
%TO.C,U24*%
X254254000Y-92710000D03*
D16*
X254254000Y-95250000D03*
X254254000Y-97790000D03*
X254254000Y-100330000D03*
X254254000Y-102870000D03*
X254254000Y-105410000D03*
X254254000Y-107950000D03*
X261874000Y-107950000D03*
X261874000Y-105410000D03*
X261874000Y-102870000D03*
X261874000Y-100330000D03*
X261874000Y-97790000D03*
X261874000Y-95250000D03*
X261874000Y-92710000D03*
%TD*%
D10*
%TO.C,K4*%
X137688000Y-234442000D03*
D12*
X137688000Y-236982000D03*
X137688000Y-239522000D03*
%TD*%
D28*
%TO.C,J4*%
X93185800Y-81666400D03*
X93185800Y-84206400D03*
X93185800Y-86746400D03*
X93185800Y-89286400D03*
X93185800Y-91826400D03*
X93185800Y-94366400D03*
X93185800Y-96906400D03*
X93185800Y-99446400D03*
X93185800Y-101986400D03*
X93185800Y-104526400D03*
X93185800Y-107066400D03*
X93185800Y-109606400D03*
X93185800Y-112146400D03*
X93185800Y-114686400D03*
X93185800Y-117226400D03*
X93185800Y-119766400D03*
X93185800Y-122306400D03*
X93185800Y-124846400D03*
X93185800Y-127386400D03*
X93185800Y-129926400D03*
X93185800Y-132466400D03*
X93185800Y-135006400D03*
X93185800Y-137546400D03*
X93185800Y-140086400D03*
X93185800Y-142626400D03*
X93185800Y-145166400D03*
X93185800Y-147706400D03*
X93185800Y-150246400D03*
X93185800Y-152786400D03*
X93185800Y-155326400D03*
X93185800Y-157866400D03*
X98265800Y-81666400D03*
X98265800Y-84206400D03*
X98265800Y-86746400D03*
X98265800Y-89286400D03*
X98265800Y-91826400D03*
X98265800Y-94366400D03*
X98265800Y-96906400D03*
X98265800Y-99446400D03*
X98265800Y-101986400D03*
X98265800Y-104526400D03*
X98265800Y-107066400D03*
X98265800Y-109606400D03*
X98265800Y-112146400D03*
X98265800Y-114686400D03*
X98265800Y-117226400D03*
X98265800Y-119766400D03*
X98265800Y-122306400D03*
X98265800Y-124846400D03*
X98265800Y-127386400D03*
X98265800Y-129926400D03*
X98265800Y-132466400D03*
X98265800Y-135006400D03*
X98265800Y-137546400D03*
X98265800Y-140086400D03*
X98265800Y-142626400D03*
X98265800Y-145166400D03*
X98265800Y-147706400D03*
X98265800Y-150246400D03*
X98265800Y-152786400D03*
X98265800Y-155326400D03*
X98265800Y-157866400D03*
%TD*%
D10*
%TO.C,P52*%
X189230000Y-79248000D03*
D12*
X191770000Y-79248000D03*
X189230000Y-81788000D03*
X191770000Y-81788000D03*
X189230000Y-84328000D03*
X191770000Y-84328000D03*
X189230000Y-86868000D03*
X191770000Y-86868000D03*
X189230000Y-89408000D03*
X191770000Y-89408000D03*
%TD*%
D10*
%TO.C,J19*%
X208534000Y-59182000D03*
D12*
X211074000Y-59182000D03*
X213614000Y-59182000D03*
X216154000Y-59182000D03*
X218694000Y-59182000D03*
X221234000Y-59182000D03*
%TD*%
D23*
%TO.C,P22*%
X83000400Y-221312400D03*
D24*
X83000400Y-221312400D03*
%TD*%
D19*
%TO.C,D4*%
X278384000Y-148082000D03*
D20*
X278384000Y-137922000D03*
%TD*%
D13*
%TO.C,R9*%
X147334000Y-211836000D03*
D14*
X147334000Y-204216000D03*
%TD*%
D29*
%TO.C,D9*%
X121158000Y-245110000D03*
D30*
X123698000Y-245110000D03*
%TD*%
D13*
%TO.C,R22*%
X213360000Y-154432000D03*
D14*
X220980000Y-154432000D03*
%TD*%
D15*
%TO.C,U31*%
X125476000Y-203962000D03*
D16*
X125476000Y-206502000D03*
X125476000Y-209042000D03*
X125476000Y-211582000D03*
X125476000Y-214122000D03*
X125476000Y-216662000D03*
X125476000Y-219202000D03*
X125476000Y-221742000D03*
X125476000Y-224282000D03*
X125476000Y-226822000D03*
X133096000Y-226822000D03*
X133096000Y-224282000D03*
X133096000Y-221742000D03*
X133096000Y-219202000D03*
X133096000Y-216662000D03*
X133096000Y-214122000D03*
X133096000Y-211582000D03*
X133096000Y-209042000D03*
X133096000Y-206502000D03*
X133096000Y-203962000D03*
%TD*%
D10*
%TO.C,JP2*%
X238474000Y-75460000D03*
D12*
X241014000Y-75460000D03*
%TD*%
D15*
%TO.C,U16*%
X89662000Y-236982000D03*
D16*
X89662000Y-239522000D03*
X89662000Y-242062000D03*
X89662000Y-244602000D03*
X89662000Y-247142000D03*
X89662000Y-249682000D03*
X89662000Y-252222000D03*
X89662000Y-254762000D03*
X89662000Y-257302000D03*
X89662000Y-259842000D03*
X97282000Y-259842000D03*
X97282000Y-257302000D03*
X97282000Y-254762000D03*
X97282000Y-252222000D03*
X97282000Y-249682000D03*
X97282000Y-247142000D03*
X97282000Y-244602000D03*
X97282000Y-242062000D03*
X97282000Y-239522000D03*
X97282000Y-236982000D03*
%TD*%
D17*
%TO.C,U67*%
X195580000Y-167386000D03*
D18*
X198120000Y-167386000D03*
X200660000Y-167386000D03*
X203200000Y-167386000D03*
X205740000Y-167386000D03*
X208280000Y-167386000D03*
X210820000Y-167386000D03*
X213360000Y-167386000D03*
X213360000Y-159766000D03*
X210820000Y-159766000D03*
X208280000Y-159766000D03*
X205740000Y-159766000D03*
X203200000Y-159766000D03*
X200660000Y-159766000D03*
X198120000Y-159766000D03*
X195580000Y-159766000D03*
%TD*%
D10*
%TO.C,J20*%
X221488000Y-72898000D03*
D12*
X221488000Y-75438000D03*
%TD*%
D10*
%TO.C,J7*%
X143953800Y-142372400D03*
D12*
X146493800Y-142372400D03*
X143953800Y-144912400D03*
X146493800Y-144912400D03*
X143953800Y-147452400D03*
X146493800Y-147452400D03*
X143953800Y-149992400D03*
X146493800Y-149992400D03*
X143953800Y-152532400D03*
X146493800Y-152532400D03*
X143953800Y-155072400D03*
X146493800Y-155072400D03*
%TD*%
D37*
%TO.C,U52*%
X198120000Y-214630000D03*
D26*
X198120000Y-217170000D03*
X195580000Y-214630000D03*
X195580000Y-217170000D03*
X193040000Y-214630000D03*
X193040000Y-217170000D03*
X190500000Y-214630000D03*
X190500000Y-217170000D03*
X187960000Y-214630000D03*
X185420000Y-217170000D03*
X187960000Y-217170000D03*
X185420000Y-219710000D03*
X187960000Y-219710000D03*
X185420000Y-222250000D03*
X187960000Y-222250000D03*
X185420000Y-224790000D03*
X187960000Y-224790000D03*
X185420000Y-227330000D03*
X187960000Y-227330000D03*
X185420000Y-229870000D03*
X187960000Y-229870000D03*
X185420000Y-232410000D03*
X187960000Y-232410000D03*
X185420000Y-234950000D03*
X187960000Y-234950000D03*
X185420000Y-237490000D03*
X187960000Y-240030000D03*
X187960000Y-237490000D03*
X190500000Y-240030000D03*
X190500000Y-237490000D03*
X193040000Y-240030000D03*
X193040000Y-237490000D03*
X195580000Y-240030000D03*
X195580000Y-237490000D03*
X198120000Y-240030000D03*
X198120000Y-237490000D03*
X200660000Y-240030000D03*
X200660000Y-237490000D03*
X203200000Y-240030000D03*
X203200000Y-237490000D03*
X205740000Y-240030000D03*
X205740000Y-237490000D03*
X208280000Y-240030000D03*
X210820000Y-237490000D03*
X208280000Y-237490000D03*
X210820000Y-234950000D03*
X208280000Y-234950000D03*
X210820000Y-232410000D03*
X208280000Y-232410000D03*
X210820000Y-229870000D03*
X208280000Y-229870000D03*
X210820000Y-227330000D03*
X208280000Y-227330000D03*
X210820000Y-224790000D03*
X208280000Y-224790000D03*
X210820000Y-222250000D03*
X208280000Y-222250000D03*
X210820000Y-219710000D03*
X208280000Y-219710000D03*
X210820000Y-217170000D03*
X208280000Y-214630000D03*
X208280000Y-217170000D03*
X205740000Y-214630000D03*
X205740000Y-217170000D03*
X203200000Y-214630000D03*
X203200000Y-217170000D03*
X200660000Y-214630000D03*
X200660000Y-217170000D03*
%TD*%
D37*
%TO.C,U61*%
X169164000Y-256286000D03*
D26*
X166624000Y-253746000D03*
X166624000Y-256286000D03*
X164084000Y-253746000D03*
X164084000Y-256286000D03*
X161544000Y-253746000D03*
X159004000Y-256286000D03*
X161544000Y-256286000D03*
X159004000Y-258826000D03*
X161544000Y-258826000D03*
X159004000Y-261366000D03*
X161544000Y-261366000D03*
X159004000Y-263906000D03*
X161544000Y-263906000D03*
X159004000Y-266446000D03*
X161544000Y-266446000D03*
X159004000Y-268986000D03*
X161544000Y-271526000D03*
X161544000Y-268986000D03*
X164084000Y-271526000D03*
X164084000Y-268986000D03*
X166624000Y-271526000D03*
X166624000Y-268986000D03*
X169164000Y-271526000D03*
X169164000Y-268986000D03*
X171704000Y-271526000D03*
X171704000Y-268986000D03*
X174244000Y-271526000D03*
X176784000Y-268986000D03*
X174244000Y-268986000D03*
X176784000Y-266446000D03*
X174244000Y-266446000D03*
X176784000Y-263906000D03*
X174244000Y-263906000D03*
X176784000Y-261366000D03*
X174244000Y-261366000D03*
X176784000Y-258826000D03*
X174244000Y-258826000D03*
X176784000Y-256286000D03*
X174244000Y-253746000D03*
X174244000Y-256286000D03*
X171704000Y-253746000D03*
X171704000Y-256286000D03*
X169164000Y-253746000D03*
%TD*%
D21*
%TO.C,RN5*%
X106426000Y-235966000D03*
D13*
X108966000Y-235966000D03*
X111506000Y-235966000D03*
X114046000Y-235966000D03*
X116586000Y-235966000D03*
X119126000Y-235966000D03*
X121666000Y-235966000D03*
X124206000Y-235966000D03*
X126746000Y-235966000D03*
%TD*%
%TO.C,R11*%
X130302000Y-246126000D03*
D14*
X137922000Y-246126000D03*
%TD*%
D13*
%TO.C,R16*%
X213614000Y-132080000D03*
D14*
X221234000Y-132080000D03*
%TD*%
D21*
%TO.C,C67*%
X231434000Y-84836000D03*
D13*
X233934000Y-84836000D03*
%TD*%
D15*
%TO.C,U14*%
X259080000Y-179070000D03*
D16*
X259080000Y-181610000D03*
X259080000Y-184150000D03*
X259080000Y-186690000D03*
X259080000Y-189230000D03*
X259080000Y-191770000D03*
X259080000Y-194310000D03*
X266700000Y-194310000D03*
X266700000Y-191770000D03*
X266700000Y-189230000D03*
X266700000Y-186690000D03*
X266700000Y-184150000D03*
X266700000Y-181610000D03*
X266700000Y-179070000D03*
%TD*%
D10*
%TO.C,J1*%
X82612800Y-142372400D03*
D12*
X85152800Y-142372400D03*
X82612800Y-144912400D03*
X85152800Y-144912400D03*
X82612800Y-147452400D03*
X85152800Y-147452400D03*
X82612800Y-149992400D03*
X85152800Y-149992400D03*
X82612800Y-152532400D03*
X85152800Y-152532400D03*
X82612800Y-155072400D03*
X85152800Y-155072400D03*
%TD*%
D13*
%TO.C,R14*%
X106426000Y-109982000D03*
D14*
X106426000Y-102362000D03*
%TD*%
D10*
%TO.C,P43*%
X217932000Y-118364000D03*
D11*
X220472000Y-118364000D03*
X217932000Y-120904000D03*
X220472000Y-120904000D03*
%TD*%
D15*
%TO.C,U13*%
X157734000Y-202946000D03*
D16*
X157734000Y-205486000D03*
X157734000Y-208026000D03*
X157734000Y-210566000D03*
X157734000Y-213106000D03*
X157734000Y-215646000D03*
X157734000Y-218186000D03*
X157734000Y-220726000D03*
X157734000Y-223266000D03*
X157734000Y-225806000D03*
X157734000Y-228346000D03*
X157734000Y-230886000D03*
X157734000Y-233426000D03*
X157734000Y-235966000D03*
X157734000Y-238506000D03*
X157734000Y-241046000D03*
X172974000Y-241046000D03*
X172974000Y-238506000D03*
X172974000Y-235966000D03*
X172974000Y-233426000D03*
X172974000Y-230886000D03*
X172974000Y-228346000D03*
X172974000Y-225806000D03*
X172974000Y-223266000D03*
X172974000Y-220726000D03*
X172974000Y-218186000D03*
X172974000Y-215646000D03*
X172974000Y-213106000D03*
X172974000Y-210566000D03*
X172974000Y-208026000D03*
X172974000Y-205486000D03*
X172974000Y-202946000D03*
%TD*%
D21*
%TO.C,C101*%
X207304000Y-127254000D03*
D13*
X209804000Y-127254000D03*
%TD*%
D15*
%TO.C,U57*%
X138938000Y-173990000D03*
D16*
X138938000Y-176530000D03*
X138938000Y-179070000D03*
X138938000Y-181610000D03*
X138938000Y-184150000D03*
X138938000Y-186690000D03*
X138938000Y-189230000D03*
X138938000Y-191770000D03*
X138938000Y-194310000D03*
X138938000Y-196850000D03*
X146558000Y-196850000D03*
X146558000Y-194310000D03*
X146558000Y-191770000D03*
X146558000Y-189230000D03*
X146558000Y-186690000D03*
X146558000Y-184150000D03*
X146558000Y-181610000D03*
X146558000Y-179070000D03*
X146558000Y-176530000D03*
X146558000Y-173990000D03*
%TD*%
D13*
%TO.C,C59*%
X274826400Y-129027400D03*
X279826400Y-129027400D03*
%TD*%
D10*
%TO.C,K5*%
X142338000Y-234442000D03*
D12*
X142338000Y-236982000D03*
X142338000Y-239522000D03*
%TD*%
D13*
%TO.C,R12*%
X213106000Y-207518000D03*
D14*
X220726000Y-207518000D03*
%TD*%
D15*
%TO.C,U23*%
X292100000Y-146812000D03*
D16*
X292100000Y-149352000D03*
X292100000Y-151892000D03*
X292100000Y-154432000D03*
X292100000Y-156972000D03*
X292100000Y-159512000D03*
X292100000Y-162052000D03*
X292100000Y-164592000D03*
X292100000Y-167132000D03*
X292100000Y-169672000D03*
X292100000Y-172212000D03*
X292100000Y-174752000D03*
X292100000Y-177292000D03*
X292100000Y-179832000D03*
X292100000Y-182372000D03*
X292100000Y-184912000D03*
X292100000Y-187452000D03*
X292100000Y-189992000D03*
X292100000Y-192532000D03*
X292100000Y-195072000D03*
X307340000Y-195072000D03*
X307340000Y-192532000D03*
X307340000Y-189992000D03*
X307340000Y-187452000D03*
X307340000Y-184912000D03*
X307340000Y-182372000D03*
X307340000Y-179832000D03*
X307340000Y-177292000D03*
X307340000Y-174752000D03*
X307340000Y-172212000D03*
X307340000Y-169672000D03*
X307340000Y-167132000D03*
X307340000Y-164592000D03*
X307340000Y-162052000D03*
X307340000Y-159512000D03*
X307340000Y-156972000D03*
X307340000Y-154432000D03*
X307340000Y-151892000D03*
X307340000Y-149352000D03*
X307340000Y-146812000D03*
%TD*%
D10*
%TO.C,J11*%
X299212000Y-226314000D03*
D12*
X296672000Y-226314000D03*
X299212000Y-223774000D03*
X296672000Y-223774000D03*
X299212000Y-221234000D03*
X296672000Y-221234000D03*
X299212000Y-218694000D03*
X296672000Y-218694000D03*
X299212000Y-216154000D03*
X296672000Y-216154000D03*
X299212000Y-213614000D03*
X296672000Y-213614000D03*
X299212000Y-211074000D03*
X296672000Y-211074000D03*
X299212000Y-208534000D03*
X296672000Y-208534000D03*
X299212000Y-205994000D03*
X296672000Y-205994000D03*
X299212000Y-203454000D03*
X296672000Y-203454000D03*
%TD*%
D13*
%TO.C,R26*%
X87376000Y-135255000D03*
D14*
X87376000Y-127635000D03*
%TD*%
D10*
%TO.C,J23*%
X184658000Y-264160000D03*
D11*
X187198000Y-264160000D03*
X184658000Y-266700000D03*
X187198000Y-266700000D03*
%TD*%
D15*
%TO.C,U15*%
X94742000Y-169164000D03*
D16*
X94742000Y-171704000D03*
X94742000Y-174244000D03*
X94742000Y-176784000D03*
X94742000Y-179324000D03*
X94742000Y-181864000D03*
X94742000Y-184404000D03*
X94742000Y-186944000D03*
X94742000Y-189484000D03*
X94742000Y-192024000D03*
X102362000Y-192024000D03*
X102362000Y-189484000D03*
X102362000Y-186944000D03*
X102362000Y-184404000D03*
X102362000Y-181864000D03*
X102362000Y-179324000D03*
X102362000Y-176784000D03*
X102362000Y-174244000D03*
X102362000Y-171704000D03*
X102362000Y-169164000D03*
%TD*%
D29*
%TO.C,D12*%
X120952000Y-256033000D03*
D30*
X123492000Y-256033000D03*
%TD*%
D13*
%TO.C,R21*%
X213360000Y-149860000D03*
D14*
X220980000Y-149860000D03*
%TD*%
D10*
%TO.C,P29*%
X282702000Y-281432000D03*
D12*
X282702000Y-283972000D03*
X280162000Y-281432000D03*
X280162000Y-283972000D03*
X277622000Y-281432000D03*
X277622000Y-283972000D03*
X275082000Y-281432000D03*
X275082000Y-283972000D03*
X272542000Y-281432000D03*
X272542000Y-283972000D03*
X270002000Y-281432000D03*
X270002000Y-283972000D03*
X267462000Y-281432000D03*
X267462000Y-283972000D03*
X264922000Y-281432000D03*
X264922000Y-283972000D03*
X262382000Y-281432000D03*
X262382000Y-283972000D03*
X259842000Y-281432000D03*
X259842000Y-283972000D03*
X257302000Y-281432000D03*
X257302000Y-283972000D03*
X254762000Y-281432000D03*
X254762000Y-283972000D03*
X252222000Y-281432000D03*
X252222000Y-283972000D03*
X249682000Y-281432000D03*
X249682000Y-283972000D03*
X247142000Y-281432000D03*
X247142000Y-283972000D03*
X244602000Y-281432000D03*
X244602000Y-283972000D03*
X242062000Y-281432000D03*
X242062000Y-283972000D03*
X239522000Y-281432000D03*
X239522000Y-283972000D03*
X236982000Y-281432000D03*
X236982000Y-283972000D03*
X234442000Y-281432000D03*
X234442000Y-283972000D03*
%TD*%
D15*
%TO.C,U66*%
X195072000Y-134874000D03*
D16*
X195072000Y-137414000D03*
X195072000Y-139954000D03*
X195072000Y-142494000D03*
X195072000Y-145034000D03*
X195072000Y-147574000D03*
X195072000Y-150114000D03*
X195072000Y-152654000D03*
X202692000Y-152654000D03*
X202692000Y-150114000D03*
X202692000Y-147574000D03*
X202692000Y-145034000D03*
X202692000Y-142494000D03*
X202692000Y-139954000D03*
X202692000Y-137414000D03*
X202692000Y-134874000D03*
%TD*%
D10*
%TO.C,J5*%
X123633800Y-142245400D03*
D12*
X126173800Y-142245400D03*
X123633800Y-144785400D03*
X126173800Y-144785400D03*
X123633800Y-147325400D03*
X126173800Y-147325400D03*
X123633800Y-149865400D03*
X126173800Y-149865400D03*
X123633800Y-152405400D03*
X126173800Y-152405400D03*
X123633800Y-154945400D03*
X126173800Y-154945400D03*
%TD*%
D29*
%TO.C,D10*%
X105952000Y-256033000D03*
D30*
X108492000Y-256033000D03*
%TD*%
D10*
%TO.C,J22*%
X185166000Y-252730000D03*
D11*
X187706000Y-252730000D03*
X185166000Y-255270000D03*
X187706000Y-255270000D03*
%TD*%
D15*
%TO.C,U33*%
X187198000Y-179070000D03*
D16*
X187198000Y-181610000D03*
X187198000Y-184150000D03*
X187198000Y-186690000D03*
X187198000Y-189230000D03*
X187198000Y-191770000D03*
X187198000Y-194310000D03*
X194818000Y-194310000D03*
X194818000Y-191770000D03*
X194818000Y-189230000D03*
X194818000Y-186690000D03*
X194818000Y-184150000D03*
X194818000Y-181610000D03*
X194818000Y-179070000D03*
%TD*%
D13*
%TO.C,R23*%
X213360000Y-145542000D03*
D14*
X220980000Y-145542000D03*
%TD*%
D13*
%TO.C,R17*%
X213614000Y-136652000D03*
D14*
X221234000Y-136652000D03*
%TD*%
D38*
%TO.C,U29*%
X88900000Y-280308000D03*
D39*
X90170000Y-278238000D03*
X91440000Y-280308000D03*
%TD*%
D15*
%TO.C,P41*%
X144780000Y-251968000D03*
D16*
X144780000Y-254508000D03*
X144780000Y-257048000D03*
X144780000Y-259588000D03*
X144780000Y-262128000D03*
X144780000Y-264668000D03*
X144780000Y-267208000D03*
X152400000Y-267208000D03*
X152400000Y-264668000D03*
X152400000Y-262128000D03*
X152400000Y-259588000D03*
X152400000Y-257048000D03*
X152400000Y-254508000D03*
X152400000Y-251968000D03*
%TD*%
D10*
%TO.C,J17*%
X208534000Y-65024000D03*
D12*
X211074000Y-65024000D03*
X213614000Y-65024000D03*
X216154000Y-65024000D03*
X218694000Y-65024000D03*
X221234000Y-65024000D03*
%TD*%
D15*
%TO.C,P37*%
X201574400Y-179070000D03*
D16*
X201574400Y-181610000D03*
X201574400Y-184150000D03*
X201574400Y-186690000D03*
X201574400Y-189230000D03*
X201574400Y-191770000D03*
X201574400Y-194310000D03*
X209194400Y-194310000D03*
X209194400Y-191770000D03*
X209194400Y-189230000D03*
X209194400Y-186690000D03*
X209194400Y-184150000D03*
X209194400Y-181610000D03*
X209194400Y-179070000D03*
%TD*%
D13*
%TO.C,C34*%
X287782000Y-178736000D03*
X287782000Y-173736000D03*
%TD*%
D15*
%TO.C,U1*%
X88900000Y-199644000D03*
D16*
X88900000Y-202184000D03*
X88900000Y-204724000D03*
X88900000Y-207264000D03*
X88900000Y-209804000D03*
X88900000Y-212344000D03*
X88900000Y-214884000D03*
X88900000Y-217424000D03*
X88900000Y-219964000D03*
X88900000Y-222504000D03*
X96520000Y-222504000D03*
X96520000Y-219964000D03*
X96520000Y-217424000D03*
X96520000Y-214884000D03*
X96520000Y-212344000D03*
X96520000Y-209804000D03*
X96520000Y-207264000D03*
X96520000Y-204724000D03*
X96520000Y-202184000D03*
X96520000Y-199644000D03*
%TD*%
D13*
%TO.C,C57*%
X250524000Y-115062000D03*
X255524000Y-115062000D03*
%TD*%
D10*
%TO.C,K2*%
X263652000Y-257302000D03*
D12*
X263652000Y-259842000D03*
X263652000Y-262382000D03*
%TD*%
D10*
%TO.C,P27*%
X184150000Y-277876000D03*
D11*
X184150000Y-275336000D03*
X186690000Y-277876000D03*
X186690000Y-275336000D03*
X189230000Y-277876000D03*
X189230000Y-275336000D03*
X191770000Y-277876000D03*
X191770000Y-275336000D03*
X194310000Y-277876000D03*
X194310000Y-275336000D03*
X196850000Y-277876000D03*
X196850000Y-275336000D03*
X199390000Y-277876000D03*
X199390000Y-275336000D03*
X201930000Y-277876000D03*
X201930000Y-275336000D03*
X204470000Y-277876000D03*
X204470000Y-275336000D03*
X207010000Y-277876000D03*
X207010000Y-275336000D03*
X209550000Y-277876000D03*
X209550000Y-275336000D03*
X212090000Y-277876000D03*
X212090000Y-275336000D03*
X214630000Y-277876000D03*
X214630000Y-275336000D03*
X217170000Y-277876000D03*
X217170000Y-275336000D03*
X219710000Y-277876000D03*
X219710000Y-275336000D03*
X222250000Y-277876000D03*
X222250000Y-275336000D03*
X224790000Y-277876000D03*
X224790000Y-275336000D03*
%TD*%
D28*
%TO.C,J6*%
X113505800Y-81666400D03*
X113505800Y-84206400D03*
X113505800Y-86746400D03*
X113505800Y-89286400D03*
X113505800Y-91826400D03*
X113505800Y-94366400D03*
X113505800Y-96906400D03*
X113505800Y-99446400D03*
X113505800Y-101986400D03*
X113505800Y-104526400D03*
X113505800Y-107066400D03*
X113505800Y-109606400D03*
X113505800Y-112146400D03*
X113505800Y-114686400D03*
X113505800Y-117226400D03*
X113505800Y-119766400D03*
X113505800Y-122306400D03*
X113505800Y-124846400D03*
X113505800Y-127386400D03*
X113505800Y-129926400D03*
X113505800Y-132466400D03*
X113505800Y-135006400D03*
X113505800Y-137546400D03*
X113505800Y-140086400D03*
X113505800Y-142626400D03*
X113505800Y-145166400D03*
X113505800Y-147706400D03*
X113505800Y-150246400D03*
X113505800Y-152786400D03*
X113505800Y-155326400D03*
X113505800Y-157866400D03*
X118585800Y-81666400D03*
X118585800Y-84206400D03*
X118585800Y-86746400D03*
X118585800Y-89286400D03*
X118585800Y-91826400D03*
X118585800Y-94366400D03*
X118585800Y-96906400D03*
X118585800Y-99446400D03*
X118585800Y-101986400D03*
X118585800Y-104526400D03*
X118585800Y-107066400D03*
X118585800Y-109606400D03*
X118585800Y-112146400D03*
X118585800Y-114686400D03*
X118585800Y-117226400D03*
X118585800Y-119766400D03*
X118585800Y-122306400D03*
X118585800Y-124846400D03*
X118585800Y-127386400D03*
X118585800Y-129926400D03*
X118585800Y-132466400D03*
X118585800Y-135006400D03*
X118585800Y-137546400D03*
X118585800Y-140086400D03*
X118585800Y-142626400D03*
X118585800Y-145166400D03*
X118585800Y-147706400D03*
X118585800Y-150246400D03*
X118585800Y-152786400D03*
X118585800Y-155326400D03*
X118585800Y-157866400D03*
%TD*%
D13*
%TO.C,C56*%
X84662000Y-169164000D03*
X89662000Y-169164000D03*
%TD*%
D10*
%TO.C,JP10*%
X259102000Y-157512000D03*
D12*
X259102000Y-154972000D03*
%TD*%
D10*
%TO.C,J13*%
X184759600Y-142621000D03*
D12*
X187299600Y-142621000D03*
X184759600Y-145161000D03*
X187299600Y-145161000D03*
X184759600Y-147701000D03*
X187299600Y-147701000D03*
X184759600Y-150241000D03*
X187299600Y-150241000D03*
X184759600Y-152781000D03*
X187299600Y-152781000D03*
X184759600Y-155321000D03*
X187299600Y-155321000D03*
%TD*%
D21*
%TO.C,C73*%
X231311000Y-103879000D03*
D13*
X233811000Y-103879000D03*
%TD*%
D21*
%TO.C,RR5*%
X306832000Y-81788000D03*
D14*
X306832000Y-79248000D03*
X306832000Y-76708000D03*
X306832000Y-74168000D03*
X306832000Y-71628000D03*
X306832000Y-69088000D03*
X306832000Y-66548000D03*
X306832000Y-64008000D03*
X306832000Y-61468000D03*
X306832000Y-58928000D03*
%TD*%
D15*
%TO.C,U18*%
X274066000Y-179070000D03*
D16*
X274066000Y-181610000D03*
X274066000Y-184150000D03*
X274066000Y-186690000D03*
X274066000Y-189230000D03*
X274066000Y-191770000D03*
X274066000Y-194310000D03*
X281686000Y-194310000D03*
X281686000Y-191770000D03*
X281686000Y-189230000D03*
X281686000Y-186690000D03*
X281686000Y-184150000D03*
X281686000Y-181610000D03*
X281686000Y-179070000D03*
%TD*%
D21*
%TO.C,RR1*%
X141224000Y-167386000D03*
D14*
X143764000Y-167386000D03*
X146304000Y-167386000D03*
X148844000Y-167386000D03*
X151384000Y-167386000D03*
X153924000Y-167386000D03*
X156464000Y-167386000D03*
X159004000Y-167386000D03*
X161544000Y-167386000D03*
X164084000Y-167386000D03*
%TD*%
D29*
%TO.C,D7*%
X105918000Y-245110000D03*
D30*
X108458000Y-245110000D03*
%TD*%
D21*
%TO.C,RR8*%
X168402000Y-167386000D03*
D14*
X170942000Y-167386000D03*
X173482000Y-167386000D03*
X176022000Y-167386000D03*
X178562000Y-167386000D03*
X181102000Y-167386000D03*
X183642000Y-167386000D03*
X186182000Y-167386000D03*
X188722000Y-167386000D03*
X191262000Y-167386000D03*
%TD*%
D29*
%TO.C,D8*%
X113538000Y-245110000D03*
D30*
X116078000Y-245110000D03*
%TD*%
D17*
%TO.C,P19*%
X194564000Y-257048000D03*
D18*
X197104000Y-257048000D03*
X199644000Y-257048000D03*
X202184000Y-257048000D03*
X204724000Y-257048000D03*
X207264000Y-257048000D03*
X209804000Y-257048000D03*
X209804000Y-249428000D03*
X207264000Y-249428000D03*
X204724000Y-249428000D03*
X202184000Y-249428000D03*
X199644000Y-249428000D03*
X197104000Y-249428000D03*
X194564000Y-249428000D03*
%TD*%
D28*
%TO.C,J3*%
X72865800Y-81666400D03*
X72865800Y-84206400D03*
X72865800Y-86746400D03*
X72865800Y-89286400D03*
X72865800Y-91826400D03*
X72865800Y-94366400D03*
X72865800Y-96906400D03*
X72865800Y-99446400D03*
X72865800Y-101986400D03*
X72865800Y-104526400D03*
X72865800Y-107066400D03*
X72865800Y-109606400D03*
X72865800Y-112146400D03*
X72865800Y-114686400D03*
X72865800Y-117226400D03*
X72865800Y-119766400D03*
X72865800Y-122306400D03*
X72865800Y-124846400D03*
X72865800Y-127386400D03*
X72865800Y-129926400D03*
X72865800Y-132466400D03*
X72865800Y-135006400D03*
X72865800Y-137546400D03*
X72865800Y-140086400D03*
X72865800Y-142626400D03*
X72865800Y-145166400D03*
X72865800Y-147706400D03*
X72865800Y-150246400D03*
X72865800Y-152786400D03*
X72865800Y-155326400D03*
X72865800Y-157866400D03*
X77945800Y-81666400D03*
X77945800Y-84206400D03*
X77945800Y-86746400D03*
X77945800Y-89286400D03*
X77945800Y-91826400D03*
X77945800Y-94366400D03*
X77945800Y-96906400D03*
X77945800Y-99446400D03*
X77945800Y-101986400D03*
X77945800Y-104526400D03*
X77945800Y-107066400D03*
X77945800Y-109606400D03*
X77945800Y-112146400D03*
X77945800Y-114686400D03*
X77945800Y-117226400D03*
X77945800Y-119766400D03*
X77945800Y-122306400D03*
X77945800Y-124846400D03*
X77945800Y-127386400D03*
X77945800Y-129926400D03*
X77945800Y-132466400D03*
X77945800Y-135006400D03*
X77945800Y-137546400D03*
X77945800Y-140086400D03*
X77945800Y-142626400D03*
X77945800Y-145166400D03*
X77945800Y-147706400D03*
X77945800Y-150246400D03*
X77945800Y-152786400D03*
X77945800Y-155326400D03*
X77945800Y-157866400D03*
%TD*%
D21*
%TO.C,C102*%
X207558000Y-118110000D03*
D13*
X210058000Y-118110000D03*
%TD*%
D15*
%TO.C,U21*%
X153924000Y-173990000D03*
D16*
X153924000Y-176530000D03*
X153924000Y-179070000D03*
X153924000Y-181610000D03*
X153924000Y-184150000D03*
X153924000Y-186690000D03*
X153924000Y-189230000D03*
X153924000Y-191770000D03*
X153924000Y-194310000D03*
X153924000Y-196850000D03*
X161544000Y-196850000D03*
X161544000Y-194310000D03*
X161544000Y-191770000D03*
X161544000Y-189230000D03*
X161544000Y-186690000D03*
X161544000Y-184150000D03*
X161544000Y-181610000D03*
X161544000Y-179070000D03*
X161544000Y-176530000D03*
X161544000Y-173990000D03*
%TD*%
D21*
%TO.C,RP1*%
X223822000Y-264034000D03*
D14*
X226362000Y-264034000D03*
X228902000Y-264034000D03*
X231442000Y-264034000D03*
X233982000Y-264034000D03*
X236522000Y-264034000D03*
X239062000Y-264034000D03*
X241602000Y-264034000D03*
X244142000Y-264034000D03*
%TD*%
D13*
%TO.C,R47*%
X156752000Y-278154000D03*
D14*
X164372000Y-278154000D03*
%TD*%
D13*
%TO.C,R24*%
X213614000Y-127254000D03*
D14*
X221234000Y-127254000D03*
%TD*%
D31*
%TO.C,RV2*%
X200700000Y-104140000D03*
X200700000Y-106680000D03*
X200700000Y-109220000D03*
%TD*%
D23*
%TO.C,P8*%
X149040400Y-221312400D03*
D24*
X149040400Y-221312400D03*
%TD*%
D15*
%TO.C,U63*%
X269494000Y-256286000D03*
D16*
X269494000Y-258826000D03*
X269494000Y-261366000D03*
X269494000Y-263906000D03*
X269494000Y-266446000D03*
X269494000Y-268986000D03*
X269494000Y-271526000D03*
X277114000Y-271526000D03*
X277114000Y-268986000D03*
X277114000Y-266446000D03*
X277114000Y-263906000D03*
X277114000Y-261366000D03*
X277114000Y-258826000D03*
X277114000Y-256286000D03*
%TD*%
D15*
%TO.C,U70*%
X269494000Y-202692000D03*
D16*
X269494000Y-205232000D03*
X269494000Y-207772000D03*
X269494000Y-210312000D03*
X269494000Y-212852000D03*
X269494000Y-215392000D03*
X269494000Y-217932000D03*
X269494000Y-220472000D03*
X277114000Y-220472000D03*
X277114000Y-217932000D03*
X277114000Y-215392000D03*
X277114000Y-212852000D03*
X277114000Y-210312000D03*
X277114000Y-207772000D03*
X277114000Y-205232000D03*
X277114000Y-202692000D03*
%TD*%
D21*
%TO.C,C110*%
X207304000Y-145542000D03*
D13*
X209804000Y-145542000D03*
%TD*%
%TO.C,R10*%
X151384000Y-211836000D03*
D14*
X151384000Y-204216000D03*
%TD*%
D10*
%TO.C,P31*%
X233426000Y-271526000D03*
D12*
X233426000Y-268986000D03*
X235966000Y-271526000D03*
X235966000Y-268986000D03*
X238506000Y-271526000D03*
X238506000Y-268986000D03*
X241046000Y-271526000D03*
X241046000Y-268986000D03*
X243586000Y-271526000D03*
X243586000Y-268986000D03*
X246126000Y-271526000D03*
X246126000Y-268986000D03*
X248666000Y-271526000D03*
X248666000Y-268986000D03*
X251206000Y-271526000D03*
X251206000Y-268986000D03*
X253746000Y-271526000D03*
X253746000Y-268986000D03*
X256286000Y-271526000D03*
X256286000Y-268986000D03*
X258826000Y-271526000D03*
X258826000Y-268986000D03*
X261366000Y-271526000D03*
X261366000Y-268986000D03*
X263906000Y-271526000D03*
X263906000Y-268986000D03*
%TD*%
D10*
%TO.C,J12*%
X74422000Y-227838000D03*
D11*
X76962000Y-227838000D03*
X74422000Y-230378000D03*
X76962000Y-230378000D03*
X74422000Y-232918000D03*
X76962000Y-232918000D03*
X74422000Y-235458000D03*
X76962000Y-235458000D03*
X74422000Y-237998000D03*
X76962000Y-237998000D03*
X74422000Y-240538000D03*
X76962000Y-240538000D03*
X74422000Y-243078000D03*
X76962000Y-243078000D03*
X74422000Y-245618000D03*
X76962000Y-245618000D03*
X74422000Y-248158000D03*
X76962000Y-248158000D03*
X74422000Y-250698000D03*
X76962000Y-250698000D03*
X74422000Y-253238000D03*
X76962000Y-253238000D03*
%TD*%
D21*
%TO.C,C71*%
X231434000Y-94742000D03*
D13*
X233934000Y-94742000D03*
%TD*%
D10*
%TO.C,K18*%
X151638000Y-234442000D03*
D12*
X151638000Y-236982000D03*
X151638000Y-239522000D03*
%TD*%
D15*
%TO.C,U53*%
X224790000Y-204978000D03*
D16*
X224790000Y-207518000D03*
X224790000Y-210058000D03*
X224790000Y-212598000D03*
X224790000Y-215138000D03*
X224790000Y-217678000D03*
X224790000Y-220218000D03*
X224790000Y-222758000D03*
X224790000Y-225298000D03*
X224790000Y-227838000D03*
X224790000Y-230378000D03*
X224790000Y-232918000D03*
X224790000Y-235458000D03*
X224790000Y-237998000D03*
X224790000Y-240538000D03*
X224790000Y-243078000D03*
X240030000Y-243078000D03*
X240030000Y-240538000D03*
X240030000Y-237998000D03*
X240030000Y-235458000D03*
X240030000Y-232918000D03*
X240030000Y-230378000D03*
X240030000Y-227838000D03*
X240030000Y-225298000D03*
X240030000Y-222758000D03*
X240030000Y-220218000D03*
X240030000Y-217678000D03*
X240030000Y-215138000D03*
X240030000Y-212598000D03*
X240030000Y-210058000D03*
X240030000Y-207518000D03*
X240030000Y-204978000D03*
%TD*%
M02*
